# Blender v2.77 (sub 0) OBJ File: 'hor1.blend'
# www.blender.org
mtllib book.mtl
o room0_shelf.000_Plane.016
v -5.771976 0.860000 -3.225000
v -5.771976 1.128893 -3.225000
v -5.771976 0.860000 -3.294340
v -5.771976 1.128893 -3.294340
v -5.528024 0.860000 -3.240060
v -5.543084 0.860000 -3.225000
v -5.543084 1.128893 -3.225000
v -5.528024 1.128893 -3.240060
v -5.543084 0.860000 -3.294340
v -5.528024 0.860000 -3.279280
v -5.528024 1.128893 -3.279280
v -5.543084 1.128893 -3.294340
vt 0.0110 0.9195
vt 0.4781 0.9195
vt 0.4781 0.9890
vt 0.0110 0.9890
vt 0.6448 0.4347
vt 0.6448 0.0371
vt 0.6715 0.0110
vt 0.7410 0.0110
vt 0.7677 0.0371
vt 0.7677 0.4347
vt 0.0110 0.4166
vt 0.0110 0.0110
vt 0.4781 0.0110
vt 0.4781 0.4166
vt 0.6229 0.0110
vt 0.6229 0.4781
vt 0.5000 0.4781
vt 0.5000 0.0110
vt 0.4781 0.8709
vt 0.0110 0.8709
vt 0.0110 0.4652
vt 0.4781 0.4652
vt 0.0110 0.8928
vt 0.4781 0.8928
vt 0.4781 0.4433
vt 0.0110 0.4433
vt 0.6715 0.8805
vt 0.6448 0.8543
vt 0.6448 0.4567
vt 0.7677 0.4567
vt 0.7677 0.8543
vt 0.7410 0.8805
vn 0.9239 0.0000 0.3827
vn 0.9239 0.0000 -0.3827
vn 0.0000 1.0000 0.0000
vn 0.3827 0.0000 -0.9239
vn 0.0000 0.0000 -1.0000
vn -1.0000 0.0000 0.0000
vn 0.3827 0.0000 0.9239
vn 0.0000 0.0000 1.0000
vn 0.0000 -1.0000 -0.0000
usemtl None
s 1
f 8/1/1 5/2/1 10/3/2 11/4/2
f 2/5/3 7/6/3 8/7/3 11/8/3 12/9/3 4/10/3
f 9/11/4 3/12/5 4/13/5 12/14/4
f 1/15/6 2/16/6 4/17/6 3/18/6
f 6/19/7 7/20/7 2/21/8 1/22/8
f 7/23/7 6/24/7 5/2/1 8/1/1
f 11/25/2 10/26/2 9/11/4 12/14/4
f 5/27/9 6/28/9 1/29/9 3/30/9 9/31/9 10/32/9
