# Blender v2.77 (sub 0) OBJ File: 'hor1.blend'
# www.blender.org
mtllib hor1 wood.mtl
o Plane.004
v 2.171216 1.385308 1.719934
v 2.171216 0.919106 1.900641
v 2.171216 2.830894 5.449361
v 2.171216 2.364692 5.630069
v 2.134533 3.169170 1.893255
v 2.134533 2.692615 1.741945
v 2.134533 1.958753 5.705503
v 2.134533 1.482197 5.554193
v 2.109225 3.016924 1.881690
v 2.109225 2.626912 1.568815
v 2.109225 0.514057 5.001626
v 2.109225 0.124044 4.688751
vt 0.9978 0.0022
vt 0.9978 0.1266
vt 0.0022 0.1266
vt 0.0022 0.0022
vt 0.9978 0.0022
vt 0.9978 0.1266
vt 0.0022 0.1266
vt 0.0022 0.0022
vt 0.9978 0.0022
vt 0.9978 0.1266
vt 0.0022 0.1266
vt 0.0022 0.0022
vn -1.0000 0.0000 0.0000
usemtl Material.001
s off
f 1/1/1 2/2/1 4/3/1 3/4/1
f 5/5/1 6/6/1 8/7/1 7/8/1
f 9/9/1 10/10/1 12/11/1 11/12/1
