# Blender v2.77 (sub 0) OBJ File: 'hor1.blend'
# www.blender.org
mtllib hor1 toilet2 bowl.mtl
o toilet_2_bowl_Plane.034
v -1.740422 -0.085340 2.494455
v -1.642709 0.010000 2.405562
v -2.422034 -0.045145 2.470636
v -2.487002 -0.041434 2.405562
v -1.742056 0.010000 2.138882
v -2.424779 0.010000 2.162701
v -2.489854 0.010000 2.227775
v -2.513673 0.010000 2.316669
v -2.510782 -0.040075 2.316669
v -2.489854 0.010000 2.405562
v -2.424779 0.010000 2.470636
v -1.742056 0.010000 2.494455
v -2.487002 -0.041434 2.227775
v -1.636393 0.010000 2.316669
v -1.642709 0.010000 2.227775
v -1.680319 0.010000 2.162701
v -1.848048 0.010000 2.135869
v -2.422034 -0.045145 2.162701
v -1.740422 -0.085340 2.138882
v -1.641236 -0.085340 2.405562
v -1.680319 0.010000 2.470636
v -1.848048 0.010000 2.497468
v -2.616830 0.010000 2.316669
v -1.533170 0.010000 2.316669
v -2.616830 0.000000 2.316669
v -1.533170 0.000000 2.316669
v -1.533170 0.010000 1.881344
v -1.592194 0.010000 1.822320
v -1.574876 0.010000 1.864087
v -1.566234 0.010000 1.871214
v -1.557890 0.010000 1.875918
v -1.550279 0.010000 1.878810
v -2.557806 0.010000 1.822320
v -2.616830 0.010000 1.881344
v -2.596744 0.010000 1.877821
v -2.586213 0.010000 1.872782
v -1.533170 0.000000 2.751993
v -1.592194 0.000000 2.811017
v -2.557806 0.000000 2.811017
v -2.616830 0.000000 2.751993
v -2.616830 0.010000 2.751993
v -2.557806 0.010000 2.811017
v -2.586213 0.010000 2.760555
v -2.596744 0.010000 2.755516
v -1.592194 0.010000 2.811017
v -1.533170 0.010000 2.751993
v -1.550279 0.010000 2.754527
v -1.557890 0.010000 2.757419
v -1.566234 0.010000 2.762123
v -1.574876 0.010000 2.769250
v -2.616830 0.000000 1.881344
v -2.557806 0.000000 1.822320
v -1.592194 0.000000 1.822320
v -1.533170 0.000000 1.881344
v -1.634931 -0.085340 2.316669
v -1.641236 -0.085340 2.227775
v -1.678785 -0.085340 2.162701
v -1.846241 -0.085340 2.138597
v -1.678785 -0.085340 2.470636
v -1.846241 -0.085340 2.494740
v -1.901905 -0.085340 2.405562
v -1.925685 -0.085340 2.316669
v -1.901905 -0.085340 2.227775
v -2.224152 -0.067719 2.508042
v -2.224152 -0.067719 2.125295
v -1.630195 -0.067719 2.508042
v -1.630195 -0.067719 2.125295
vt 0.5971 0.3068
vt 0.5971 0.0484
vt 0.5915 0.0484
vt 0.5915 0.3068
vt 0.2925 0.9130
vt 0.3427 0.8988
vt 0.5406 0.9623
vt 0.5386 0.9742
vt 0.2925 0.9742
vt 0.7738 0.0867
vt 0.7735 0.5121
vt 0.7678 0.5121
vt 0.7681 0.0867
vt 0.3795 0.4183
vt 0.5417 0.3456
vt 0.5444 0.3505
vt 0.3930 0.4549
vt 0.3427 0.3959
vt 0.5401 0.3411
vt 0.2925 0.3922
vt 0.2925 0.3309
vt 0.5386 0.3309
vt 0.5971 0.5652
vt 0.5915 0.5652
vt 0.2054 0.8602
vt 0.2422 0.8988
vt 0.0443 0.9623
vt 0.0415 0.9560
vt 0.1902 0.5178
vt 0.0366 0.3557
vt 0.0406 0.3505
vt 0.1920 0.4549
vt 0.0463 0.9742
vt 0.2054 0.4183
vt 0.0433 0.3456
vt 0.2422 0.3959
vt 0.0449 0.3411
vt 0.0463 0.3309
vt 0.6941 0.6469
vt 0.6951 0.6083
vt 0.6660 0.6083
vt 0.6629 0.6469
vt 0.3947 0.5178
vt 0.5484 0.3557
vt 0.6328 0.3598
vt 0.6316 0.1866
vt 0.6259 0.1866
vt 0.6272 0.3598
vt 0.6303 0.8347
vt 0.6328 0.4093
vt 0.6272 0.4093
vt 0.6247 0.8347
vt 0.3795 0.8602
vt 0.5435 0.9560
vt 0.0130 0.3660
vt 0.0130 0.9392
vt 0.6303 0.0133
vt 0.6247 0.0133
vt 0.5720 0.3660
vt 0.5720 0.9392
vt 0.7678 0.0372
vt 0.7735 0.0372
vt 0.5924 0.6003
vt 0.5980 0.6003
vt 0.5980 0.0133
vt 0.5924 0.0133
vt 0.6595 0.0142
vt 0.6599 0.0524
vt 0.7138 0.0515
vt 0.7134 0.0133
vt 0.6955 0.5555
vt 0.6672 0.5555
vt 0.6601 0.0948
vt 0.7141 0.0939
vt 0.8011 0.2208
vt 0.8011 0.1842
vt 0.8550 0.1832
vt 0.8550 0.2199
vt 0.8008 0.1417
vt 0.8004 0.1035
vt 0.8543 0.1027
vt 0.8547 0.1408
vt 0.6602 0.1315
vt 0.7141 0.1305
vt 0.6951 0.5027
vt 0.6660 0.5027
vt 0.8004 0.5121
vt 0.8010 0.2687
vt 0.8549 0.2666
vt 0.8316 0.5108
vt 0.6601 0.1794
vt 0.6595 0.4228
vt 0.6907 0.4214
vt 0.7140 0.1773
vt 0.6941 0.4641
vt 0.6629 0.4641
vt 0.5332 0.2046
vt 0.5190 0.2548
vt 0.1713 0.2539
vt 0.1855 0.2037
vt 0.5192 0.1543
vt 0.1716 0.1534
vt 0.4807 0.1174
vt 0.1387 0.1029
vt 0.4803 0.2915
vt 0.1381 0.3043
vt 0.0759 0.1029
vt 0.0753 0.3039
vt 0.0387 0.2904
vt 0.0166 0.2535
vt 0.0130 0.2032
vt 0.0168 0.1530
vt 0.0392 0.1162
vt 0.7654 0.6051
vt 0.7654 0.9577
vt 0.9818 0.9577
vt 0.9818 0.6051
vn 1.0000 0.0000 0.0000
vn 0.9239 0.0000 0.3827
vn 0.0000 1.0000 -0.0000
vn 0.0000 0.0000 -1.0000
vn 0.9239 0.0000 -0.3827
vn 0.4132 0.0306 0.9101
vn 0.8677 0.0476 0.4948
vn 0.8609 0.0472 0.5066
vn 0.3817 0.0298 0.9238
vn -0.9239 0.0000 0.3827
vn -1.0000 0.0000 0.0000
vn 0.0000 0.0000 1.0000
vn -0.9239 0.0000 -0.3827
vn -0.7071 0.0000 -0.7071
vn 0.7071 0.0000 -0.7071
vn -0.7071 0.0000 0.7071
vn 0.7071 0.0000 0.7071
vn -0.9999 -0.0154 -0.0000
vn -0.9558 -0.0149 0.2935
vn -0.9562 -0.0149 0.2923
vn 0.9984 0.0565 -0.0000
vn -0.6481 -0.0104 0.7614
vn -0.6521 -0.0104 0.7581
vn -0.1890 0.0042 -0.9820
vn -0.6481 -0.0104 -0.7614
vn -0.6521 -0.0104 -0.7581
vn -0.1927 0.0040 -0.9812
vn -0.9558 -0.0149 -0.2935
vn -0.9562 -0.0149 -0.2923
vn -0.1890 0.0042 0.9820
vn -0.1927 0.0040 0.9812
vn 0.8677 0.0476 -0.4948
vn 0.8609 0.0472 -0.5066
vn 0.4132 0.0306 -0.9101
vn 0.0150 0.0168 -0.9997
vn 0.0136 0.0167 -0.9998
vn 0.3817 0.0298 -0.9238
vn 0.0150 0.0168 0.9997
vn 0.0136 0.0167 0.9998
vn 0.0760 0.9971 -0.0000
vn 0.0751 0.9970 -0.0188
vn 0.0405 0.9991 -0.0138
vn 0.0443 0.9990 0.0000
vn 0.0751 0.9970 0.0188
vn 0.0405 0.9991 0.0138
vn 0.0729 0.9968 0.0330
vn 0.0229 0.9997 0.0104
vn 0.0729 0.9968 -0.0330
vn 0.0229 0.9997 -0.0104
usemtl Material.008
s 1
f 24/1/1 46/2/2 37/3/2 26/4/1
f 8/5/3 7/6/3 35/7/3 34/8/3 23/9/3
f 33/10/4 28/11/4 53/12/4 52/13/4
f 16/14/3 31/15/3 30/16/3 5/17/3
f 15/18/3 32/19/3 31/15/3 16/14/3
f 14/20/3 24/21/3 27/22/3 32/19/3 15/18/3
f 27/23/5 24/1/1 26/4/1 54/24/5
f 11/25/3 10/26/3 44/27/3 43/28/3
f 22/29/3 50/30/3 49/31/3 12/32/3
f 8/5/3 23/9/3 41/33/3 44/27/3 10/26/3
f 21/34/3 12/32/3 49/31/3 48/35/3
f 2/36/3 21/34/3 48/35/3 47/37/3
f 14/20/3 2/36/3 47/37/3 46/38/3 24/21/3
f 6/39/6 7/40/7 13/41/8 18/42/9
f 17/43/3 5/17/3 30/16/3 29/44/3
f 41/45/10 23/46/11 25/47/11 40/48/10
f 45/49/12 42/50/12 39/51/12 38/52/12
f 6/53/3 36/54/3 35/7/3 7/6/3
f 45/55/3 50/30/3 22/29/3 11/25/3 43/28/3 42/56/3
f 23/46/11 34/57/13 51/58/13 25/47/11
f 27/22/3 28/59/3 29/44/3 30/16/3 31/15/3 32/19/3
f 33/60/3 34/8/3 35/7/3 36/54/3
f 41/33/3 42/56/3 43/28/3 44/27/3
f 45/55/3 46/38/3 47/37/3 48/35/3 49/31/3 50/30/3
f 51/61/13 34/62/13 33/10/14 52/13/14
f 27/23/5 54/24/5 53/63/15 28/64/15
f 41/45/10 40/48/10 39/51/16 42/50/16
f 37/3/2 46/2/2 45/65/17 38/66/17
f 29/44/3 28/59/3 33/60/3 36/54/3 6/53/3 17/43/3
f 14/67/18 15/68/19 56/69/20 55/70/18
f 7/40/7 8/71/21 9/72/21 13/41/8
f 15/68/19 16/73/22 57/74/23 56/69/20
f 12/75/24 21/76/25 59/77/26 1/78/27
f 2/79/28 14/80/18 55/81/18 20/82/29
f 16/73/22 5/83/30 19/84/31 57/74/23
f 21/76/25 2/79/28 20/82/29 59/77/26
f 8/71/21 10/85/32 4/86/33 9/72/21
f 11/87/34 22/88/35 60/89/36 3/90/37
f 17/91/38 6/92/6 18/93/9 58/94/39
f 10/85/32 11/95/34 3/96/37 4/86/33
f 22/88/35 12/75/24 1/78/27 60/89/36
f 5/83/30 17/91/38 58/94/39 19/84/31
f 9/97/40 4/98/41 61/99/42 62/100/43
f 13/101/44 9/97/40 62/100/43 63/102/45
f 18/103/46 13/101/44 63/102/45 58/104/47
f 4/98/41 3/105/48 60/106/49 61/99/42
f 19/107/3 58/104/47 63/102/45 62/100/43 61/99/42 60/106/49 1/108/3 59/109/3 20/110/3 55/111/3 56/112/3 57/113/3
f 64/114/3 66/115/3 67/116/3 65/117/3
