# Blender v2.77 (sub 0) OBJ File: 'hor1.blend'
# www.blender.org
mtllib hor1 konobi.mtl
o Plane.034_Plane.022
v -4.971045 3.500000 -5.281973
v -2.971045 3.500000 -5.281973
v -4.926311 3.943398 -5.294294
v -3.015778 3.943398 -5.294294
v -4.926311 4.556602 -5.490880
v -3.015778 4.556602 -5.490880
v -4.971045 3.900000 -5.279483
v -2.971045 3.900000 -5.279483
v -4.971045 4.600000 -5.504499
v -2.971045 4.600000 -5.504499
v -4.926311 3.938725 -5.313104
v -3.015778 3.938725 -5.313104
v -4.926311 4.551929 -5.504097
v -3.015778 4.551929 -5.504097
v -4.971045 4.133333 -5.353363
v -4.971045 4.366667 -5.426392
v -2.971045 4.133333 -5.353363
v -2.971045 4.366667 -5.426392
v -4.926311 4.147799 -5.356938
v -4.926311 4.352201 -5.420942
v -3.015778 4.147799 -5.356938
v -3.015778 4.352201 -5.420942
v -4.926311 4.143126 -5.374638
v -4.926311 4.347528 -5.436190
v -3.015778 4.143126 -5.374638
v -3.015778 4.347528 -5.436190
v -4.926311 3.931807 -5.340418
v -3.015778 3.931807 -5.340418
v -4.926311 4.136209 -5.400046
v -4.926311 4.340610 -5.459836
v -3.015778 4.136209 -5.400046
v -3.015778 4.340610 -5.459836
v -4.971045 3.500000 -5.981973
v -2.971045 3.500000 -5.981973
v -4.926311 3.943398 -5.969653
v -3.015778 3.943398 -5.969653
v -4.926311 4.556602 -5.773067
v -3.015778 4.556602 -5.773067
v -4.971045 3.900000 -5.984464
v -2.971045 3.900000 -5.984464
v -4.971045 4.600000 -5.759448
v -2.971045 4.600000 -5.759448
v -4.926311 3.938725 -5.950842
v -3.015778 3.938725 -5.950842
v -4.926311 4.551929 -5.759850
v -3.015778 4.551929 -5.759850
v -4.971045 4.133333 -5.910584
v -4.971045 4.366667 -5.837555
v -2.971045 4.133333 -5.910584
v -2.971045 4.366667 -5.837555
v -4.926311 4.147799 -5.907008
v -4.926311 4.352201 -5.843005
v -3.015778 4.147799 -5.907008
v -3.015778 4.352201 -5.843005
v -4.926311 4.143126 -5.889308
v -4.926311 4.347528 -5.827757
v -3.015778 4.143126 -5.889308
v -3.015778 4.347528 -5.827757
v -4.926311 3.931807 -5.923528
v -3.015778 3.931807 -5.923528
v -4.926311 4.136209 -5.863900
v -4.926311 4.340610 -5.804111
v -3.015778 4.136209 -5.863900
v -3.015778 4.340610 -5.804111
v -3.492673 4.352613 -5.421737
v -3.492673 4.141192 -5.385889
v -3.192673 4.352608 -5.421765
v -3.192673 4.141188 -5.385917
v -3.192674 4.350235 -5.435758
v -3.492674 4.350240 -5.435729
v -3.492674 4.138820 -5.399881
v -3.192674 4.138815 -5.399909
v -4.173705 3.937108 -5.323981
v -3.959267 3.937108 -5.323981
v -4.173705 4.232864 -5.374262
v -3.959267 4.232864 -5.374262
v -4.173705 4.230485 -5.388254
v -4.173705 3.934729 -5.337972
v -3.959267 3.934729 -5.337972
v -3.959267 4.230485 -5.388254
v -4.762157 4.344587 -5.445819
v -4.547719 4.344587 -5.445819
v -4.762157 4.641459 -5.489029
v -4.547719 4.641459 -5.489029
v -4.762157 4.639415 -5.503073
v -4.762157 4.342544 -5.459864
v -4.547719 4.342544 -5.459864
v -4.547719 4.639415 -5.503073
v -3.541891 3.937108 -5.939966
v -3.327454 3.937108 -5.939966
v -3.541891 4.232864 -5.889684
v -3.327454 4.232864 -5.889684
v -3.541891 4.230485 -5.875693
v -3.541891 3.934729 -5.925974
v -3.327454 3.934729 -5.925974
v -3.327454 4.230485 -5.875693
v -4.341519 4.141071 -5.878472
v -4.127081 4.141071 -5.878472
v -4.341519 4.437036 -5.829433
v -4.127081 4.437036 -5.829433
v -4.341519 4.434716 -5.815432
v -4.341519 4.138751 -5.864470
v -4.127081 4.138751 -5.864470
v -4.127081 4.434716 -5.815432
vt 0.7985 0.9844
vt 0.6026 0.9844
vt 0.6026 0.0056
vt 0.7985 0.0056
vt 0.7997 0.9844
vt 0.7997 0.0056
vt 0.6038 0.0056
vt 0.6038 0.9844
vt 0.4017 0.0028
vt 0.5969 0.0028
vt 0.5969 0.9692
vt 0.4017 0.9692
vt 0.4017 0.0071
vt 0.4017 0.9735
vt 0.5969 0.9735
vt 0.5969 0.0071
vt 0.0035 0.0144
vt 0.1987 0.0144
vt 0.1987 0.9787
vt 0.0035 0.9787
vt 0.0035 0.0198
vt 0.0035 0.9841
vt 0.1987 0.9841
vt 0.1987 0.0198
vt 0.3975 0.0083
vt 0.3975 0.9721
vt 0.2029 0.9721
vt 0.2029 0.0083
vt 0.3975 0.0126
vt 0.2029 0.0126
vt 0.2029 0.9764
vt 0.3975 0.9764
vt 0.9978 0.0105
vt 0.9978 0.9799
vt 0.8020 0.9799
vt 0.8020 0.0105
vt 0.9978 0.0150
vt 0.8020 0.0150
vt 0.8020 0.9844
vt 0.9978 0.9844
vt 0.2283 0.7144
vt 0.1586 0.7082
vt 0.1586 0.6613
vt 0.2283 0.6551
vt 0.3860 0.6955
vt 0.3860 0.6740
vt 0.4558 0.6675
vt 0.4558 0.7020
vt 0.2102 0.6170
vt 0.2102 0.0190
vt 0.2427 0.0190
vt 0.2427 0.6170
vt 0.7841 0.7563
vt 0.7836 0.8209
vt 0.7824 0.8207
vt 0.7828 0.7563
vt 0.3425 0.0190
vt 0.3639 0.0190
vt 0.3639 0.6170
vt 0.3425 0.6170
vt 0.1133 0.6170
vt 0.1133 0.0190
vt 0.1721 0.0190
vt 0.1721 0.6170
vt 0.5255 0.6613
vt 0.5255 0.7082
vt 0.5953 0.6551
vt 0.5953 0.7144
vt 0.2466 0.0324
vt 0.2466 0.6037
vt 0.3006 0.6037
vt 0.3006 0.0324
vt 0.3044 0.0190
vt 0.3044 0.6170
vt 0.2825 0.6037
vt 0.2838 0.6170
vt 0.2645 0.0324
vt 0.2633 0.0190
vt 0.9799 0.5903
vt 0.9799 0.0190
vt 0.9810 0.0190
vt 0.9810 0.5903
vt 0.9104 0.7570
vt 0.9104 0.8209
vt 0.9088 0.8206
vt 0.9088 0.7567
vt 0.5903 0.7563
vt 0.0190 0.7563
vt 0.0190 0.7547
vt 0.5903 0.7547
vt 0.9097 0.6283
vt 0.9103 0.6929
vt 0.9089 0.6929
vt 0.9085 0.6285
vt 0.2825 0.0324
vt 0.2838 0.0190
vt 0.2645 0.6037
vt 0.2633 0.6170
vt 0.0888 0.7020
vt 0.0888 0.6675
vt 0.0190 0.6955
vt 0.0190 0.6740
vt 0.7843 0.6283
vt 0.7843 0.6923
vt 0.7827 0.6925
vt 0.7826 0.6287
vt 0.3479 0.7142
vt 0.3479 0.6553
vt 0.0190 0.7524
vt 0.5903 0.7524
vt 0.9069 0.6928
vt 0.7807 0.7564
vt 0.8606 0.5903
vt 0.8606 0.0190
vt 0.8626 0.0190
vt 0.8626 0.5903
vt 0.7824 0.0190
vt 0.7824 0.5903
vt 0.7803 0.5903
vt 0.7803 0.0190
vt 0.9066 0.7565
vt 0.9064 0.8202
vt 0.7803 0.6291
vt 0.7805 0.6927
vt 0.4020 0.0190
vt 0.4201 0.0190
vt 0.4201 0.5903
vt 0.4020 0.5903
vt 0.5323 0.5903
vt 0.5144 0.5903
vt 0.5144 0.0190
vt 0.5323 0.0190
vt 0.6443 0.0190
vt 0.6443 0.5903
vt 0.6264 0.5903
vt 0.6264 0.0190
vt 0.0808 0.6170
vt 0.0808 0.0190
vt 0.8262 0.6929
vt 0.8248 0.6929
vt 0.8244 0.6285
vt 0.8256 0.6283
vt 0.0769 0.0324
vt 0.0769 0.6037
vt 0.0228 0.6037
vt 0.0190 0.6170
vt 0.0190 0.0190
vt 0.0228 0.0324
vt 0.0410 0.6037
vt 0.0397 0.6170
vt 0.0589 0.0324
vt 0.0602 0.0190
vt 0.9418 0.5903
vt 0.9407 0.5903
vt 0.9407 0.0190
vt 0.9418 0.0190
vt 0.8683 0.6923
vt 0.8668 0.6925
vt 0.8667 0.6287
vt 0.8683 0.6283
vt 0.7422 0.5903
vt 0.7406 0.5903
vt 0.7406 0.0190
vt 0.7422 0.0190
vt 0.8676 0.8209
vt 0.8665 0.8207
vt 0.8669 0.7563
vt 0.8682 0.7563
vt 0.0397 0.0190
vt 0.0410 0.0324
vt 0.0602 0.6170
vt 0.0589 0.6037
vt 0.8263 0.8209
vt 0.8247 0.8206
vt 0.8248 0.7567
vt 0.8263 0.7570
vt 0.7383 0.5903
vt 0.7383 0.0190
vt 0.8648 0.7564
vt 0.8228 0.6928
vt 0.9027 0.5903
vt 0.9007 0.5903
vt 0.9007 0.0190
vt 0.9027 0.0190
vt 0.8204 0.0190
vt 0.8226 0.0190
vt 0.8226 0.5903
vt 0.8204 0.5903
vt 0.8646 0.6927
vt 0.8643 0.6291
vt 0.8223 0.8202
vt 0.8225 0.7565
vt 0.4763 0.0190
vt 0.4763 0.5903
vt 0.4582 0.5903
vt 0.4582 0.0190
vt 0.5704 0.5903
vt 0.5704 0.0190
vt 0.5883 0.0190
vt 0.5883 0.5903
vt 0.7003 0.5903
vt 0.6824 0.5903
vt 0.6824 0.0190
vt 0.7003 0.0190
vt 0.7149 0.6553
vt 0.7149 0.7142
vn 0.0001 0.1672 0.9859
vn -0.0001 -0.1672 -0.9859
vn 1.0000 -0.0000 -0.0001
vn -1.0000 0.0000 0.0001
vn 0.0000 -0.9859 0.1671
vn 0.0000 0.9859 -0.1672
vn 0.0000 0.1676 0.9859
vn 0.0000 -0.1676 -0.9859
vn 0.0000 0.9858 -0.1676
vn 0.0000 -0.9859 0.1676
vn 1.0000 0.0000 0.0000
vn -1.0000 0.0000 0.0000
vn 0.0000 0.1440 0.9896
vn 0.0000 -0.1440 -0.9896
vn 0.0000 0.9896 -0.1440
vn 0.0000 -0.9896 0.1440
vn 0.0000 0.1676 -0.9859
vn 0.0000 -0.1676 0.9859
vn 0.0000 0.9858 0.1676
vn 0.0000 -0.9859 -0.1676
vn 0.0000 0.1635 -0.9865
vn 0.0000 -0.1635 0.9865
vn 0.0000 0.9866 0.1635
vn 0.0000 -0.9866 -0.1635
vn 0.0000 -0.0062 1.0000
vn 0.0000 1.0000 0.0000
vn 0.0000 -1.0000 0.0000
vn 0.0000 0.3230 0.9464
vn 0.0000 0.2994 0.9541
vn 0.0053 0.3204 0.9473
vn -0.0036 0.2977 0.9546
vn 0.0000 -0.9428 0.3333
vn 0.0000 0.9705 -0.2411
vn -0.0053 0.3204 0.9473
vn 0.0200 0.2987 0.9541
vn 0.0036 0.2977 0.9546
vn -0.0200 0.2987 0.9541
vn 0.0000 0.9694 -0.2455
vn 0.0000 0.9598 -0.2808
vn 0.0000 0.9649 -0.2627
vn 0.0000 0.2050 0.9788
vn 0.0000 0.1686 0.9857
vn 0.0000 0.1599 0.9871
vn 0.0000 -0.0062 -1.0000
vn 0.0000 0.3230 -0.9464
vn 0.0000 0.2994 -0.9541
vn 0.0053 0.3204 -0.9473
vn -0.0036 0.2977 -0.9546
vn 0.0000 -0.9428 -0.3333
vn 0.0000 0.9705 0.2411
vn -0.0053 0.3204 -0.9473
vn 0.0200 0.2987 -0.9541
vn 0.0036 0.2977 -0.9546
vn -0.0200 0.2987 -0.9541
vn 0.0000 0.9694 0.2455
vn 0.0000 0.9598 0.2808
vn 0.0000 0.9649 0.2627
vn 0.0000 0.2050 -0.9788
vn 0.0000 0.1686 -0.9857
vn 0.0000 0.1599 -0.9871
usemtl konobi
s off
f 65/1/1 66/2/1 68/3/1 67/4/1
f 70/5/2 69/6/2 72/7/2 71/8/2
f 68/3/3 72/7/3 69/6/3 67/4/3
f 65/1/4 70/5/4 71/8/4 66/2/4
f 66/2/5 71/8/5 72/7/5 68/3/5
f 67/4/6 69/6/6 70/5/6 65/1/6
f 73/9/7 74/10/7 76/11/7 75/12/7
f 78/13/8 77/14/8 80/15/8 79/16/8
f 76/11/9 80/15/9 77/14/9 75/12/9
f 73/9/10 78/13/10 79/16/10 74/10/10
f 74/10/11 79/16/11 80/15/11 76/11/11
f 75/12/12 77/14/12 78/13/12 73/9/12
f 81/17/13 82/18/13 84/19/13 83/20/13
f 86/21/14 85/22/14 88/23/14 87/24/14
f 84/19/15 88/23/15 85/22/15 83/20/15
f 81/17/16 86/21/16 87/24/16 82/18/16
f 82/18/11 87/24/11 88/23/11 84/19/11
f 83/20/12 85/22/12 86/21/12 81/17/12
f 89/25/17 91/26/17 92/27/17 90/28/17
f 94/29/18 95/30/18 96/31/18 93/32/18
f 92/27/19 91/26/19 93/32/19 96/31/19
f 89/25/20 90/28/20 95/30/20 94/29/20
f 90/28/11 92/27/11 96/31/11 95/30/11
f 91/26/12 89/25/12 94/29/12 93/32/12
f 97/33/21 99/34/21 100/35/21 98/36/21
f 102/37/22 103/38/22 104/39/22 101/40/22
f 100/35/23 99/34/23 101/40/23 104/39/23
f 97/33/24 98/36/24 103/38/24 102/37/24
f 98/36/11 100/35/11 104/39/11 103/38/11
f 99/34/12 97/33/12 102/37/12 101/40/12
usemtl library_shelf_1
f 40/41/11 49/42/11 17/43/11 8/44/11
f 9/45/12 41/46/12 48/47/12 16/48/12
f 1/49/25 2/50/25 8/51/25 7/52/25
f 22/53/12 6/54/12 14/55/12 26/56/12
f 41/57/26 9/58/26 10/59/26 42/60/26
f 33/61/27 34/62/27 2/63/27 1/64/27
f 16/48/12 48/47/12 47/65/12 15/66/12
f 15/66/12 47/65/12 39/67/12 7/68/12
f 4/69/28 3/70/28 7/52/28 8/51/28
f 5/71/29 6/72/29 10/73/29 9/74/29
f 20/75/30 5/71/30 9/74/30 16/76/30
f 21/77/31 4/69/31 8/51/31 17/78/31
f 6/79/32 5/80/32 13/81/32 14/82/32
f 19/83/11 3/84/11 11/85/11 23/86/11
f 3/87/33 4/88/33 12/89/33 11/90/33
f 5/91/11 20/92/11 24/93/11 13/94/11
f 20/92/11 19/83/11 23/86/11 24/93/11
f 6/72/34 22/95/34 18/96/34 10/73/34
f 22/95/35 21/77/35 17/78/35 18/96/35
f 3/70/36 19/97/36 15/98/36 7/52/36
f 19/97/37 20/75/37 16/76/37 15/98/37
f 49/42/11 50/99/11 18/100/11 17/43/11
f 50/99/11 42/101/11 10/102/11 18/100/11
f 4/103/12 21/104/12 25/105/12 12/106/12
f 21/104/12 22/53/12 26/56/12 25/105/12
f 34/107/11 40/41/11 8/44/11 2/108/11
f 11/90/38 12/89/38 28/109/38 27/110/38
f 13/94/11 24/93/11 30/111/11
f 14/55/12 32/112/12 26/56/12
f 32/113/39 30/114/39 24/115/39 26/116/39
f 23/117/40 25/118/40 31/119/40 29/120/40
f 23/86/11 29/121/11 24/93/11
f 23/86/11 11/85/11 27/122/11
f 12/106/12 25/105/12 28/123/12
f 26/56/12 31/124/12 25/105/12
f 13/125/41 30/126/41 32/127/41 14/128/41
f 31/129/42 26/130/42 24/131/42 29/132/42
f 27/133/43 28/134/43 25/135/43 23/136/43
f 33/61/44 39/137/44 40/138/44 34/62/44
f 54/139/12 58/140/12 46/141/12 38/142/12
f 36/143/45 40/138/45 39/137/45 35/144/45
f 37/145/46 41/146/46 42/147/46 38/148/46
f 52/149/47 48/150/47 41/146/47 37/145/47
f 53/151/48 49/152/48 40/138/48 36/143/48
f 38/153/49 46/154/49 45/155/49 37/156/49
f 51/157/11 55/158/11 43/159/11 35/160/11
f 35/161/50 43/162/50 44/163/50 36/164/50
f 37/165/11 45/166/11 56/167/11 52/168/11
f 52/168/11 56/167/11 55/158/11 51/157/11
f 38/148/51 42/147/51 50/169/51 54/170/51
f 54/170/52 50/169/52 49/152/52 53/151/52
f 35/144/53 39/137/53 47/171/53 51/172/53
f 51/172/54 47/171/54 48/150/54 52/149/54
f 36/173/12 44/174/12 57/175/12 53/176/12
f 53/176/12 57/175/12 58/140/12 54/139/12
f 43/162/55 59/177/55 60/178/55 44/163/55
f 45/166/11 62/179/11 56/167/11
f 46/141/12 58/140/12 64/180/12
f 64/181/56 58/182/56 56/183/56 62/184/56
f 55/185/57 61/186/57 63/187/57 57/188/57
f 55/158/11 56/167/11 61/189/11
f 55/158/11 59/190/11 43/159/11
f 44/174/12 60/191/12 57/175/12
f 58/140/12 57/175/12 63/192/12
f 45/193/58 46/194/58 64/195/58 62/196/58
f 63/197/59 61/198/59 56/199/59 58/200/59
f 59/201/60 55/202/60 57/203/60 60/204/60
f 7/68/12 39/67/12 33/205/12 1/206/12
