# Blender v2.77 (sub 0) OBJ File: 'hor1.blend'
# www.blender.org
mtllib hor1 room2.mtl
o Plane
v -1.000000 0.000000 1.175000
v -1.000000 0.000000 -1.875000
v -1.000000 0.000000 -4.925000
v -6.000000 0.000000 1.175000
v -6.000000 0.000000 -1.875000
v -6.000000 0.000000 -4.925000
v -1.000000 0.000000 -6.925000
v -6.000000 0.000000 -6.925000
v -6.000000 0.000000 -4.875000
v -6.000000 0.000000 -1.825000
v -1.000000 0.000000 -1.825000
v -1.000000 0.000000 -4.875000
v -0.950000 0.000000 -1.325000
v -6.000000 0.000000 -1.325000
v -1.000000 0.000000 -1.325000
v -0.950000 0.000000 -4.375000
v -6.000000 0.000000 -4.375000
v -1.000000 0.000000 -4.375000
v -0.950000 0.000000 -5.925000
v -6.000000 0.000000 -5.925000
v -1.000000 0.000000 -5.925000
v -0.950000 0.000000 -3.474999
v -6.000000 0.000000 -3.474999
v -1.000000 0.000000 -3.474999
v -0.950000 0.000000 -5.025000
v -6.000000 0.000000 -5.025000
v -1.000000 0.000000 -5.025000
v -0.950000 0.000000 -0.425000
v -6.000000 0.000000 -0.425000
v -1.000000 0.000000 -0.425000
v -0.950000 2.000000 -3.474999
v -0.950000 2.000000 -4.375000
v -0.950000 2.000000 -1.325000
v -0.950000 2.000000 -0.425000
v -0.950000 2.000000 -5.025000
v -0.950000 2.000000 -5.925000
v -6.000000 2.000000 -0.425000
v -6.000000 2.000000 1.175000
v -6.000000 2.000000 -3.474999
v -6.000000 2.000000 -1.875000
v -6.000000 2.000000 -5.025000
v -6.000000 2.000000 -4.925000
v -1.000000 2.000000 -4.875000
v -6.000000 2.000000 -4.875000
v -1.000000 2.000000 -1.875000
v -1.000000 2.000000 1.175000
v -6.000000 2.000000 -6.925000
v -1.000000 2.000000 -6.925000
v -1.000000 2.000000 -4.925000
v -6.000000 2.000000 -1.825000
v -1.000000 2.000000 -1.825000
v -1.000000 2.000000 -0.425000
v -1.000000 2.000000 -3.474999
v -1.000000 2.000000 -5.025000
v -6.000000 2.000000 -1.325000
v -1.000000 2.000000 -1.325000
v -6.000000 2.000000 -4.375000
v -1.000000 2.000000 -4.375000
v -6.000000 2.000000 -5.925000
v -1.000000 2.000000 -5.925000
v -3.125000 0.000000 -4.875000
v -3.875000 0.000000 -4.875000
v -3.875000 0.000000 -1.875000
v -3.125000 0.000000 -1.875000
v -3.125000 0.000000 -4.375000
v -3.875000 0.000000 -4.375000
v -3.125000 0.000000 -3.474999
v -3.875000 0.000000 -3.474999
v -3.125000 2.000000 -4.875000
v -3.875000 2.000000 -4.875000
v -3.875000 2.000000 -1.875000
v -3.125000 2.000000 -1.875000
v -3.875000 0.000000 1.175000
v -3.125000 0.000000 1.175000
v -3.875000 0.000000 -1.825000
v -3.125000 0.000000 -1.825000
v -3.125000 0.000000 -1.325000
v -3.875000 0.000000 -1.325000
v -3.125000 0.000000 -0.425000
v -3.875000 0.000000 -0.425000
v -3.875000 2.000000 1.175000
v -3.125000 2.000000 1.175000
v -3.875000 2.000000 -1.825000
v -3.125000 2.000000 -1.825000
v -3.875000 0.000000 -6.925000
v -3.125000 0.000000 -6.925000
v -3.125000 0.000000 -4.925000
v -3.875000 0.000000 -4.925000
v -3.125000 0.000000 -5.925000
v -3.875000 0.000000 -5.925000
v -3.125000 0.000000 -5.025000
v -3.875000 0.000000 -5.025000
v -3.875000 2.000000 -6.925000
v -3.125000 2.000000 -6.925000
v -3.125000 2.000000 -4.925000
v -3.875000 2.000000 -4.925000
v -6.000000 2.500000 -0.425000
v -6.000000 2.500000 1.175000
v -6.000000 2.500000 -3.474999
v -6.000000 2.500000 -1.875000
v -6.000000 2.500000 -5.025000
v -6.000000 2.500000 -4.925000
v -1.000000 2.500000 -4.875000
v -6.000000 2.500000 -4.875000
v -1.000000 2.500000 -1.875000
v -1.000000 2.500000 1.175000
v -6.000000 2.500000 -6.925000
v -1.000000 2.500000 -6.925000
v -1.000000 2.500000 -4.925000
v -6.000000 2.500000 -1.825000
v -1.000000 2.500000 -1.825000
v -1.000000 2.500000 -0.425000
v -1.000000 2.500000 -3.474999
v -1.000000 2.500000 -5.025000
v -6.000000 2.500000 -1.325000
v -1.000000 2.500000 -1.325000
v -6.000000 2.500000 -4.375000
v -1.000000 2.500000 -4.375000
v -6.000000 2.500000 -5.925000
v -1.000000 2.500000 -5.925000
v -3.125000 2.500000 -4.875000
v -3.875000 2.500000 -4.875000
v -3.875000 2.500000 -1.875000
v -3.125000 2.500000 -1.875000
v -3.125000 2.500000 -4.375000
v -3.875000 2.500000 -4.375000
v -3.125000 2.500000 -3.474999
v -3.875000 2.500000 -3.474999
v -3.875000 2.500000 1.175000
v -3.125000 2.500000 1.175000
v -3.875000 2.500000 -1.825000
v -3.125000 2.500000 -1.825000
v -3.125000 2.500000 -1.325000
v -3.875000 2.500000 -1.325000
v -3.125000 2.500000 -0.425000
v -3.875000 2.500000 -0.425000
v -3.875000 2.500000 -6.925000
v -3.125000 2.500000 -6.925000
v -3.125000 2.500000 -4.925000
v -3.875000 2.500000 -4.925000
v -3.125000 2.500000 -5.925000
v -3.875000 2.500000 -5.925000
v -3.125000 2.500000 -5.025000
v -3.875000 2.500000 -5.025000
v -6.000000 2.750000 -0.425000
v -6.000000 2.750000 1.175000
v -6.000000 2.750000 -3.474999
v -6.000000 2.750000 -1.875000
v -3.875000 2.750000 -4.875000
v -6.000000 2.750000 -4.875000
v -3.125000 2.750000 -1.875000
v -1.000000 2.750000 -1.875000
v -3.125000 2.750000 1.175000
v -1.000000 2.750000 1.175000
v -3.125000 2.750000 -6.925000
v -1.000000 2.750000 -6.925000
v -3.125000 2.750000 -1.825000
v -1.000000 2.750000 -1.825000
v -1.000000 2.750000 -0.425000
v -1.000000 2.750000 -3.474999
v -6.000000 2.750000 -1.825000
v -6.000000 2.750000 -1.325000
v -1.000000 2.750000 -1.325000
v -3.875000 2.750000 -1.325000
v -6.000000 2.750000 -4.375000
v -1.000000 2.750000 -4.875000
v -1.000000 2.750000 -4.375000
v -3.875000 2.750000 -4.375000
v -6.000000 2.750000 -6.925000
v -6.000000 2.750000 -5.925000
v -1.000000 2.750000 -5.925000
v -3.875000 2.750000 -5.925000
v -3.875000 2.750000 -3.474999
v -1.000000 2.750000 -5.025000
v -3.875000 2.750000 -0.425000
v -3.125000 2.750000 -4.875000
v -3.875000 2.750000 -1.875000
v -3.125000 2.750000 -4.375000
v -3.125000 2.750000 -3.474999
v -3.875000 2.750000 1.175000
v -3.875000 2.750000 -1.825000
v -3.125000 2.750000 -1.325000
v -3.125000 2.750000 -0.425000
v -3.875000 2.750000 -6.925000
v -3.125000 2.750000 -5.925000
v -6.000000 2.750000 -5.025000
v -6.000000 2.750000 -4.925000
v -3.875000 2.750000 -4.925000
v -1.000000 2.750000 -4.925000
v -3.875000 2.750000 -5.025000
v -3.125000 2.750000 -4.925000
v -3.125000 2.750000 -5.025000
vt 0.6665 0.2924
vt 0.6665 0.2961
vt 0.6089 0.2961
vt 0.6089 0.2924
vt 0.7370 0.2542
vt 0.7370 0.2578
vt 0.6089 0.2578
vt 0.6089 0.2542
vt 0.8010 0.0173
vt 0.8010 0.1644
vt 0.7690 0.1644
vt 0.7690 0.0173
vt 0.3307 0.7279
vt 0.3344 0.7279
vt 0.3344 0.8559
vt 0.3307 0.8559
vt 0.7753 0.3118
vt 0.7716 0.3118
vt 0.7716 0.2542
vt 0.7753 0.2542
vt 0.2196 0.7599
vt 0.0725 0.7599
vt 0.0725 0.7279
vt 0.2196 0.7279
vt 0.9291 0.5321
vt 0.7820 0.5321
vt 0.7820 0.4745
vt 0.9291 0.4745
vt 0.2014 0.6933
vt 0.2014 0.5462
vt 0.3374 0.5462
vt 0.3374 0.6933
vt 0.2961 0.8559
vt 0.2924 0.8559
vt 0.2924 0.7279
vt 0.2961 0.7279
vt 0.5081 0.3721
vt 0.5081 0.5191
vt 0.3721 0.5191
vt 0.3721 0.3721
vt 0.8356 0.1934
vt 0.8356 0.0653
vt 0.9092 0.0653
vt 0.9092 0.1934
vt 0.1534 0.2542
vt 0.1534 0.4013
vt 0.0173 0.4013
vt 0.0173 0.2542
vt 0.1534 0.0173
vt 0.1534 0.1644
vt 0.0173 0.1644
vt 0.0173 0.0173
vt 0.9029 0.9092
vt 0.7748 0.9092
vt 0.7748 0.8356
vt 0.9029 0.8356
vt 0.5743 0.1534
vt 0.4272 0.1534
vt 0.4272 0.0173
vt 0.5743 0.0173
vt 0.2196 0.9200
vt 0.0725 0.9200
vt 0.0725 0.8175
vt 0.2196 0.8175
vt 0.9291 0.5641
vt 0.7820 0.5641
vt 0.7114 0.0173
vt 0.7114 0.1644
vt 0.6089 0.1644
vt 0.6089 0.0173
vt 0.5561 0.8112
vt 0.5561 0.6641
vt 0.6922 0.6641
vt 0.6922 0.8112
vt 0.9189 0.5987
vt 0.9189 0.7458
vt 0.8164 0.7458
vt 0.8164 0.5987
vt 0.7588 0.5987
vt 0.7588 0.7458
vt 0.7268 0.7458
vt 0.7268 0.5987
vt 0.7820 0.3721
vt 0.9291 0.3721
vt 0.9029 0.9827
vt 0.7748 0.9827
vt 0.7748 0.9753
vt 0.9029 0.9753
vt 0.9753 0.1934
vt 0.9753 0.0653
vt 0.9827 0.0653
vt 0.9827 0.1934
vt 0.2542 0.7279
vt 0.2578 0.7279
vt 0.2578 0.8559
vt 0.2542 0.8559
vt 0.9535 0.7614
vt 0.9572 0.7614
vt 0.9572 0.8895
vt 0.9535 0.8895
vt 0.8135 0.3118
vt 0.8099 0.3118
vt 0.8099 0.2542
vt 0.8135 0.2542
vt 0.9535 0.5987
vt 0.9572 0.5987
vt 0.9572 0.7268
vt 0.9535 0.7268
vt 0.5743 0.3374
vt 0.4272 0.3374
vt 0.4272 0.2014
vt 0.5743 0.2014
vt 0.3374 0.2542
vt 0.3374 0.4013
vt 0.2014 0.4013
vt 0.2014 0.2542
vt 0.3721 0.8112
vt 0.3721 0.6641
vt 0.5081 0.6641
vt 0.5081 0.8112
vt 0.3374 0.0173
vt 0.3374 0.1644
vt 0.2014 0.1644
vt 0.2014 0.0173
vt 0.6922 0.3721
vt 0.6922 0.5191
vt 0.5561 0.5191
vt 0.5561 0.3721
vt 0.0173 0.6933
vt 0.0173 0.5462
vt 0.1534 0.5462
vt 0.1534 0.6933
vt 0.3374 0.2012
vt 0.2014 0.2012
vt 0.2014 0.4380
vt 0.1534 0.4380
vt 0.7452 0.5321
vt 0.7452 0.4745
vt 0.6922 0.5559
vt 0.5561 0.5559
vt 0.3374 0.4380
vt 0.5081 0.5559
vt 0.0173 0.5094
vt 0.1534 0.5094
vt 0.3721 0.5559
vt 0.7428 0.9092
vt 0.7428 0.8356
vt 0.5561 0.6273
vt 0.6922 0.6273
vt 0.2014 0.5094
vt 0.8356 0.0333
vt 0.9092 0.0333
vt 0.3904 0.1534
vt 0.3904 0.0173
vt 0.3374 0.5094
vt 0.0173 0.4380
vt 0.7588 0.7826
vt 0.7268 0.7826
vt 0.9753 0.0333
vt 0.9827 0.0333
vt 0.1534 0.2012
vt 0.7452 0.5641
vt 0.0357 0.8175
vt 0.0357 0.7599
vt 0.7452 0.3721
vt 0.0173 0.2012
vt 0.7690 0.2012
vt 0.7114 0.2012
vt 0.6089 0.2012
vt 0.5081 0.6273
vt 0.0357 0.7279
vt 0.3721 0.6273
vt 0.8010 0.2012
vt 0.7428 0.9753
vt 0.7428 0.9827
vt 0.9189 0.7826
vt 0.8164 0.7826
vt 0.3904 0.2014
vt 0.0357 0.9200
vt 0.3904 0.3374
vt 0.3374 0.4564
vt 0.2014 0.4564
vt 0.0173 0.4910
vt 0.1534 0.4910
vt 0.7268 0.9092
vt 0.7268 0.8356
vt 0.5561 0.6089
vt 0.6922 0.6089
vt 0.8356 0.0173
vt 0.9092 0.0173
vt 0.3721 0.1534
vt 0.3721 0.0173
vt 0.2014 0.4910
vt 0.3374 0.4910
vt 0.1534 0.4564
vt 0.0173 0.4564
vt 0.8481 0.3022
vt 0.8481 0.2542
vt 0.8555 0.2542
vt 0.8555 0.3022
vt 0.7588 0.8010
vt 0.7268 0.8010
vt 0.7268 0.5321
vt 0.7268 0.4745
vt 0.3374 0.2196
vt 0.2014 0.2196
vt 0.8164 0.8010
vt 0.3721 0.3374
vt 0.3721 0.2014
vt 0.0173 0.9200
vt 0.0173 0.8175
vt 0.9189 0.8010
vt 0.9753 0.0173
vt 0.7268 0.9753
vt 0.8010 0.2196
vt 0.7690 0.2196
vt 0.3721 0.6089
vt 0.5081 0.6089
vt 0.0173 0.7599
vt 0.0173 0.7279
vt 0.7114 0.2196
vt 0.6089 0.2196
vt 0.1534 0.2196
vt 0.0173 0.2196
vt 0.7268 0.3721
vt 0.7268 0.5641
vt 0.9827 0.0173
vt 0.7268 0.9827
vt 0.6922 0.5743
vt 0.5561 0.5743
vt 0.5081 0.5743
vt 0.3721 0.5743
vt 0.3038 0.5547
vt 0.3626 0.5547
vt 0.3626 0.9504
vt 0.3038 0.9504
vt 0.6763 0.5547
vt 0.7351 0.5547
vt 0.7351 0.9504
vt 0.6763 0.9504
vt 0.8725 0.5547
vt 0.9901 0.5547
vt 0.9901 0.9504
vt 0.8725 0.9504
vt 0.5705 0.5547
vt 0.5705 0.9504
vt 0.1980 0.5547
vt 0.1980 0.9504
vt 0.7667 0.5547
vt 0.7667 0.9504
vt 0.0099 0.5547
vt 0.0099 0.9504
vt 0.7550 0.5547
vt 0.7550 0.9504
vt 0.3824 0.5547
vt 0.3824 0.9504
vt 0.6763 0.0099
vt 0.6763 0.0192
vt 0.5705 0.0192
vt 0.5705 0.0099
vt 0.3038 0.0099
vt 0.3038 0.0192
vt 0.1980 0.0192
vt 0.1980 0.0099
vt 0.8725 0.0099
vt 0.8725 0.0192
vt 0.7667 0.0192
vt 0.7667 0.0099
vt 0.0099 0.0192
vt 0.1980 0.4150
vt 0.0099 0.4150
vt 0.3038 0.4150
vt 0.3626 0.0192
vt 0.3626 0.4150
vt 0.3824 0.0192
vt 0.5705 0.4150
vt 0.3824 0.4150
vt 0.6763 0.4150
vt 0.7351 0.0192
vt 0.7351 0.4150
vt 0.7550 0.0192
vt 0.7667 0.4150
vt 0.7550 0.4150
vt 0.8725 0.4150
vt 0.9901 0.0192
vt 0.9901 0.4150
vt 0.9573 0.8684
vt 0.9573 0.7535
vt 0.9842 0.7535
vt 0.9842 0.8684
vt 0.8672 0.7995
vt 0.8672 0.9833
vt 0.8404 0.9833
vt 0.8404 0.7995
vt 0.8988 0.7535
vt 0.8988 0.6386
vt 0.9257 0.6386
vt 0.9257 0.7535
vt 0.7819 0.9833
vt 0.7819 0.7995
vt 0.8087 0.7995
vt 0.8087 0.9833
vt 0.9573 0.6501
vt 0.9842 0.6501
vt 0.8624 0.6070
vt 0.7819 0.6070
vt 0.7819 0.4231
vt 0.8624 0.4231
vt 0.7819 0.3197
vt 0.8624 0.3197
vt 0.8988 0.8569
vt 0.9257 0.8569
vt 0.7819 0.2622
vt 0.8624 0.2622
vt 0.6160 0.8828
vt 0.5355 0.8828
vt 0.5355 0.6989
vt 0.6160 0.6989
vt 0.5355 0.5955
vt 0.6160 0.5955
vt 0.5355 0.5381
vt 0.6160 0.5381
vt 0.9573 0.6386
vt 0.9842 0.6386
vt 0.6476 0.5381
vt 0.7282 0.5381
vt 0.7282 0.6415
vt 0.6476 0.6415
vt 0.9525 0.6070
vt 0.9525 0.5495
vt 0.9794 0.5495
vt 0.9794 0.6070
vt 0.7282 0.7564
vt 0.6476 0.7564
vt 0.5038 0.4497
vt 0.2756 0.4497
vt 0.2756 0.3922
vt 0.5038 0.3922
vt 0.5038 0.0733
vt 0.2756 0.0733
vt 0.2756 0.0158
vt 0.5038 0.0158
vt 0.6428 0.5064
vt 0.6428 0.2622
vt 0.7502 0.2622
vt 0.7502 0.5064
vt 0.5038 0.1767
vt 0.2756 0.1767
vt 0.5038 0.5531
vt 0.2756 0.5531
vt 0.5462 0.5064
vt 0.5462 0.2622
vt 0.5038 0.7369
vt 0.2756 0.7369
vt 0.5038 0.3606
vt 0.2756 0.3606
vt 0.0158 0.0158
vt 0.2440 0.0158
vt 0.2440 0.1997
vt 0.0158 0.1997
vt 0.2440 0.3031
vt 0.0158 0.3031
vt 0.2440 0.3606
vt 0.0158 0.3606
vt 0.2440 0.7369
vt 0.0158 0.7369
vt 0.0158 0.5531
vt 0.2440 0.5531
vt 0.0158 0.4497
vt 0.2440 0.4497
vt 0.0158 0.3922
vt 0.2440 0.3922
vt 0.5355 0.0266
vt 0.7797 0.0266
vt 0.7797 0.1232
vt 0.5355 0.1232
vt 0.7797 0.2306
vt 0.5355 0.2306
vt 0.7819 0.6961
vt 0.8087 0.6961
vt 0.8672 0.6961
vt 0.8404 0.6961
vt 0.7819 0.6386
vt 0.8087 0.6386
vt 0.8672 0.6386
vt 0.8404 0.6386
vt 0.8940 0.6070
vt 0.8940 0.4231
vt 0.9209 0.4231
vt 0.9209 0.6070
vt 0.9525 0.4461
vt 0.9525 0.2622
vt 0.9794 0.2622
vt 0.9794 0.4461
vt 0.8940 0.3197
vt 0.9209 0.3197
vt 0.8940 0.2622
vt 0.9209 0.2622
vt 0.5355 0.5064
vt 0.5355 0.2622
vt 0.5355 0.0158
vt 0.7797 0.0158
vt 0.8988 0.8684
vt 0.9257 0.8684
vn 0.0000 -1.0000 0.0000
vn 0.0000 0.0000 -1.0000
vn 1.0000 0.0000 0.0000
vn 0.0000 0.0000 1.0000
vn -1.0000 0.0000 0.0000
vn 0.0000 1.0000 0.0000
usemtl Material.008
s off
f 31/1/1 53/2/1 58/3/1 32/4/1
f 22/5/2 24/6/2 53/7/2 31/8/2
f 10/9/3 50/10/3 55/11/3 14/12/3
f 33/13/4 56/14/4 15/15/4 13/16/4
f 34/17/1 52/18/1 56/19/1 33/20/1
f 15/21/5 56/22/5 51/23/5 11/24/5
f 17/25/3 57/26/3 39/27/3 23/28/3
f 85/29/4 93/30/4 47/31/4 8/32/4
f 28/33/2 30/34/2 52/35/2 34/36/2
f 87/37/2 95/38/2 49/39/2 3/40/2
f 8/41/3 47/42/3 59/43/3 20/44/3
f 62/45/4 70/46/4 44/47/4 9/48/4
f 75/49/4 83/50/4 50/51/4 10/52/4
f 21/53/5 60/54/5 48/55/5 7/56/5
f 64/57/2 72/58/2 45/59/2 2/60/2
f 1/61/5 46/62/5 52/63/5 30/64/5
f 9/65/3 44/66/3 57/26/3 17/25/3
f 29/67/3 37/68/3 38/69/3 4/70/3
f 74/71/2 82/72/2 46/73/2 1/74/2
f 2/75/5 45/76/5 53/77/5 24/78/5
f 18/79/5 58/80/5 43/81/5 12/82/5
f 23/28/3 39/27/3 40/83/3 5/84/3
f 14/12/3 55/11/3 37/68/3 29/67/3
f 3/85/5 49/86/5 54/87/5 27/88/5
f 26/89/3 41/90/3 42/91/3 6/92/3
f 20/44/3 59/43/3 41/90/3 26/89/3
f 32/93/4 58/94/4 18/95/4 16/96/4
f 25/97/2 27/98/2 54/99/2 35/100/2
f 35/101/1 54/102/1 60/103/1 36/104/1
f 36/105/4 60/106/4 21/107/4 19/108/4
f 5/109/2 40/110/2 71/111/2 63/112/2
f 63/112/2 71/111/2 72/58/2 64/57/2
f 12/113/4 43/114/4 69/115/4 61/116/4
f 61/116/4 69/115/4 70/46/4 62/45/4
f 4/117/2 38/118/2 81/119/2 73/120/2
f 73/120/2 81/119/2 82/72/2 74/71/2
f 11/121/4 51/122/4 84/123/4 76/124/4
f 76/124/4 84/123/4 83/50/4 75/49/4
f 6/125/2 42/126/2 96/127/2 88/128/2
f 88/128/2 96/127/2 95/38/2 87/37/2
f 7/129/4 48/130/4 94/131/4 86/132/4
f 86/132/4 94/131/4 93/30/4 85/29/4
f 84/123/4 51/122/4 111/133/4 132/134/4
f 70/46/4 69/115/4 121/135/4 122/136/4
f 39/27/3 57/26/3 117/137/3 99/138/3
f 96/127/2 42/126/2 102/139/2 140/140/2
f 69/115/4 43/114/4 103/141/4 121/135/4
f 95/38/2 96/127/2 140/140/2 139/142/2
f 94/131/4 48/130/4 108/143/4 138/144/4
f 49/39/2 95/38/2 139/142/2 109/145/2
f 48/55/5 60/54/5 120/146/5 108/147/5
f 46/73/2 82/72/2 130/148/2 106/149/2
f 93/30/4 94/131/4 138/144/4 137/150/4
f 59/43/3 47/42/3 107/151/3 119/152/3
f 45/59/2 72/58/2 124/153/2 105/154/2
f 47/31/4 93/30/4 137/150/4 107/155/4
f 44/47/4 70/46/4 122/136/4 104/156/4
f 43/81/5 58/80/5 118/157/5 103/158/5
f 42/91/3 41/90/3 101/159/3 102/160/3
f 83/50/4 84/123/4 132/134/4 131/161/4
f 57/26/3 44/66/3 104/162/3 117/137/3
f 56/22/5 52/63/5 112/163/5 116/164/5
f 40/83/3 39/27/3 99/138/3 100/165/3
f 50/51/4 83/50/4 131/161/4 110/166/4
f 37/68/3 55/11/3 115/167/3 97/168/3
f 38/69/3 37/68/3 97/168/3 98/169/3
f 82/72/2 81/119/2 129/170/2 130/148/2
f 51/23/5 56/22/5 116/164/5 111/171/5
f 81/119/2 38/118/2 98/172/2 129/170/2
f 55/11/3 50/10/3 110/173/3 115/167/3
f 60/54/5 54/87/5 114/174/5 120/146/5
f 54/87/5 49/86/5 109/175/5 114/174/5
f 41/90/3 59/43/3 119/152/3 101/159/3
f 53/77/5 45/76/5 105/176/5 113/177/5
f 72/58/2 71/111/2 123/178/2 124/153/2
f 52/63/5 46/62/5 106/179/5 112/163/5
f 71/111/2 40/110/2 100/180/2 123/178/2
f 58/80/5 53/77/5 113/177/5 118/157/5
f 121/135/4 103/141/4 166/181/4 176/182/4
f 138/144/4 108/143/4 156/183/4 155/184/4
f 108/147/5 120/146/5 171/185/5 156/186/5
f 106/149/2 130/148/2 153/187/2 154/188/2
f 119/152/3 107/151/3 169/189/3 170/190/3
f 105/154/2 124/153/2 151/191/2 152/192/2
f 107/155/4 137/150/4 184/193/4 169/194/4
f 104/156/4 122/136/4 149/195/4 150/196/4
f 139/197/1 140/198/1 144/199/1 143/200/1
f 103/158/5 118/157/5 167/201/5 166/202/5
f 99/138/3 117/137/3 165/203/3 147/204/3
f 132/134/4 111/133/4 158/205/4 157/206/4
f 118/157/5 113/177/5 160/207/5 167/201/5
f 123/178/2 100/180/2 148/208/2 177/209/2
f 112/163/5 106/179/5 154/210/5 159/211/5
f 113/177/5 105/176/5 152/212/5 160/207/5
f 101/159/3 119/152/3 170/190/3 186/213/3
f 120/146/5 114/174/5 174/214/5 171/185/5
f 115/167/3 110/173/3 161/215/3 162/216/3
f 129/170/2 98/172/2 146/217/2 180/218/2
f 111/171/5 116/164/5 163/219/5 158/220/5
f 98/169/3 97/168/3 145/221/3 146/222/3
f 97/168/3 115/167/3 162/216/3 145/221/3
f 110/166/4 131/161/4 181/223/4 161/224/4
f 100/165/3 99/138/3 147/204/3 148/225/3
f 116/164/5 112/163/5 159/211/5 163/219/5
f 117/137/3 104/162/3 150/226/3 165/203/3
f 102/160/3 101/159/3 186/213/3 187/227/3
f 114/174/5 109/175/5 189/228/5 174/214/5
f 140/140/2 102/139/2 187/229/2 188/230/2
f 109/145/2 139/142/2 191/231/2 189/232/2
usemtl Material.009
f 66/233/6 62/234/6 9/235/6 17/236/6
f 78/237/6 75/238/6 10/239/6 14/240/6
f 90/241/6 85/242/6 8/243/6 20/244/6
f 80/245/6 78/237/6 14/240/6 29/246/6
f 68/247/6 66/233/6 17/236/6 23/248/6
f 92/249/6 90/241/6 20/244/6 26/250/6
f 63/251/6 68/247/6 23/248/6 5/252/6
f 88/253/6 92/249/6 26/250/6 6/254/6
f 73/255/6 80/245/6 29/246/6 4/256/6
f 13/257/6 15/258/6 30/259/6 28/260/6
f 16/261/6 18/262/6 24/263/6 22/264/6
f 19/265/6 21/266/6 27/267/6 25/268/6
f 2/269/6 24/263/6 67/270/6 64/271/6
f 64/271/6 67/270/6 68/247/6 63/251/6
f 24/263/6 18/262/6 65/272/6 67/270/6
f 67/270/6 65/272/6 66/233/6 68/247/6
f 18/262/6 12/273/6 61/274/6 65/272/6
f 65/272/6 61/274/6 62/234/6 66/233/6
f 1/275/6 30/259/6 79/276/6 74/277/6
f 74/277/6 79/276/6 80/245/6 73/255/6
f 30/259/6 15/258/6 77/278/6 79/276/6
f 79/276/6 77/278/6 78/237/6 80/245/6
f 15/258/6 11/279/6 76/280/6 77/278/6
f 77/278/6 76/280/6 75/238/6 78/237/6
f 3/281/6 27/267/6 91/282/6 87/283/6
f 87/283/6 91/282/6 92/249/6 88/253/6
f 27/267/6 21/266/6 89/284/6 91/282/6
f 91/282/6 89/284/6 90/241/6 92/249/6
f 21/266/6 7/285/6 86/286/6 89/284/6
f 89/284/6 86/286/6 85/242/6 90/241/6
usemtl Material.007
f 137/287/5 142/288/5 172/289/5 184/290/5
f 128/291/5 123/292/5 177/293/5 173/294/5
f 141/295/3 138/296/3 155/297/3 185/298/3
f 124/299/3 127/300/3 179/301/3 151/302/3
f 142/288/5 144/303/5 190/304/5 172/289/5
f 124/305/1 123/306/1 128/307/1 127/308/1
f 127/308/1 128/307/1 126/309/1 125/310/1
f 143/311/3 141/295/3 185/298/3 192/312/3
f 125/310/1 126/309/1 122/313/1 121/314/1
f 130/315/1 129/316/1 136/317/1 135/318/1
f 135/318/1 136/317/1 134/319/1 133/320/1
f 133/320/1 134/319/1 131/321/1 132/322/1
f 144/303/5 140/323/5 188/324/5 190/304/5
f 143/325/1 144/326/1 142/327/1 141/328/1
f 131/329/5 134/330/5 164/331/5 181/332/5
f 141/328/1 142/327/1 137/333/1 138/334/1
f 168/335/1 165/336/1 150/337/1 149/338/1
f 164/339/1 162/340/1 161/341/1 181/342/1
f 172/343/1 170/344/1 169/345/1 184/346/1
f 175/347/1 145/348/1 162/340/1 164/339/1
f 173/349/1 147/350/1 165/336/1 168/335/1
f 190/351/1 186/352/1 170/344/1 172/343/1
f 177/353/1 148/354/1 147/350/1 173/349/1
f 180/355/1 146/356/1 145/348/1 175/347/1
f 152/357/1 151/358/1 179/359/1 160/360/1
f 160/360/1 179/359/1 178/361/1 167/362/1
f 167/362/1 178/361/1 176/363/1 166/364/1
f 154/365/1 153/366/1 183/367/1 159/368/1
f 159/368/1 183/367/1 182/369/1 163/370/1
f 163/370/1 182/369/1 157/371/1 158/372/1
f 174/373/1 192/374/1 185/375/1 171/376/1
f 171/376/1 185/375/1 155/377/1 156/378/1
f 127/300/3 125/379/3 178/380/3 179/301/3
f 126/381/5 128/291/5 173/294/5 168/382/5
f 125/379/3 121/383/3 176/384/3 178/380/3
f 122/385/5 126/381/5 168/382/5 149/386/5
f 130/387/3 135/388/3 183/389/3 153/390/3
f 136/391/5 129/392/5 180/393/5 175/394/5
f 135/388/3 133/395/3 182/396/3 183/389/3
f 134/330/5 136/391/5 175/394/5 164/331/5
f 133/395/3 132/397/3 157/398/3 182/396/3
f 188/399/1 187/400/1 186/352/1 190/351/1
f 189/401/1 191/402/1 192/374/1 174/373/1
f 139/403/3 143/311/3 192/312/3 191/404/3
