# Blender v2.77 (sub 0) OBJ File: 'hor1.blend'
# www.blender.org
mtllib hor1_table2b2.mtl
o Plane.001_Plane.013
v -3.390216 0.650000 -2.071466
v -3.392097 0.648119 -2.070687
v -3.391546 0.649449 -2.070915
v -3.369421 0.650000 -2.050672
v -3.370201 0.648119 -2.048791
v -3.369972 0.649449 -2.049342
v -1.614772 0.650000 -2.050672
v -1.613993 0.648119 -2.048791
v -1.614221 0.649449 -2.049342
v -1.593978 0.650000 -2.071466
v -1.592097 0.648119 -2.070687
v -1.592648 0.649449 -2.070915
v -3.369421 0.650000 -2.946910
v -3.370201 0.648119 -2.948791
v -3.369972 0.649449 -2.948240
v -3.390216 0.650000 -2.926115
v -3.392097 0.648119 -2.926894
v -3.391546 0.649449 -2.926666
v -1.593978 0.650000 -2.926115
v -1.592097 0.648119 -2.926894
v -1.592648 0.649449 -2.926666
v -1.614772 0.650000 -2.946910
v -1.613993 0.648119 -2.948791
v -1.614221 0.649449 -2.948240
v -3.369421 0.600000 -2.050672
v -3.370201 0.601881 -2.048791
v -3.369972 0.600551 -2.049342
v -3.390216 0.600000 -2.071466
v -3.392097 0.601881 -2.070687
v -3.391546 0.600551 -2.070915
v -1.593978 0.600000 -2.071466
v -1.592097 0.601881 -2.070687
v -1.592648 0.600551 -2.070915
v -1.614772 0.600000 -2.050672
v -1.613993 0.601881 -2.048791
v -1.614221 0.600551 -2.049342
v -3.390216 0.600000 -2.926115
v -3.392097 0.601881 -2.926894
v -3.391546 0.600551 -2.926666
v -3.369421 0.600000 -2.946910
v -3.370201 0.601881 -2.948791
v -3.369972 0.600551 -2.948240
v -1.614772 0.600000 -2.946910
v -1.613993 0.601881 -2.948791
v -1.614221 0.600551 -2.948240
v -1.593978 0.600000 -2.926115
v -1.592097 0.601881 -2.926894
v -1.592648 0.600551 -2.926666
v -3.310963 0.600000 -2.905690
v -3.313302 0.600000 -2.908029
v -3.311648 0.600000 -2.907344
v -3.348996 0.600000 -2.908029
v -3.351335 0.600000 -2.905690
v -3.350650 0.600000 -2.907344
v -3.313302 0.600000 -2.867657
v -3.310963 0.600000 -2.869995
v -3.311648 0.600000 -2.868342
v -3.351335 0.600000 -2.869995
v -3.348996 0.600000 -2.867657
v -3.350650 0.600000 -2.868342
v -3.313302 0.000000 -2.908029
v -3.310963 0.000000 -2.905690
v -3.311648 0.000000 -2.907344
v -3.351335 0.000000 -2.905690
v -3.348996 0.000000 -2.908029
v -3.350650 0.000000 -2.907344
v -3.310963 0.000000 -2.869995
v -3.313302 0.000000 -2.867657
v -3.311648 0.000000 -2.868342
v -3.348996 0.000000 -2.867657
v -3.351335 0.000000 -2.869995
v -3.350650 0.000000 -2.868342
v -1.670892 0.600000 -2.908029
v -1.673231 0.600000 -2.905690
v -1.672546 0.600000 -2.907344
v -1.632859 0.600000 -2.905690
v -1.635198 0.600000 -2.908029
v -1.633544 0.600000 -2.907344
v -1.673231 0.600000 -2.869995
v -1.670892 0.600000 -2.867657
v -1.672546 0.600000 -2.868342
v -1.635198 0.600000 -2.867657
v -1.632859 0.600000 -2.869995
v -1.633544 0.600000 -2.868342
v -1.673231 0.000000 -2.905690
v -1.670892 0.000000 -2.908029
v -1.672546 0.000000 -2.907344
v -1.635198 0.000000 -2.908029
v -1.632859 0.000000 -2.905690
v -1.633544 0.000000 -2.907344
v -1.670892 0.000000 -2.867657
v -1.673231 0.000000 -2.869995
v -1.672546 0.000000 -2.868342
v -1.632859 0.000000 -2.869995
v -1.635198 0.000000 -2.867657
v -1.633544 0.000000 -2.868342
v -3.313302 0.600000 -2.089553
v -3.310963 0.600000 -2.091892
v -3.311648 0.600000 -2.090238
v -3.351335 0.600000 -2.091892
v -3.348996 0.600000 -2.089553
v -3.350650 0.600000 -2.090238
v -3.310963 0.600000 -2.127586
v -3.313302 0.600000 -2.129925
v -3.311648 0.600000 -2.129240
v -3.348996 0.600000 -2.129925
v -3.351335 0.600000 -2.127586
v -3.350650 0.600000 -2.129240
v -3.310963 0.000000 -2.091892
v -3.313302 0.000000 -2.089553
v -3.311648 0.000000 -2.090238
v -3.348996 0.000000 -2.089553
v -3.351335 0.000000 -2.091892
v -3.350650 0.000000 -2.090238
v -3.313302 0.000000 -2.129925
v -3.310963 0.000000 -2.127586
v -3.311648 0.000000 -2.129240
v -3.351335 0.000000 -2.127586
v -3.348996 0.000000 -2.129925
v -3.350650 0.000000 -2.129240
v -1.673231 0.600000 -2.091892
v -1.670892 0.600000 -2.089553
v -1.672546 0.600000 -2.090238
v -1.635198 0.600000 -2.089553
v -1.632859 0.600000 -2.091892
v -1.633544 0.600000 -2.090238
v -1.670892 0.600000 -2.129925
v -1.673231 0.600000 -2.127586
v -1.672546 0.600000 -2.129240
v -1.632859 0.600000 -2.127586
v -1.635198 0.600000 -2.129925
v -1.633544 0.600000 -2.129240
v -1.670892 0.000000 -2.089553
v -1.673231 0.000000 -2.091892
v -1.672546 0.000000 -2.090238
v -1.632859 0.000000 -2.091892
v -1.635198 0.000000 -2.089553
v -1.633544 0.000000 -2.090238
v -1.673231 0.000000 -2.127586
v -1.670892 0.000000 -2.129925
v -1.672546 0.000000 -2.129240
v -1.635198 0.000000 -2.129925
v -1.632859 0.000000 -2.127586
v -1.633544 0.000000 -2.129240
vt 0.5971 0.8976
vt 0.5971 0.8776
vt 0.6118 0.8776
vt 0.6118 0.8976
vt 0.9031 0.0073
vt 0.9140 0.0073
vt 0.9140 0.2923
vt 0.9031 0.2923
vt 0.8145 0.7846
vt 0.8145 0.7627
vt 0.8279 0.7627
vt 0.8279 0.7846
vt 0.8153 0.0073
vt 0.8353 0.0073
vt 0.8353 0.0220
vt 0.8153 0.0220
vt 0.8909 0.3069
vt 0.9109 0.3069
vt 0.9109 0.3216
vt 0.8909 0.3216
vt 0.8993 0.8776
vt 0.8993 0.8976
vt 0.9109 0.6092
vt 0.8909 0.6092
vt 0.3954 0.8514
vt 0.3864 0.8613
vt 0.0171 0.8613
vt 0.0081 0.8514
vt 0.0081 0.0181
vt 0.0171 0.0082
vt 0.3864 0.0082
vt 0.3954 0.0181
vt 0.8353 0.6118
vt 0.8153 0.6118
vt 0.0073 0.8976
vt 0.0073 0.8776
vt 0.9571 0.0073
vt 0.9680 0.0073
vt 0.9680 0.2923
vt 0.9571 0.2923
vt 0.8309 0.6941
vt 0.8316 0.6944
vt 0.8319 0.6952
vt 0.8319 0.7122
vt 0.8316 0.7130
vt 0.8309 0.7133
vt 0.8155 0.7133
vt 0.8148 0.7130
vt 0.8145 0.7122
vt 0.8145 0.6952
vt 0.8470 0.6261
vt 0.8155 0.6941
vt 0.9410 0.0073
vt 0.9410 0.2923
vt 0.9301 0.2923
vt 0.9301 0.0073
vt 0.8747 0.3069
vt 0.8747 0.5919
vt 0.8638 0.5919
vt 0.8638 0.3069
vt 0.5919 0.9247
vt 0.3069 0.9247
vt 0.3069 0.9138
vt 0.5919 0.9138
vt 0.8145 0.6614
vt 0.8470 0.4151
vt 0.8155 0.6603
vt 0.8309 0.6603
vt 0.8316 0.6606
vt 0.8319 0.6614
vt 0.8319 0.6783
vt 0.8316 0.6791
vt 0.8309 0.6795
vt 0.8155 0.6795
vt 0.8148 0.6791
vt 0.8145 0.6783
vt 0.9271 0.3069
vt 0.9380 0.3069
vt 0.9380 0.5919
vt 0.9271 0.5919
vt 0.8638 0.0073
vt 0.8747 0.0073
vt 0.8747 0.2923
vt 0.8638 0.2923
vt 0.8515 0.0073
vt 0.8624 0.0073
vt 0.8624 0.2923
vt 0.8515 0.2923
vt 0.9650 0.6065
vt 0.9650 0.8915
vt 0.9541 0.8915
vt 0.9541 0.6065
vt 0.8319 0.7460
vt 0.8316 0.7468
vt 0.8309 0.7471
vt 0.8155 0.7471
vt 0.8148 0.7468
vt 0.8145 0.7460
vt 0.8145 0.7291
vt 0.8732 0.4376
vt 0.8155 0.7280
vt 0.8309 0.7280
vt 0.8316 0.7283
vt 0.8319 0.7291
vt 0.8908 0.0073
vt 0.9017 0.0073
vt 0.9017 0.2923
vt 0.8908 0.2923
vt 0.9541 0.3069
vt 0.9650 0.3069
vt 0.9650 0.5919
vt 0.9541 0.5919
vt 0.9271 0.6238
vt 0.9380 0.6238
vt 0.9380 0.9088
vt 0.9271 0.9088
vt 0.8155 0.6456
vt 0.8148 0.6453
vt 0.8145 0.6445
vt 0.8145 0.6276
vt 0.4664 0.8259
vt 0.8155 0.6265
vt 0.8309 0.6265
vt 0.8316 0.6268
vt 0.8319 0.6276
vt 0.8319 0.6445
vt 0.8316 0.6453
vt 0.8309 0.6456
vt 0.0073 0.9261
vt 0.2923 0.9261
vt 0.2923 0.9371
vt 0.0073 0.9371
vt 0.9810 0.5919
vt 0.9810 0.3069
vt 0.9920 0.3069
vt 0.9920 0.5919
vt 0.0073 0.9138
vt 0.2923 0.9138
vt 0.2923 0.9247
vt 0.0073 0.9247
vt 0.4207 0.0082
vt 0.4117 0.0181
vt 0.4110 0.0177
vt 0.4203 0.0074
vt 0.6117 0.8984
vt 0.5972 0.8984
vt 0.3868 0.0074
vt 0.3962 0.0177
vt 0.5972 0.8768
vt 0.6117 0.8768
vt 0.3962 0.8518
vt 0.3868 0.8621
vt 0.8901 0.3215
vt 0.8901 0.3070
vt 0.4117 0.8514
vt 0.4207 0.8613
vt 0.4203 0.8621
vt 0.4110 0.8518
vt 0.9117 0.3070
vt 0.9117 0.3215
vt 0.7990 0.0181
vt 0.7900 0.0082
vt 0.7904 0.0074
vt 0.7997 0.0177
vt 0.8145 0.0219
vt 0.8145 0.0074
vt 0.0074 0.0177
vt 0.0167 0.0074
vt 0.8361 0.0074
vt 0.8361 0.0219
vt 0.0167 0.8621
vt 0.0074 0.8518
vt 0.8278 0.7855
vt 0.8146 0.7855
vt 0.7900 0.8613
vt 0.7990 0.8514
vt 0.7997 0.8518
vt 0.7904 0.8621
vt 0.8146 0.7618
vt 0.8278 0.7618
vt 0.7903 0.8622
vt 0.4205 0.8622
vt 0.9117 0.3217
vt 0.9117 0.6091
vt 0.3867 0.8622
vt 0.0169 0.8622
vt 0.8901 0.6091
vt 0.8901 0.3217
vt 0.5970 0.8984
vt 0.0074 0.8984
vt 0.4109 0.8517
vt 0.4109 0.0178
vt 0.8992 0.8984
vt 0.6119 0.8984
vt 0.4205 0.0073
vt 0.7903 0.0073
vt 0.8145 0.6117
vt 0.8145 0.0221
vt 0.7998 0.0178
vt 0.7998 0.8517
vt 0.3962 0.0178
vt 0.3962 0.8517
vt 0.0074 0.8768
vt 0.5970 0.8768
vt 0.0169 0.0073
vt 0.3867 0.0073
vt 0.6119 0.8768
vt 0.8992 0.8768
vt 0.0073 0.8517
vt 0.0073 0.0178
vt 0.8361 0.0221
vt 0.8361 0.6117
vt 0.8631 0.3069
vt 0.8624 0.5919
vt 0.8624 0.3069
vt 0.8754 0.3069
vt 0.8754 0.5919
vt 0.9294 0.2923
vt 0.9294 0.0073
vt 0.3069 0.9131
vt 0.5919 0.9131
vt 0.9417 0.0073
vt 0.9417 0.2923
vt 0.5919 0.9254
vt 0.3069 0.9254
vt 0.8507 0.5919
vt 0.8507 0.3069
vt 0.8515 0.3069
vt 0.8515 0.5919
vt 0.9263 0.5919
vt 0.9263 0.3069
vt 0.8754 0.0073
vt 0.8754 0.2923
vt 0.8631 0.0073
vt 0.8507 0.2923
vt 0.8507 0.0073
vt 0.9687 0.0073
vt 0.9687 0.2923
vt 0.9387 0.3069
vt 0.9387 0.5919
vt 0.9564 0.2923
vt 0.9564 0.0073
vt 0.8901 0.2923
vt 0.8901 0.0073
vt 0.9657 0.3069
vt 0.9657 0.5919
vt 0.9387 0.6238
vt 0.9387 0.9088
vt 0.9533 0.5919
vt 0.9533 0.3069
vt 0.9263 0.9088
vt 0.9263 0.6238
vt 0.9147 0.0073
vt 0.9147 0.2923
vt 0.9024 0.0073
vt 0.9927 0.3069
vt 0.9927 0.5919
vt 0.9657 0.6065
vt 0.9657 0.8915
vt 0.9803 0.5919
vt 0.9803 0.3069
vt 0.2923 0.9378
vt 0.0073 0.9378
vt 0.0073 0.9254
vt 0.0073 0.9131
vt 0.2923 0.9131
vt 0.9533 0.8915
vt 0.9533 0.6065
vn 0.3750 0.1994 0.9053
vn 0.3750 -0.1994 0.9053
vn 0.9053 -0.1994 0.3750
vn 0.9053 0.1994 0.3750
vn 0.1951 0.0000 0.9808
vn -0.1951 0.0000 0.9808
vn -0.9053 -0.1994 -0.3750
vn -0.9053 0.1994 -0.3750
vn -0.3750 0.1994 -0.9053
vn -0.3750 -0.1994 -0.9053
vn 0.9053 0.1994 -0.3750
vn 0.9053 -0.1994 -0.3750
vn 0.3750 -0.1994 -0.9053
vn 0.3750 0.1994 -0.9053
vn -0.3750 -0.1994 0.9053
vn -0.3750 0.1994 0.9053
vn -0.9053 0.1994 0.3750
vn -0.9053 -0.1994 0.3750
vn -0.0860 -0.9744 0.2077
vn -0.2076 -0.9744 0.0860
vn -0.2076 -0.9744 -0.0860
vn -0.0860 -0.9744 -0.2077
vn 0.0860 -0.9744 -0.2077
vn 0.2077 -0.9744 -0.0860
vn 0.2077 -0.9744 0.0860
vn 0.0860 -0.9744 0.2077
vn -0.1951 0.0000 -0.9808
vn 0.1951 0.0000 -0.9808
vn 0.0000 -1.0000 0.0000
vn -0.9808 0.0000 -0.1951
vn -0.9808 0.0000 0.1951
vn 0.9808 0.0000 -0.1951
vn 0.9808 0.0000 0.1951
vn 0.9808 0.0000 -0.1952
vn 0.2077 0.9744 0.0860
vn 0.0860 0.9744 0.2076
vn 0.2797 0.6824 0.6753
vn 0.6753 0.6824 0.2797
vn 0.6753 -0.6824 0.2797
vn 0.2797 -0.6824 0.6753
vn -0.2797 -0.6824 0.6753
vn -0.6753 -0.6824 0.2797
vn -0.0860 0.9744 0.2076
vn -0.2076 0.9744 0.0860
vn -0.6753 0.6824 0.2797
vn -0.2797 0.6824 0.6753
vn 0.0860 0.9744 -0.2076
vn 0.2077 0.9744 -0.0860
vn 0.6753 0.6824 -0.2797
vn 0.2797 0.6824 -0.6753
vn 0.2797 -0.6824 -0.6753
vn 0.6753 -0.6824 -0.2797
vn -0.6753 -0.6824 -0.2797
vn -0.2797 -0.6824 -0.6753
vn -0.2076 0.9744 -0.0860
vn -0.0860 0.9744 -0.2076
vn -0.2797 0.6824 -0.6753
vn -0.6753 0.6824 -0.2797
vn 0.7071 0.0000 0.7071
vn 0.9808 0.0000 0.1952
vn -0.7071 0.0000 0.7071
vn -0.7071 0.0000 -0.7071
vn 0.7071 0.0000 -0.7071
usemtl None
s 1
f 8/1/1 35/2/2 32/3/3 11/4/4
f 97/5/5 101/6/6 112/7/6 110/8/5
f 38/9/7 17/10/8 14/11/9 41/12/10
f 20/13/11 47/14/12 44/15/13 23/16/14
f 26/17/15 5/18/16 2/19/17 29/20/18
f 11/4/4 32/3/3 47/21/12 20/22/11
f 17/23/8 38/24/7 29/20/18 2/19/17
f 25/25/19 28/26/20 37/27/21 40/28/22 43/29/23 46/30/24 31/31/25 34/32/26
f 23/16/14 44/15/13 41/33/10 14/34/9
f 5/35/16 26/36/15 35/2/2 8/1/1
f 73/37/27 77/38/28 88/39/28 86/40/27
f 70/41/29 72/42/29 71/43/29 64/44/29 66/45/29 65/46/29 61/47/29 63/48/29 62/49/29 67/50/29 69/51/29 68/52/29
f 53/53/30 64/54/30 71/55/31 58/56/31
f 59/57/6 70/58/6 68/59/5 55/60/5
f 50/61/28 61/62/28 65/63/27 52/64/27
f 94/65/29 96/66/29 95/67/29 91/68/29 93/69/29 92/70/29 85/71/29 87/72/29 86/73/29 88/74/29 90/75/29 89/76/29
f 79/77/31 74/78/30 85/79/30 92/80/31
f 82/81/5 80/82/6 91/83/6 95/84/5
f 76/85/32 83/86/33 94/87/33 89/88/32
f 128/89/30 139/90/30 134/91/31 121/92/31
f 118/93/29 120/94/29 119/95/29 115/96/29 117/97/29 116/98/29 109/99/29 111/100/29 110/101/29 112/102/29 114/103/29 113/104/29
f 103/105/34 98/106/33 109/107/33 116/108/34
f 106/109/27 104/110/28 115/111/28 119/112/27
f 100/113/31 107/114/30 118/115/30 113/116/31
f 142/117/29 144/118/29 143/119/29 136/120/29 138/121/29 137/122/29 133/123/29 135/124/29 134/125/29 139/126/29 141/127/29 140/128/29
f 125/129/33 136/130/33 143/131/32 130/132/32
f 131/133/28 142/134/28 140/135/27 127/136/27
f 122/137/6 133/138/6 137/139/5 124/140/5
f 10/141/35 7/142/36 9/143/37 12/144/38
f 12/145/38 9/146/37 8/1/1 11/4/4
f 34/32/26 31/31/25 33/147/39 36/148/40
f 36/149/40 33/150/39 32/3/3 35/2/2
f 28/26/20 25/25/19 27/151/41 30/152/42
f 30/153/42 27/154/41 26/17/15 29/20/18
f 4/155/43 1/156/44 3/157/45 6/158/46
f 6/159/46 3/160/45 2/19/17 5/18/16
f 22/161/47 19/162/48 21/163/49 24/164/50
f 24/165/50 21/166/49 20/13/11 23/16/14
f 46/30/24 43/29/23 45/167/51 48/168/52
f 48/169/52 45/170/51 44/15/13 47/14/12
f 40/28/22 37/27/21 39/171/53 42/172/54
f 42/173/54 39/174/53 38/9/7 41/12/10
f 16/175/55 13/176/56 15/177/57 18/178/58
f 18/179/58 15/180/57 14/11/9 17/10/8
f 1/156/44 16/175/55 18/181/58 3/182/45
f 3/183/45 18/184/58 17/23/8 2/19/17
f 37/27/21 28/26/20 30/185/42 39/186/53
f 39/187/53 30/188/42 29/20/18 38/24/7
f 5/35/16 8/1/1 9/189/37 6/190/46
f 6/191/46 9/192/37 7/142/36 4/155/43
f 11/4/4 20/22/11 21/193/49 12/194/38
f 12/195/38 21/196/49 19/162/48 10/141/35
f 23/16/14 14/34/9 15/197/57 24/198/50
f 24/199/50 15/200/57 13/176/56 22/161/47
f 25/25/19 34/32/26 36/201/40 27/202/41
f 27/203/41 36/204/40 35/2/2 26/36/15
f 31/31/25 46/30/24 48/205/52 33/206/39
f 33/207/39 48/208/52 47/21/12 32/3/3
f 43/29/23 40/28/22 42/209/54 45/210/51
f 45/211/51 42/212/54 41/33/10 44/15/13
f 1/156/44 4/155/43 7/142/36 10/141/35 19/162/48 22/161/47 13/176/56 16/175/55
f 55/60/5 68/59/5 69/51/59 57/213/59
f 57/213/59 69/51/59 67/214/60 56/215/60
f 70/58/6 59/57/6 60/216/61 72/217/61
f 72/218/61 60/219/61 58/56/31 71/55/31
f 52/64/27 65/63/27 66/220/62 54/221/62
f 54/222/62 66/223/62 64/54/30 53/53/30
f 61/62/28 50/61/28 51/224/63 63/225/63
f 63/226/63 51/227/63 49/228/32 62/229/32
f 79/77/31 92/80/31 93/230/61 81/231/61
f 81/232/61 93/233/61 91/83/6 80/82/6
f 94/87/33 83/86/33 84/234/59 96/66/59
f 96/66/59 84/234/59 82/81/5 95/84/5
f 76/85/32 89/88/32 90/235/63 78/236/63
f 78/237/63 90/238/63 88/39/28 77/38/28
f 85/79/30 74/78/30 75/239/62 87/240/62
f 87/241/62 75/242/62 73/37/27 86/40/27
f 103/105/34 116/108/34 117/243/63 105/244/63
f 105/245/63 117/246/63 115/111/28 104/110/28
f 118/115/30 107/114/30 108/247/62 120/248/62
f 120/249/62 108/250/62 106/109/27 119/112/27
f 100/113/31 113/116/31 114/251/61 102/252/61
f 102/253/61 114/254/61 112/7/6 101/6/6
f 109/107/33 98/106/33 99/255/59 111/100/59
f 111/100/59 99/255/59 97/5/5 110/8/5
f 127/136/27 140/135/27 141/256/62 129/257/62
f 129/258/62 141/259/62 139/90/30 128/89/30
f 142/134/28 131/133/28 132/260/63 144/261/63
f 144/262/63 132/263/63 130/132/32 143/131/32
f 124/140/5 137/139/5 138/121/59 126/264/59
f 126/264/59 138/121/59 136/130/33 125/129/33
f 133/138/6 122/137/6 123/265/61 135/266/61
f 135/267/61 123/268/61 121/92/31 134/91/31
f 56/215/60 67/214/60 62/229/32 49/228/32
