# Blender v2.77 (sub 0) OBJ File: 'hor1.blend'
# www.blender.org
mtllib hor1 itembox1 lock.mtl
o itembox_1_lock_Torus
v -5.714527 1.153035 -0.202196
v -5.711776 1.153035 -0.200608
v -5.711776 1.153035 -0.197432
v -5.714527 1.153035 -0.195844
v -5.717277 1.153035 -0.197432
v -5.717277 1.153035 -0.200608
v -5.714527 1.165965 -0.198731
v -5.711776 1.165171 -0.197356
v -5.711776 1.163583 -0.194606
v -5.714527 1.162789 -0.193231
v -5.717277 1.163583 -0.194606
v -5.717277 1.165171 -0.197356
v -5.714527 1.175430 -0.189266
v -5.711776 1.174055 -0.188472
v -5.711776 1.171305 -0.186884
v -5.714527 1.169930 -0.186090
v -5.717277 1.171305 -0.186884
v -5.717277 1.174055 -0.188472
v -5.714527 1.178895 -0.176336
v -5.711776 1.177307 -0.176336
v -5.711776 1.174131 -0.176336
v -5.714527 1.172543 -0.176336
v -5.717277 1.174131 -0.176336
v -5.717277 1.177307 -0.176336
v -5.714527 1.175430 -0.163406
v -5.711776 1.174055 -0.164200
v -5.711776 1.171305 -0.165788
v -5.714527 1.169930 -0.166582
v -5.717277 1.171305 -0.165788
v -5.717277 1.174055 -0.164200
v -5.714527 1.165965 -0.153940
v -5.711776 1.165171 -0.155315
v -5.711776 1.163583 -0.158066
v -5.714527 1.162789 -0.159441
v -5.717277 1.163583 -0.158066
v -5.717277 1.165171 -0.155315
v -5.714527 1.153035 -0.150476
v -5.711776 1.153035 -0.152064
v -5.711776 1.153035 -0.155239
v -5.714527 1.153035 -0.156827
v -5.717277 1.153035 -0.155239
v -5.717277 1.153035 -0.152064
v -5.717277 1.113471 -0.152064
v -5.717277 1.113471 -0.155239
v -5.714527 1.113471 -0.156827
v -5.711776 1.113471 -0.155239
v -5.711776 1.113471 -0.152064
v -5.714527 1.113471 -0.150476
v -5.717277 1.113471 -0.200608
v -5.717277 1.113471 -0.197432
v -5.714527 1.113471 -0.195844
v -5.711776 1.113471 -0.197432
v -5.711776 1.113471 -0.200608
v -5.714527 1.113471 -0.202196
v -5.727242 1.113471 -0.150953
v -5.720450 1.113471 -0.144161
v -5.708603 1.113471 -0.144161
v -5.701811 1.113471 -0.150953
v -5.720450 1.113471 -0.208511
v -5.727242 1.113471 -0.201718
v -5.701811 1.113471 -0.201718
v -5.708603 1.113471 -0.208511
v -5.720450 1.061450 -0.144161
v -5.727242 1.061450 -0.150953
v -5.701811 1.061450 -0.150953
v -5.708603 1.061450 -0.144161
v -5.727242 1.061450 -0.201718
v -5.720450 1.061450 -0.208511
v -5.708603 1.061450 -0.208511
v -5.701811 1.061450 -0.201718
vt 0.4002 0.7567
vt 0.4002 0.6895
vt 0.4161 0.6936
vt 0.4161 0.7567
vt 0.1436 0.2996
vt 0.0805 0.2807
vt 0.0888 0.2647
vt 0.1436 0.2811
vt 0.9287 0.5899
vt 0.9287 0.6448
vt 0.9127 0.6406
vt 0.9127 0.5899
vt 0.8967 0.6448
vt 0.8967 0.5899
vt 0.6479 0.1436
vt 0.6315 0.0888
vt 0.6475 0.0805
vt 0.6664 0.1436
vt 0.3842 0.7567
vt 0.3842 0.6936
vt 0.4669 0.8732
vt 0.4669 0.8240
vt 0.4829 0.8198
vt 0.4829 0.8660
vt 0.0343 0.2291
vt 0.0486 0.2198
vt 0.9287 0.6849
vt 0.9127 0.6778
vt 0.8967 0.6849
vt 0.5866 0.0486
vt 0.5958 0.0343
vt 0.4510 0.8660
vt 0.4510 0.8198
vt 0.4669 0.7567
vt 0.4829 0.7567
vt 0.0174 0.1585
vt 0.0339 0.1585
vt 0.5177 0.7992
vt 0.5177 0.7443
vt 0.5337 0.7443
vt 0.5337 0.7951
vt 0.5497 0.7443
vt 0.5497 0.7992
vt 0.5253 0.0339
vt 0.5253 0.0174
vt 0.4510 0.7567
vt 0.4669 0.6895
vt 0.4829 0.6936
vt 0.0343 0.0880
vt 0.0486 0.0972
vt 0.5177 0.6895
vt 0.5337 0.6936
vt 0.5497 0.6895
vt 0.4639 0.0486
vt 0.4547 0.0343
vt 0.4510 0.6936
vt 0.8998 0.0174
vt 0.8998 0.0666
vt 0.8838 0.0708
vt 0.8838 0.0246
vt 0.0805 0.0363
vt 0.0888 0.0523
vt 0.9506 0.3181
vt 0.9506 0.2780
vt 0.9666 0.2739
vt 0.9666 0.3110
vt 0.9826 0.2780
vt 0.9826 0.3181
vt 0.4191 0.0888
vt 0.4031 0.0805
vt 0.9158 0.0246
vt 0.9158 0.0708
vt 0.8998 0.1339
vt 0.8838 0.1339
vt 0.1436 0.0174
vt 0.1436 0.0359
vt 0.9506 0.2231
vt 0.9666 0.2231
vt 0.9826 0.2231
vt 0.4026 0.1436
vt 0.3842 0.1436
vt 0.9158 0.1339
vt 0.4161 0.9625
vt 0.4002 0.9625
vt 0.8967 0.3842
vt 0.9127 0.3842
vt 0.6664 0.3494
vt 0.6479 0.3494
vt 0.3842 0.9625
vt 0.9506 0.0174
vt 0.9666 0.0174
vt 0.4026 0.3494
vt 0.3842 0.3494
vt 0.9826 0.0174
vt 0.9158 0.3396
vt 0.8998 0.3396
vt 0.8838 0.3396
vt 0.3494 0.2811
vt 0.3494 0.2996
vt 0.3494 0.0174
vt 0.3494 0.0359
vt 0.9287 0.3842
vt 0.7407 0.2879
vt 0.7407 0.0174
vt 0.8095 0.0174
vt 0.8095 0.2879
vt 0.7536 0.7188
vt 0.7141 0.6835
vt 0.7141 0.4195
vt 0.7536 0.3842
vt 0.8224 0.3842
vt 0.8619 0.4195
vt 0.8619 0.6835
vt 0.8224 0.7188
vt 0.6793 0.3842
vt 0.6793 0.6547
vt 0.3842 0.6547
vt 0.3842 0.3842
vt 0.3084 0.6397
vt 0.3084 0.9102
vt 0.2395 0.9102
vt 0.2395 0.6397
vt 0.1652 0.9390
vt 0.1258 0.9744
vt 0.0569 0.9744
vt 0.0174 0.9390
vt 0.0174 0.6751
vt 0.0569 0.6397
vt 0.1258 0.6397
vt 0.1652 0.6751
vt 0.2001 0.9102
vt 0.2001 0.6397
vt 0.3479 0.6397
vt 0.3479 0.9102
vt 0.8490 0.0174
vt 0.8490 0.2879
vt 0.7012 0.2879
vt 0.7012 0.0174
vt 0.3125 0.3344
vt 0.3125 0.6049
vt 0.0174 0.6049
vt 0.0174 0.3344
vn 0.0000 0.1254 -0.9921
vn 0.0000 0.5000 -0.8660
vn 0.8303 0.2786 -0.4827
vn 0.8469 0.0724 -0.5268
vn 0.9016 -0.2163 0.3745
vn 0.8832 -0.0588 0.4652
vn 0.0000 -0.5000 0.8660
vn 0.0000 -0.1362 0.9907
vn -0.9016 -0.2163 0.3745
vn -0.8832 -0.0588 0.4652
vn -0.8303 0.2786 -0.4827
vn -0.8469 0.0724 -0.5268
vn 0.0000 0.8660 -0.5000
vn 0.8303 0.4826 -0.2787
vn 0.9016 -0.3745 0.2162
vn 0.0000 -0.8660 0.5000
vn -0.9016 -0.3745 0.2162
vn -0.8303 0.4827 -0.2786
vn 0.0000 1.0000 0.0000
vn 0.8303 0.5573 0.0000
vn 0.9016 -0.4324 0.0000
vn 0.0000 -1.0000 0.0000
vn -0.9016 -0.4325 0.0000
vn -0.8303 0.5573 0.0000
vn 0.0000 0.8660 0.5000
vn 0.8303 0.4827 0.2787
vn 0.9016 -0.3746 -0.2162
vn 0.0000 -0.8660 -0.5000
vn -0.9016 -0.3745 -0.2162
vn -0.8303 0.4826 0.2787
vn 0.0000 0.5000 0.8660
vn 0.8303 0.2786 0.4827
vn 0.9016 -0.2163 -0.3745
vn 0.0000 -0.5000 -0.8660
vn -0.9016 -0.2162 -0.3745
vn -0.8303 0.2786 0.4827
vn 0.0000 0.1254 0.9921
vn 0.8469 0.0725 0.5268
vn 0.8832 -0.0588 -0.4652
vn 0.0000 -0.1362 -0.9907
vn -0.8832 -0.0588 -0.4652
vn -0.8469 0.0724 0.5268
vn 0.8660 0.0000 -0.5000
vn 0.0000 0.0000 -1.0000
vn -0.8660 0.0000 0.5000
vn 0.0000 0.0000 1.0000
vn -0.8660 0.0000 -0.5000
vn 0.8660 0.0000 0.5000
vn -0.2971 0.6302 0.7173
vn -0.2971 -0.6302 0.7173
vn 0.2971 -0.6302 0.7173
vn 0.2971 0.6302 0.7173
vn -0.7173 -0.6302 0.2971
vn -0.7173 -0.6302 -0.2971
vn -0.2971 -0.6302 -0.7173
vn 0.2971 -0.6302 -0.7173
vn 0.7173 -0.6302 -0.2971
vn 0.7173 -0.6302 0.2971
vn 0.7173 0.6302 0.2971
vn 0.7173 0.6302 -0.2971
vn 0.2971 0.6302 -0.7173
vn -0.2971 0.6302 -0.7173
vn -0.7173 0.6302 0.2971
vn -0.7173 0.6302 -0.2971
usemtl None
s 1
f 1/1/1 7/2/2 8/3/3 2/4/4
f 2/5/4 8/6/3 9/7/5 3/8/6
f 3/9/6 9/10/5 10/11/7 4/12/8
f 4/12/8 10/11/7 11/13/9 5/14/10
f 5/15/10 11/16/9 12/17/11 6/18/12
f 6/19/12 12/20/11 7/2/2 1/1/1
f 7/21/2 13/22/13 14/23/14 8/24/3
f 8/6/3 14/25/14 15/26/15 9/7/5
f 9/10/5 15/27/15 16/28/16 10/11/7
f 10/11/7 16/28/16 17/29/17 11/13/9
f 11/16/9 17/30/17 18/31/18 12/17/11
f 12/32/11 18/33/18 13/22/13 7/21/2
f 13/22/13 19/34/19 20/35/20 14/23/14
f 14/25/14 20/36/20 21/37/21 15/26/15
f 15/38/15 21/39/21 22/40/22 16/41/16
f 16/41/16 22/40/22 23/42/23 17/43/17
f 17/30/17 23/44/23 24/45/24 18/31/18
f 18/33/18 24/46/24 19/34/19 13/22/13
f 19/34/19 25/47/25 26/48/26 20/35/20
f 20/36/20 26/49/26 27/50/27 21/37/21
f 21/39/21 27/51/27 28/52/28 22/40/22
f 22/40/22 28/52/28 29/53/29 23/42/23
f 23/44/23 29/54/29 30/55/30 24/45/24
f 24/46/24 30/56/30 25/47/25 19/34/19
f 25/57/25 31/58/31 32/59/32 26/60/26
f 26/49/26 32/61/32 33/62/33 27/50/27
f 27/63/27 33/64/33 34/65/34 28/66/28
f 28/66/28 34/65/34 35/67/35 29/68/29
f 29/54/29 35/69/35 36/70/36 30/55/30
f 30/71/30 36/72/36 31/58/31 25/57/25
f 31/58/31 37/73/37 38/74/38 32/59/32
f 32/61/32 38/75/38 39/76/39 33/62/33
f 33/64/33 39/77/39 40/78/40 34/65/34
f 34/65/34 40/78/40 41/79/41 35/67/35
f 35/69/35 41/80/41 42/81/42 36/70/36
f 36/72/36 42/82/42 37/73/37 31/58/31
f 1/1/1 2/4/4 53/83/43 54/84/44
f 4/12/8 5/14/10 50/85/45 51/86/46
f 5/15/10 6/18/12 49/87/47 50/88/45
f 6/19/12 1/1/1 54/84/44 49/89/47
f 40/78/40 39/77/39 46/90/43 45/91/44
f 42/81/42 41/80/41 44/92/47 43/93/45
f 41/79/41 40/78/40 45/91/44 44/94/47
f 37/73/37 42/82/42 43/95/45 48/96/46
f 38/74/38 37/73/37 48/96/46 47/97/48
f 2/5/4 3/8/6 52/98/48 53/99/43
f 39/76/39 38/75/38 47/100/48 46/101/43
f 3/9/6 4/12/8 51/86/46 52/102/48
f 56/103/49 63/104/50 66/105/51 57/106/52
f 63/107/50 64/108/53 67/109/54 68/110/55 69/111/56 70/112/57 65/113/58 66/114/51
f 58/115/59 65/116/58 70/117/57 61/118/60
f 62/119/61 69/120/56 68/121/55 59/122/62
f 55/123/63 56/124/49 57/125/52 58/126/59 61/127/60 62/128/61 59/129/62 60/130/64
f 59/122/62 68/121/55 67/131/54 60/132/64
f 69/120/56 62/119/61 61/133/60 70/134/57
f 57/106/52 66/105/51 65/135/58 58/136/59
f 63/104/50 56/103/49 55/137/63 64/138/53
f 60/139/64 67/140/54 64/141/53 55/142/63
