# Blender v2.77 (sub 0) OBJ File: 'hor1.blend'
# www.blender.org
mtllib hor1 toilet2.mtl
o toilet_2_Plane.031
v -1.325000 2.500000 5.650002
v -5.825000 0.000000 5.650002
v -1.325000 2.000000 5.650002
v -5.825000 0.000000 1.650002
v -5.825000 2.000000 1.650002
v -5.825000 2.500000 1.650002
v -1.325000 0.000000 1.650002
v -4.825000 2.500000 5.650002
v -4.825000 2.000000 5.650002
v -4.825000 2.000000 1.650002
v -4.825000 0.000000 1.650002
v -4.025000 2.500000 1.650002
v -4.025000 2.000000 5.650002
v -4.025000 0.000000 5.650002
v -4.025000 2.000000 1.650002
v -4.825000 2.000000 5.700002
v -4.825000 0.000000 5.700002
v -4.025000 2.000000 5.700002
v -4.025000 0.000000 5.700002
v -1.625000 2.500000 5.650002
v -2.525000 2.500000 1.650002
v -1.625000 2.500000 1.650002
v -1.625000 2.000000 5.650002
v -2.525000 2.000000 5.650002
v -1.625000 0.000000 5.650002
v -2.525000 0.000000 5.650002
v -1.625000 2.000000 1.650002
v -2.525000 2.000000 1.650002
v -1.625000 0.000000 1.650002
v -2.525000 0.000000 1.650002
v -1.325000 2.500000 2.983335
v -1.325000 2.500000 1.650002
v -4.825000 2.500000 2.983335
v -4.825000 2.500000 1.650002
v -4.025000 0.000000 1.650002
v -1.325000 2.000000 1.650002
v -1.325000 2.000000 2.983335
v -5.825000 2.500000 2.983335
v -1.625000 0.000000 2.094446
v -1.625000 0.000000 2.538891
v -2.525000 0.000000 2.094446
v -2.525000 0.000000 2.538891
v -1.325000 0.000000 2.983335
v -5.825000 2.000000 4.316667
v -5.825000 2.000000 2.983335
v -5.825000 0.000000 2.983335
v -5.825000 0.000000 4.316667
v -4.825000 0.000000 4.316667
v -4.825000 0.000000 2.983335
v -4.025000 0.000000 2.983335
v -4.025000 2.500000 4.316667
v -4.025000 2.500000 2.983335
v -1.625000 0.000000 3.427779
v -1.625000 0.000000 3.872224
v -2.525000 0.000000 3.427779
v -2.525000 0.000000 3.872224
v -2.525000 2.500000 2.983335
v -2.525000 2.500000 4.316667
v -1.625000 2.500000 2.983335
v -1.325000 2.000000 4.316667
v -5.825000 2.500000 4.316667
v -5.825000 2.500000 5.650002
v -1.625000 0.000000 4.761113
v -1.625000 0.000000 5.205557
v -2.525000 0.000000 4.761113
v -2.525000 0.000000 5.205557
v -2.525000 2.500000 5.650002
v -1.625000 2.500000 4.316667
v -1.325000 0.000000 5.650002
v -1.325000 0.000000 4.316667
v -5.825000 2.000000 5.650002
v -1.325000 2.500000 4.316667
v -4.825000 2.500000 4.316667
v -4.825000 0.000000 5.650002
v -4.025000 0.000000 4.316667
v -4.025000 2.500000 5.650002
vt 0.7431 0.3073
vt 0.7793 0.3073
vt 0.7793 0.3277
vt 0.7431 0.3277
vt 0.5981 0.3073
vt 0.5981 0.3277
vt 0.9472 0.0423
vt 0.9472 0.0219
vt 0.9835 0.0219
vt 0.9835 0.0423
vt 0.8023 0.0423
vt 0.8023 0.0219
vt 0.8023 0.3277
vt 0.8023 0.2598
vt 0.9472 0.2598
vt 0.9472 0.3277
vt 0.9835 0.2598
vt 0.9835 0.3277
vt 0.5981 0.0219
vt 0.7431 0.0219
vt 0.7431 0.0899
vt 0.5981 0.0899
vt 0.7793 0.0219
vt 0.7793 0.0899
vt 0.0602 0.3734
vt 0.0115 0.3734
vt 0.0115 0.2089
vt 0.8023 0.2054
vt 0.9472 0.2054
vt 0.9835 0.2054
vt 0.7793 0.1443
vt 0.7431 0.1443
vt 0.4501 0.2089
vt 0.4501 0.1211
vt 0.4556 0.1211
vt 0.4556 0.2089
vt 0.9895 0.5682
vt 0.8535 0.5682
vt 0.8535 0.5646
vt 0.9895 0.5646
vt 0.9813 0.5991
vt 0.9270 0.5991
vt 0.9270 0.5955
vt 0.9813 0.5955
vt 0.9363 0.6528
vt 0.8004 0.6528
vt 0.8004 0.6492
vt 0.9363 0.6492
vt 0.0115 0.5050
vt 0.0115 0.4721
vt 0.0602 0.4721
vt 0.8023 0.1035
vt 0.9472 0.1035
vt 0.9835 0.1035
vt 0.5981 0.1443
vt 0.7431 0.2462
vt 0.5981 0.2462
vt 0.7793 0.2462
vt 0.1431 0.8204
vt 0.1431 0.9666
vt 0.0444 0.9666
vt 0.0444 0.8204
vt 0.2064 0.4721
vt 0.1090 0.4721
vt 0.1090 0.3734
vt 0.2064 0.3734
vt 0.3076 0.8204
vt 0.3076 0.9666
vt 0.1577 0.5050
vt 0.1577 0.2089
vt 0.3953 0.8204
vt 0.3953 0.9666
vt 0.0115 0.1211
vt 0.1577 0.1211
vt 0.5050 0.8204
vt 0.5050 0.9666
vt 0.8929 0.3507
vt 0.9835 0.3507
vt 0.9835 0.3869
vt 0.8929 0.3869
vt 0.9454 0.7663
vt 0.9454 0.6757
vt 0.9817 0.6757
vt 0.9817 0.7663
vt 0.0115 0.9666
vt 0.0115 0.8204
vt 0.0115 0.0115
vt 0.1577 0.0115
vt 0.8004 0.7663
vt 0.8004 0.6757
vt 0.9835 0.5319
vt 0.8929 0.5319
vt 0.8023 0.3869
vt 0.8023 0.5319
vt 0.8004 0.8569
vt 0.9454 0.8569
vt 0.3039 0.1211
vt 0.3039 0.0115
vt 0.0444 0.6741
vt 0.0115 0.6741
vt 0.9817 0.8569
vt 0.8023 0.3507
vt 0.5050 0.6741
vt 0.3953 0.6741
vt 0.3039 0.2089
vt 0.2552 0.3734
vt 0.3527 0.3734
vt 0.3076 0.6741
vt 0.3039 0.5050
vt 0.2552 0.4721
vt 0.3527 0.4721
vt 0.1431 0.6741
vt 0.7117 0.3869
vt 0.7117 0.5319
vt 0.8004 0.9475
vt 0.9454 0.9475
vt 0.4501 0.0115
vt 0.0444 0.5279
vt 0.0115 0.5279
vt 0.9817 0.9475
vt 0.7117 0.3507
vt 0.5050 0.5279
vt 0.3953 0.5279
vt 0.4501 0.3734
vt 0.4014 0.3734
vt 0.3076 0.5279
vt 0.4501 0.5050
vt 0.4014 0.4721
vt 0.4501 0.4721
vt 0.1431 0.5279
vn 0.0000 0.0000 -1.0000
vn 0.0000 0.0000 1.0000
vn 0.0000 1.0000 0.0000
vn -1.0000 0.0000 0.0000
vn 0.0000 -1.0000 0.0000
vn 1.0000 0.0000 0.0000
usemtl Material.008
s 1
f 23/1/1 20/2/1 1/3/1 3/4/1
f 25/5/1 23/1/1 3/4/1 69/6/1
f 27/7/2 36/8/2 32/9/2 22/10/2
f 29/11/2 7/12/2 36/8/2 27/7/2
f 4/13/2 11/14/2 10/15/2 5/16/2
f 5/16/2 10/15/2 34/17/2 6/18/2
f 2/19/1 71/20/1 9/21/1 74/22/1
f 71/20/1 62/23/1 8/24/1 9/21/1
f 41/25/3 30/26/3 35/27/3
f 11/14/2 35/28/2 15/29/2 10/15/2
f 10/15/2 15/29/2 12/30/2 34/17/2
f 9/21/1 8/24/1 76/31/1 13/32/1
f 14/33/3 74/34/3 17/35/3 19/36/3
f 13/37/4 14/38/4 19/39/4 18/40/4
f 9/41/5 13/42/5 18/43/5 16/44/5
f 74/45/6 9/46/6 16/47/6 17/48/6
f 7/49/3 29/50/3 39/51/3
f 39/51/3 29/50/3 30/26/3 41/25/3
f 35/28/2 30/52/2 28/53/2 15/29/2
f 30/52/2 29/11/2 27/7/2 28/53/2
f 15/29/2 28/53/2 21/54/2 12/30/2
f 28/53/2 27/7/2 22/10/2 21/54/2
f 14/55/1 13/32/1 24/56/1 26/57/1
f 26/57/1 24/56/1 23/1/1 25/5/1
f 13/32/1 76/31/1 67/58/1 24/56/1
f 24/56/1 67/58/1 20/2/1 23/1/1
f 57/59/5 21/60/5 22/61/5 59/62/5
f 53/63/3 40/64/3 42/65/3 55/66/3
f 52/67/5 12/68/5 21/60/5 57/59/5
f 43/69/3 40/64/3 53/63/3
f 43/69/3 7/49/3 39/51/3 40/64/3
f 55/66/3 42/65/3 50/70/3
f 33/71/5 34/72/5 12/68/5 52/67/5
f 42/65/3 41/25/3 35/27/3 50/70/3
f 50/70/3 35/27/3 11/73/3 49/74/3
f 38/75/5 6/76/5 34/72/5 33/71/5
f 31/77/4 32/78/4 36/79/4 37/80/4
f 45/81/6 5/82/6 6/83/6 38/84/6
f 59/62/5 22/61/5 32/85/5 31/86/5
f 49/74/3 11/73/3 4/87/3 46/88/3
f 46/89/6 4/90/6 5/82/6 45/81/6
f 37/80/4 36/79/4 7/91/4 43/92/4
f 60/93/4 37/80/4 43/92/4 70/94/4
f 47/95/6 46/89/6 45/81/6 44/96/6
f 48/97/3 49/74/3 46/88/3 47/98/3
f 68/99/5 59/62/5 31/86/5 72/100/5
f 44/96/6 45/81/6 38/84/6 61/101/6
f 72/102/4 31/77/4 37/80/4 60/93/4
f 61/103/5 38/75/5 33/71/5 73/104/5
f 75/105/3 50/70/3 49/74/3 48/97/3
f 56/106/3 55/66/3 50/70/3 75/105/3
f 65/107/3 56/106/3 75/105/3
f 73/104/5 33/71/5 52/67/5 51/108/5
f 70/109/3 43/69/3 53/63/3 54/110/3
f 70/109/3 54/110/3 63/111/3
f 63/111/3 54/110/3 56/106/3 65/107/3
f 51/108/5 52/67/5 57/59/5 58/112/5
f 58/112/5 57/59/5 59/62/5 68/99/5
f 3/113/4 60/93/4 70/94/4 69/114/4
f 2/115/6 47/95/6 44/96/6 71/116/6
f 74/34/3 48/97/3 47/98/3 2/117/3
f 20/118/5 68/99/5 72/100/5 1/119/5
f 71/116/6 44/96/6 61/101/6 62/120/6
f 1/121/4 72/102/4 60/93/4 3/113/4
f 62/122/5 61/103/5 73/104/5 8/123/5
f 14/33/3 75/105/3 48/97/3 74/34/3
f 26/124/3 66/125/3 14/33/3
f 66/125/3 65/107/3 75/105/3 14/33/3
f 8/123/5 73/104/5 51/108/5 76/126/5
f 69/127/3 64/128/3 25/129/3
f 69/127/3 70/109/3 63/111/3 64/128/3
f 25/129/3 64/128/3 66/125/3 26/124/3
f 76/126/5 51/108/5 58/112/5 67/130/5
f 67/130/5 58/112/5 68/99/5 20/118/5
