# Blender v2.77 (sub 0) OBJ File: 'hor1.blend'
# www.blender.org
mtllib hor1 pic frame.mtl
o mouse_tut_Plane.027
v -5.640402 1.321208 -3.641761
v -5.618243 1.210538 -3.633737
v -5.582618 1.321208 -3.801349
v -5.560459 1.210538 -3.793326
v -5.636887 1.322004 -3.640488
v -5.614728 1.211334 -3.632465
v -5.579103 1.322004 -3.800076
v -5.556944 1.211334 -3.792053
v -5.600952 1.265343 -3.708362
v -5.594954 1.265343 -3.724930
v -5.621711 1.209797 -3.703960
v -5.608081 1.209797 -3.741602
v -5.602917 1.266045 -3.709074
v -5.596918 1.266045 -3.725641
v -5.623676 1.210498 -3.704671
v -5.610046 1.210498 -3.742314
vt 0.0224 0.0224
vt 0.6190 0.0224
vt 0.6190 0.4052
vt 0.0224 0.4052
vt 0.6190 0.4500
vt 0.6190 0.8328
vt 0.0224 0.8328
vt 0.0224 0.4500
vt 0.7354 0.3925
vt 0.7354 0.7889
vt 0.7220 0.7889
vt 0.7220 0.3925
vt 0.6772 0.3925
vt 0.6772 0.7889
vt 0.6639 0.7889
vt 0.6639 0.3925
vt 0.9070 0.6190
vt 0.9070 0.0224
vt 0.9199 0.0224
vt 0.9199 0.6190
vt 0.9647 0.6190
vt 0.9647 0.0224
vt 0.9776 0.0224
vt 0.9776 0.6190
vt 0.6639 0.0617
vt 0.8621 0.0224
vt 0.8621 0.1626
vt 0.6639 0.1234
vt 0.6639 0.3084
vt 0.6639 0.2467
vt 0.8621 0.2074
vt 0.8621 0.3476
vt 0.7879 0.3925
vt 0.7879 0.6006
vt 0.7802 0.6005
vt 0.7802 0.3925
vt 0.7877 0.6454
vt 0.7877 0.7074
vt 0.7802 0.7074
vt 0.7802 0.6454
vt 0.8328 0.6006
vt 0.8328 0.3925
vt 0.8405 0.3925
vt 0.8405 0.6005
vt 0.6639 0.8338
vt 0.8046 0.8338
vt 0.8046 0.8412
vt 0.6639 0.8412
vn -0.9196 -0.2083 -0.3330
vn 0.9196 0.2083 0.3330
vn 0.3405 0.0000 -0.9403
vn -0.3405 0.0000 0.9403
vn 0.1959 -0.9781 0.0709
vn -0.1958 0.9781 -0.0709
vn 0.8944 -0.3086 0.3238
vn -0.8944 0.3086 -0.3238
vn 0.3909 0.1786 -0.9030
vn 0.2993 0.9480 0.1084
vn -0.2780 0.1787 0.9438
vn -0.2992 -0.9480 -0.1083
usemtl None
s off
f 1/1/1 3/2/1 4/3/1 2/4/1
f 5/5/2 6/6/2 8/7/2 7/8/2
f 4/9/3 3/10/3 7/11/3 8/12/3
f 1/13/4 2/14/4 6/15/4 5/16/4
f 2/17/5 4/18/5 8/19/5 6/20/5
f 3/21/6 1/22/6 5/23/6 7/24/6
f 9/25/7 11/26/7 12/27/7 10/28/7
f 13/29/8 14/30/8 16/31/8 15/32/8
f 10/33/9 12/34/9 16/35/9 14/36/9
f 9/37/10 10/38/10 14/39/10 13/40/10
f 11/41/11 9/42/11 13/43/11 15/44/11
f 12/45/12 11/46/12 15/47/12 16/48/12
