# Blender v2.77 (sub 0) OBJ File: 'hor1.blend'
# www.blender.org
mtllib hor1 door.mtl
o Plane.002_Plane.015
v -0.960000 1.848973 -0.576027
v -0.960000 1.167975 -0.576027
v -0.960000 1.848973 -1.173974
v -0.960000 1.167975 -1.173974
v -0.960000 1.202197 -1.143925
v -0.960000 1.814752 -1.143925
v -0.960000 1.202197 -0.606075
v -0.960000 1.814752 -0.606075
v -0.960000 2.000000 -1.325000
v -0.960000 2.000000 -0.425000
v -0.960000 0.000000 -0.425000
v -0.960000 0.000000 -1.325000
v -0.990000 1.167975 -1.173974
v -0.990000 1.848973 -1.173974
v -0.990000 1.167975 -0.576027
v -0.990000 1.848973 -0.576027
v -0.990000 1.202197 -1.143925
v -0.990000 1.814752 -1.143925
v -0.990000 1.202197 -0.606075
v -0.990000 1.814752 -0.606075
v -0.990000 2.000000 -1.325000
v -0.990000 2.000000 -0.425000
v -0.990000 -0.000000 -0.425000
v -0.990000 -0.000000 -1.325000
v -0.970000 1.202197 -1.143925
v -0.970000 1.814752 -1.143925
v -0.970000 1.202197 -0.606075
v -0.970000 1.814752 -0.606075
v -0.980000 1.202197 -1.143925
v -0.980000 1.814752 -1.143925
v -0.980000 1.202197 -0.606075
v -0.980000 1.814752 -0.606075
v -0.955000 1.123350 -1.242725
v -0.955000 0.994532 -1.242725
v -0.955000 1.123350 -1.275899
v -0.955000 0.994532 -1.275899
v -0.995000 1.123350 -1.242725
v -0.995000 0.994532 -1.242725
v -0.995000 1.123350 -1.275899
v -0.995000 0.994532 -1.275899
vt 0.3669 0.8427
vt 0.4389 0.9107
vt 0.0099 0.9107
vt 0.0819 0.8427
vt 0.3669 0.5360
vt 0.4389 0.0099
vt 0.8157 0.0779
vt 0.5307 0.0779
vt 0.4587 0.0099
vt 0.8877 0.0099
vt 0.8157 0.3847
vt 0.8877 0.9107
vt 0.5307 0.3847
vt 0.4587 0.9107
vt 0.0819 0.5360
vt 0.0099 0.0099
vt 0.9218 0.9107
vt 0.9075 0.9107
vt 0.9075 0.0099
vt 0.9218 0.0099
vt 0.9901 0.4153
vt 0.9758 0.4153
vt 0.9758 0.0099
vt 0.9901 0.0099
vt 0.9758 0.4351
vt 0.9901 0.4351
vt 0.9901 0.8405
vt 0.9758 0.8405
vt 0.9416 0.0099
vt 0.9559 0.0099
vt 0.9559 0.9107
vt 0.9416 0.9107
vt 0.5563 0.5105
vt 0.5563 0.9895
vt 0.5289 0.9654
vt 0.5289 0.5346
vt 0.0105 0.9895
vt 0.0380 0.9654
vt 0.0105 0.5105
vt 0.0380 0.5346
vt 0.5563 0.0105
vt 0.5289 0.0346
vt 0.0380 0.0346
vt 0.0105 0.0105
vt 0.0105 0.4895
vt 0.0380 0.4654
vt 0.5289 0.4654
vt 0.5563 0.4895
vt 0.6225 0.0105
vt 0.6465 0.0105
vt 0.6465 0.5015
vt 0.6225 0.5015
vt 0.6014 0.5015
vt 0.5774 0.5015
vt 0.5774 0.0105
vt 0.6014 0.0105
vt 0.7127 0.0105
vt 0.7367 0.0105
vt 0.7367 0.4416
vt 0.7127 0.4416
vt 0.6676 0.0105
vt 0.6916 0.0105
vt 0.6916 0.4416
vt 0.6676 0.4416
vt 0.6836 0.7501
vt 0.6836 0.6468
vt 0.7102 0.6468
vt 0.7102 0.7501
vt 0.7102 0.6258
vt 0.6836 0.6258
vt 0.6836 0.5225
vt 0.7102 0.5225
vt 0.6305 0.5225
vt 0.6625 0.5225
vt 0.6625 0.6258
vt 0.6305 0.6258
vt 0.6094 0.6258
vt 0.5774 0.6258
vt 0.5774 0.5225
vt 0.6094 0.5225
vt 0.6250 0.6789
vt 0.6250 0.6468
vt 0.6516 0.6468
vt 0.6516 0.6789
vt 0.6040 0.6468
vt 0.6040 0.6789
vt 0.5774 0.6789
vt 0.5774 0.6468
vt 0.9916 0.9749
vt 0.5084 0.9749
vt 0.5084 0.0084
vt 0.9916 0.0084
vt 0.4916 0.0084
vt 0.4916 0.9749
vt 0.0084 0.9749
vt 0.0084 0.0084
vn -1.0000 0.0000 0.0000
vn 1.0000 0.0000 0.0000
vn 0.0000 0.0000 1.0000
vn 0.0000 -1.0000 0.0000
vn 0.0000 1.0000 0.0000
vn 0.0000 0.0000 -1.0000
usemtl door_wood
s off
f 16/1/1 22/2/1 21/3/1 14/4/1
f 15/5/1 23/6/1 22/2/1 16/1/1
f 1/7/2 3/8/2 9/9/2 10/10/2
f 2/11/2 1/7/2 10/10/2 11/12/2
f 4/13/2 2/11/2 11/12/2 12/14/2
f 3/8/2 4/13/2 12/14/2 9/9/2
f 13/15/1 24/16/1 23/6/1 15/5/1
f 14/4/1 21/3/1 24/16/1 13/15/1
f 10/17/3 22/18/3 23/19/3 11/20/3
f 11/21/4 23/22/4 24/23/4 12/24/4
f 9/25/5 21/26/5 22/27/5 10/28/5
f 12/29/6 24/30/6 21/31/6 9/32/6
usemtl door_met
f 3/33/2 1/34/2 8/35/2 6/36/2
f 1/34/2 2/37/2 7/38/2 8/35/2
f 4/39/2 3/33/2 6/36/2 5/40/2
f 2/37/2 4/39/2 5/40/2 7/38/2
f 16/41/1 20/42/1 19/43/1 15/44/1
f 13/45/1 17/46/1 18/47/1 14/48/1
f 14/48/1 18/47/1 20/42/1 16/41/1
f 15/44/1 19/43/1 17/46/1 13/45/1
f 7/49/6 19/50/6 20/51/6 8/52/6
f 6/53/3 18/54/3 17/55/3 5/56/3
f 8/57/4 20/58/4 18/59/4 6/60/4
f 5/61/5 17/62/5 19/63/5 7/64/5
f 33/65/2 34/66/2 36/67/2 35/68/2
f 37/69/1 39/70/1 40/71/1 38/72/1
f 36/73/6 40/74/6 39/75/6 35/76/6
f 33/77/3 37/78/3 38/79/3 34/80/3
f 34/81/4 38/82/4 40/83/4 36/84/4
f 35/85/5 39/86/5 37/87/5 33/88/5
usemtl door_glass
f 27/89/2 25/90/2 26/91/2 28/92/2
f 31/93/1 32/94/1 30/95/1 29/96/1
