# Blender v2.77 (sub 0) OBJ File: 'hor1.blend'
# www.blender.org
mtllib hor1 room3.mtl
o library_Plane.011
v -1.507151 6.000000 -6.417849
v -0.950000 3.500000 -5.925000
v -1.000000 3.500000 -5.925000
v -0.950000 3.500000 -5.025000
v -6.000000 3.500000 -5.025000
v -1.000000 3.500000 -5.025000
v -0.950000 5.500000 -5.025000
v -0.950000 5.500000 -5.925000
v -6.000000 5.500000 -5.025000
v -1.507151 5.500000 -6.417849
v -1.000000 5.500000 -5.025000
v -6.000000 5.500000 -5.925000
v -1.000000 5.500000 -5.925000
v -0.950000 3.500000 4.025001
v -6.000000 3.500000 4.025001
v -1.000000 3.500000 4.025001
v -0.950000 3.500000 3.125000
v -6.000000 3.500000 3.125000
v -1.000000 3.500000 3.125000
v -0.950000 5.500000 3.125000
v -0.950000 5.500000 4.025001
v -6.000000 5.500000 3.125000
v -1.000000 5.500000 3.125000
v -6.000000 5.500000 4.025001
v -1.000000 5.500000 4.025001
v -1.507151 3.500000 -6.417849
v -1.000000 6.000000 -5.925000
v -6.000000 6.000000 -5.025000
v -1.000000 6.000000 -5.025000
v -6.000000 6.000000 4.025001
v -1.000000 6.000000 4.025001
v -6.000000 6.000000 3.125000
v -1.000000 6.000000 3.125000
v -1.000000 3.500000 -6.417849
v -1.507151 3.500000 -6.925000
v -1.000000 5.500000 -6.417849
v -1.507151 5.802079 -6.925000
v -1.000000 6.000000 -6.417849
v -1.507151 6.000000 -6.727079
v -1.507151 5.802079 -6.727079
v -5.492849 6.000000 -6.417849
v -6.000000 3.500000 -5.925000
v -5.492849 5.500000 -6.417849
v -5.492849 3.500000 -6.417849
v -6.000000 6.000000 -5.925000
v -6.000000 3.500000 -6.417849
v -5.492849 3.500000 -6.925000
v -6.000000 5.500000 -6.417849
v -5.492849 5.802079 -6.925000
v -6.000000 6.000000 -6.417849
v -5.492849 6.000000 -6.727079
v -5.492849 5.802079 -6.727079
v -1.507151 6.000000 4.517849
v -1.507151 5.500000 4.517849
v -1.507151 3.500000 4.517849
v -1.000000 3.500000 4.517849
v -1.507151 3.500000 5.025000
v -1.000000 5.500000 4.517849
v -1.507151 5.802079 5.025000
v -1.000000 6.000000 4.517849
v -1.507151 6.000000 4.827079
v -1.507151 5.802079 4.827079
v -5.492849 6.000000 4.517849
v -5.492849 5.500000 4.517849
v -5.492849 3.500000 4.517849
v -6.000000 3.500000 4.517849
v -5.492849 3.500000 5.025000
v -6.000000 5.500000 4.517849
v -5.492849 5.802079 5.025000
v -6.000000 6.000000 4.517849
v -5.492849 6.000000 4.827079
v -5.492849 5.802079 4.827079
vt 0.3497 0.7754
vt 0.3497 0.8468
vt 0.3005 0.8468
vt 0.3005 0.7754
vt 0.0674 0.1287
vt 0.2641 0.1287
vt 0.2641 0.7754
vt 0.0674 0.7754
vt 0.5464 0.7754
vt 0.3497 0.1287
vt 0.5464 0.1287
vt 0.5464 0.8468
vt 0.9769 0.0182
vt 0.9818 0.0182
vt 0.9818 0.1769
vt 0.9769 0.1769
vt 0.8456 0.5159
vt 0.8506 0.5159
vt 0.8506 0.5873
vt 0.8456 0.5873
vt 0.9782 0.4397
vt 0.9733 0.4397
vt 0.9733 0.2811
vt 0.9782 0.2811
vt 0.0182 0.7754
vt 0.0182 0.1287
vt 0.0674 0.8468
vt 0.0182 0.8468
vt 0.5464 0.0573
vt 0.3497 0.0573
vt 0.9369 0.2811
vt 0.9369 0.4397
vt 0.9320 0.4397
vt 0.9320 0.2811
vt 0.8870 0.5873
vt 0.8870 0.5159
vt 0.8919 0.5159
vt 0.8919 0.5873
vt 0.9404 0.0182
vt 0.9404 0.1769
vt 0.9355 0.1769
vt 0.9355 0.0182
vt 0.0674 0.0182
vt 0.0674 0.0573
vt 0.0182 0.0573
vt 0.0182 0.0182
vt 0.5828 0.8563
vt 0.5828 0.8064
vt 0.7415 0.8064
vt 0.7655 0.8368
vt 0.7655 0.8563
vt 0.3005 0.1287
vt 0.3005 0.0573
vt 0.0182 0.9224
vt 0.1769 0.9224
vt 0.1769 0.9722
vt 0.0182 0.9722
vt 0.2166 0.9224
vt 0.2166 0.9722
vt 0.2641 0.0573
vt 0.2641 0.0182
vt 0.7812 0.8064
vt 0.7812 0.8368
vt 0.3497 0.8859
vt 0.3005 0.8859
vt 0.7812 0.7699
vt 0.5985 0.7699
vt 0.5985 0.7505
vt 0.6225 0.7201
vt 0.7812 0.7201
vt 0.8456 0.2811
vt 0.8955 0.2811
vt 0.8955 0.4397
vt 0.8456 0.4397
vt 0.8955 0.4794
vt 0.8456 0.4794
vt 0.5464 0.8859
vt 0.5828 0.7505
vt 0.5828 0.7201
vt 0.5828 0.0182
vt 0.8990 0.0182
vt 0.8990 0.2446
vt 0.5828 0.2446
vt 0.0674 0.8859
vt 0.0182 0.8859
vt 0.5828 0.8927
vt 0.7655 0.8927
vt 0.7655 0.9122
vt 0.7415 0.9426
vt 0.5828 0.9426
vt 0.7812 0.6337
vt 0.7812 0.6836
vt 0.6225 0.6836
vt 0.6225 0.6337
vt 0.5828 0.6836
vt 0.5828 0.6337
vt 0.2641 0.8468
vt 0.2641 0.8859
vt 0.7812 0.9122
vt 0.7812 0.9426
vt 0.3497 0.0182
vt 0.3005 0.0182
vt 0.8176 0.6337
vt 0.8675 0.6337
vt 0.8675 0.7924
vt 0.8371 0.8164
vt 0.8176 0.8164
vt 0.9538 0.6337
vt 0.9538 0.7924
vt 0.9039 0.7924
vt 0.9039 0.6337
vt 0.9538 0.8321
vt 0.9039 0.8321
vt 0.5464 0.0182
vt 0.8675 0.8321
vt 0.8371 0.8321
vt 0.5828 0.2811
vt 0.8092 0.2811
vt 0.8092 0.5973
vt 0.5828 0.5973
vt 0.8559 0.8455
vt 0.0101 0.8455
vt 0.0101 0.1545
vt 0.8559 0.1545
vt 0.8559 0.9219
vt 0.0101 0.9219
vt 0.0101 0.0781
vt 0.8559 0.0781
vt 0.0959 0.9637
vt 0.0101 0.9637
vt 0.8559 0.9637
vt 0.7702 0.9637
vt 0.7702 0.9899
vt 0.0959 0.9899
vt 0.9097 0.7063
vt 0.8762 0.7063
vt 0.8762 0.3684
vt 0.9097 0.3684
vt 0.9299 0.7063
vt 0.9299 0.3684
vt 0.9634 0.3684
vt 0.9634 0.7063
vt 0.0959 0.0363
vt 0.7702 0.0363
vt 0.8559 0.0363
vt 0.0101 0.0363
vt 0.0959 0.0101
vt 0.7702 0.0101
vt 0.9097 0.0101
vt 0.9097 0.3481
vt 0.8762 0.3481
vt 0.8762 0.0101
vt 0.9299 0.0101
vt 0.9634 0.0101
vt 0.9634 0.3481
vt 0.9299 0.3481
vt 0.9757 0.8310
vt 0.9757 0.9041
vt 0.0147 0.9041
vt 0.0147 0.8310
vt 0.9853 0.9041
vt 0.9853 0.8310
vt 0.9757 0.1690
vt 0.0147 0.1690
vt 0.0147 0.0959
vt 0.9757 0.0959
vt 0.9853 0.0959
vt 0.9853 0.1690
vt 0.1121 0.9441
vt 0.8782 0.9441
vt 0.8782 0.9853
vt 0.1121 0.9853
vt 0.9757 0.9441
vt 0.0147 0.9441
vt 0.1121 0.0559
vt 0.1121 0.0147
vt 0.8782 0.0147
vt 0.8782 0.0559
vt 0.9757 0.0559
vt 0.0147 0.0559
vn 1.0000 0.0000 0.0000
vn -1.0000 0.0000 0.0000
vn 0.0000 0.0000 -1.0000
vn 0.0000 -1.0000 0.0000
vn 0.0000 0.0000 1.0000
vn 0.0000 1.0000 0.0000
usemtl room3_wall
s off
f 9/1/1 12/2/1 45/3/1 28/4/1
f 11/5/2 6/6/2 19/7/2 23/8/2
f 5/9/1 9/1/1 22/10/1 18/11/1
f 42/12/1 12/2/1 9/1/1 5/9/1
f 4/13/3 6/14/3 11/15/3 7/16/3
f 7/17/4 11/18/4 13/19/4 8/20/4
f 8/21/5 13/22/5 3/23/5 2/24/5
f 11/5/2 23/8/2 33/25/2 29/26/2
f 23/8/2 25/27/2 31/28/2 33/25/2
f 15/29/1 18/11/1 22/10/1 24/30/1
f 17/31/5 20/32/5 23/33/5 19/34/5
f 20/35/4 21/36/4 25/37/4 23/38/4
f 21/39/3 14/40/3 16/41/3 25/42/3
f 36/43/2 13/44/2 27/45/2 38/46/2
f 35/47/2 26/48/2 10/49/2 40/50/2 37/51/2
f 24/30/1 22/10/1 32/52/1 30/53/1
f 13/44/2 11/5/2 29/26/2 27/45/2
f 22/10/1 9/1/1 28/4/1 32/52/1
f 34/54/5 36/55/5 10/56/5 26/57/5
f 36/55/5 38/58/5 1/59/5 10/56/5
f 3/60/2 13/44/2 36/43/2 34/61/2
f 10/49/2 1/62/2 39/63/2 40/50/2
f 48/64/1 50/65/1 45/3/1 12/2/1
f 47/66/1 49/67/1 52/68/1 43/69/1 44/70/1
f 46/71/5 44/72/5 43/73/5 48/74/5
f 48/74/5 43/73/5 41/75/5 50/76/5
f 42/12/1 46/77/1 48/64/1 12/2/1
f 43/69/1 52/68/1 51/78/1 41/79/1
f 47/80/5 35/81/5 37/82/5 49/83/5
f 58/84/2 60/85/2 31/28/2 25/27/2
f 57/86/2 59/87/2 62/88/2 54/89/2 55/90/2
f 56/91/3 55/92/3 54/93/3 58/94/3
f 58/94/3 54/93/3 53/95/3 60/96/3
f 16/97/2 56/98/2 58/84/2 25/27/2
f 54/89/2 62/88/2 61/99/2 53/100/2
f 68/101/1 24/30/1 30/53/1 70/102/1
f 67/103/1 65/104/1 64/105/1 72/106/1 69/107/1
f 66/108/3 68/109/3 64/110/3 65/111/3
f 68/109/3 70/112/3 63/113/3 64/110/3
f 15/29/1 24/30/1 68/101/1 66/114/1
f 64/105/1 63/115/1 71/116/1 72/106/1
f 67/117/3 69/118/3 59/119/3 57/120/3
usemtl room3_ceiling
f 28/121/4 29/122/4 33/123/4 32/124/4
f 29/122/4 28/121/4 45/125/4 27/126/4
f 33/123/4 31/127/4 30/128/4 32/124/4
f 1/129/4 38/130/4 27/126/4 45/125/4 50/131/4 41/132/4
f 1/129/4 41/132/4 51/133/4 39/134/4
f 40/135/5 39/136/5 51/137/5 52/138/5
f 49/139/4 37/140/4 40/141/4 52/142/4
f 53/143/4 63/144/4 70/145/4 30/128/4 31/127/4 60/146/4
f 53/143/4 61/147/4 71/148/4 63/144/4
f 62/149/3 72/150/3 71/151/3 61/152/3
f 69/153/4 72/154/4 62/155/4 59/156/4
usemtl room3_floor
f 6/157/6 3/158/6 42/159/6 5/160/6
f 2/161/6 3/158/6 6/157/6 4/162/6
f 19/163/6 18/164/6 15/165/6 16/166/6
f 6/157/6 5/160/6 18/164/6 19/163/6
f 14/167/6 17/168/6 19/163/6 16/166/6
f 44/169/6 26/170/6 35/171/6 47/172/6
f 34/173/6 26/170/6 44/169/6 46/174/6 42/159/6 3/158/6
f 65/175/6 67/176/6 57/177/6 55/178/6
f 56/179/6 16/166/6 15/165/6 66/180/6 65/175/6 55/178/6
