# Blender v2.77 (sub 0) OBJ File: 'hor1.blend'
# www.blender.org
mtllib hor1 itembox 1.mtl
o itembox_1_Cube
v -6.000000 0.950000 -0.175000
v -6.000000 1.450000 -0.175000
v -6.000000 0.950000 -0.675000
v -6.000000 1.450000 -0.675000
v -5.750000 0.960000 -0.185000
v -5.750000 1.440000 -0.185000
v -5.750000 0.960000 -0.665000
v -5.750000 1.440000 -0.665000
v -5.750000 1.450000 -0.675000
v -5.750000 0.950000 -0.675000
v -5.750000 1.450000 -0.175000
v -5.750000 0.950000 -0.175000
v -5.950000 0.960000 -0.185000
v -5.950000 1.440000 -0.185000
v -5.950000 0.960000 -0.665000
v -5.950000 1.440000 -0.665000
v -5.700138 1.227313 -0.173033
v -5.700138 1.172687 -0.173033
v -5.700138 1.227313 -0.174970
v -5.700138 1.172687 -0.174970
v -5.814052 1.237450 -0.173033
v -5.814052 1.162550 -0.173033
v -5.814052 1.237450 -0.174970
v -5.814052 1.162550 -0.174970
v -5.728916 1.172687 -0.174970
v -5.728916 1.172687 -0.173033
v -5.728916 1.227313 -0.174970
v -5.728916 1.227313 -0.173033
v -5.690000 1.237450 -0.173033
v -5.690000 1.162550 -0.173033
v -5.690000 1.237450 -0.174970
v -5.690000 1.162550 -0.174970
v -5.739123 1.162550 -0.173033
v -5.739123 1.162550 -0.174970
v -5.739123 1.237450 -0.174970
v -5.739123 1.237450 -0.173033
vt 0.5823 0.3970
vt 0.4329 0.3970
vt 0.4329 0.0179
vt 0.5823 0.0179
vt 0.5524 0.6182
vt 0.5524 0.9821
vt 0.4329 0.9821
vt 0.4329 0.6182
vt 0.7676 0.3970
vt 0.6182 0.3970
vt 0.6182 0.0179
vt 0.7676 0.0179
vt 0.8035 0.3970
vt 0.8035 0.0179
vt 0.9530 0.0179
vt 0.9530 0.3970
vt 0.4329 0.4329
vt 0.8119 0.4329
vt 0.8119 0.5823
vt 0.4329 0.5823
vt 0.0255 0.0239
vt 0.0255 0.3109
vt 0.0179 0.3168
vt 0.0179 0.0179
vt 0.3894 0.0239
vt 0.3970 0.0179
vt 0.3894 0.3109
vt 0.3970 0.3168
vt 0.0179 0.3527
vt 0.3049 0.3527
vt 0.3049 0.7166
vt 0.0179 0.7166
vt 0.0179 0.7525
vt 0.3818 0.7525
vt 0.3818 0.8720
vt 0.0179 0.8720
vt 0.5883 0.9821
vt 0.5883 0.6182
vt 0.7079 0.6182
vt 0.7079 0.9821
vt 0.9673 0.4329
vt 0.9673 0.7967
vt 0.8478 0.7967
vt 0.8478 0.4329
vt 0.3790 0.6694
vt 0.3778 0.6694
vt 0.3778 0.6126
vt 0.3790 0.6126
vt 0.7449 0.6182
vt 0.7449 0.6750
vt 0.7437 0.6750
vt 0.7437 0.6182
vt 0.3408 0.6694
vt 0.3408 0.6126
vt 0.3419 0.6126
vt 0.3419 0.6694
vt 0.3408 0.4095
vt 0.3408 0.3527
vt 0.3856 0.3527
vt 0.3856 0.4095
vt 0.3867 0.3527
vt 0.3867 0.4095
vt 0.3408 0.5395
vt 0.3408 0.4827
vt 0.3856 0.4827
vt 0.3856 0.5395
vt 0.3856 0.4468
vt 0.3867 0.4468
vt 0.3408 0.7066
vt 0.3419 0.7066
vt 0.3468 0.5690
vt 0.3795 0.5690
vt 0.3856 0.5767
vt 0.3408 0.5767
vt 0.3468 0.4391
vt 0.3795 0.4391
vt 0.3408 0.4468
vt 0.3795 0.5472
vt 0.3468 0.4173
vt 0.3795 0.4173
vt 0.3468 0.5472
vt 0.7808 0.7532
vt 0.7819 0.7532
vt 0.7819 0.7750
vt 0.7808 0.7750
vt 0.7449 0.7523
vt 0.7437 0.7523
vt 0.7437 0.7109
vt 0.7449 0.7109
vt 0.7819 0.7173
vt 0.7808 0.7173
vt 0.7808 0.6955
vt 0.7819 0.6955
vt 0.7819 0.6596
vt 0.7808 0.6596
vt 0.7808 0.6182
vt 0.7819 0.6182
vn 0.0000 0.7071 -0.7071
vn 0.5773 0.5773 -0.5773
vn 0.5773 -0.5773 -0.5773
vn 0.0000 -0.7071 -0.7071
vn 0.9045 0.3015 0.3015
vn 0.9045 -0.3015 0.3015
vn 0.5773 -0.5773 0.5773
vn 0.5773 0.5773 0.5773
vn 0.0000 0.7071 0.7071
vn 0.0000 -0.7071 0.7071
vn 0.9045 -0.3015 -0.3015
vn 0.9045 0.3015 -0.3015
vn -0.5773 -0.5773 0.5773
vn -0.5773 0.5773 0.5773
vn -0.5773 0.5773 -0.5773
vn -0.5773 -0.5773 -0.5773
vn -0.3015 -0.3015 0.9045
vn -0.3015 0.3015 0.9045
vn -0.3015 0.3015 -0.9045
vn -0.3015 -0.3015 -0.9045
vn 0.3015 0.3015 0.9045
vn 0.3015 0.3015 -0.9045
vn 0.3015 -0.3015 -0.9045
vn 0.3015 -0.3015 0.9045
usemtl itembox1
s 1
f 4/1/1 9/2/2 10/3/3 3/4/4
f 7/5/5 8/6/6 16/7/7 15/8/8
f 11/9/8 2/10/9 1/11/10 12/12/7
f 1/13/10 3/14/4 10/15/3 12/16/7
f 11/17/8 9/18/2 4/19/1 2/20/9
f 8/21/6 7/22/5 10/23/3 9/24/2
f 6/25/11 8/21/6 9/24/2 11/26/8
f 5/27/12 6/25/11 11/26/8 12/28/7
f 7/22/5 5/27/12 12/28/7 10/23/3
f 16/29/7 14/30/3 13/31/2 15/32/8
f 5/33/12 7/34/5 15/35/8 13/36/2
f 8/37/6 6/38/11 14/39/3 16/40/7
f 6/41/11 5/42/12 13/43/2 14/44/3
f 30/45/7 32/46/3 31/47/2 29/48/8
f 22/49/13 21/50/14 23/51/15 24/52/16
f 33/53/10 22/54/13 24/55/16 34/56/4
f 34/57/4 24/58/16 23/59/15 35/60/1
f 35/60/1 23/59/15 21/61/14 36/62/9
f 36/63/9 21/64/14 22/65/13 33/66/10
f 31/67/2 35/60/1 36/62/9 29/68/8
f 30/69/7 33/53/10 34/56/4 32/70/3
f 17/71/17 18/72/18 30/73/7 29/74/8
f 20/75/19 19/76/20 31/67/2 32/77/3
f 18/72/18 26/78/21 33/66/10 30/73/7
f 25/79/22 20/75/19 32/77/3 34/57/4
f 19/76/20 27/80/23 35/60/1 31/67/2
f 28/81/24 17/71/17 29/74/8 36/63/9
f 26/78/21 28/81/24 36/63/9 33/66/10
f 27/80/23 25/79/22 34/57/4 35/60/1
f 18/82/18 20/83/19 25/84/22 26/85/21
f 26/86/21 25/87/22 27/88/23 28/89/24
f 28/90/24 27/91/23 19/92/20 17/93/17
f 17/94/17 19/95/20 20/96/19 18/97/18
o itembox_1_cover_Cube.001
v -5.750000 1.447668 -0.672668
v -5.750000 0.952332 -0.672668
v -5.750000 1.447668 -0.177332
v -5.750000 0.952332 -0.177332
v -5.740000 1.447668 -0.672668
v -5.740000 0.952332 -0.672668
v -5.740000 1.447668 -0.177332
v -5.740000 0.952332 -0.177332
v -5.728916 1.227313 -0.177332
v -5.728916 1.172687 -0.177332
v -5.700138 1.227313 -0.177332
v -5.700138 1.172687 -0.177332
v -5.740000 1.237450 -0.277332
v -5.740000 1.162550 -0.277332
v -5.728916 1.227313 -0.179365
v -5.728916 1.172687 -0.179365
v -5.700138 1.227313 -0.179295
v -5.700138 1.172687 -0.179295
v -5.738063 1.237450 -0.277332
v -5.738063 1.162550 -0.277332
v -5.740000 1.237450 -0.177332
v -5.740000 1.162550 -0.177332
v -5.690000 1.237450 -0.177332
v -5.690000 1.162550 -0.177332
v -5.737967 1.237450 -0.179390
v -5.737967 1.162550 -0.179390
v -5.690000 1.237450 -0.179269
v -5.690000 1.162550 -0.179269
v -5.664865 1.361609 -0.641242
v -5.705805 0.948515 -0.591266
v -5.683675 1.389420 -0.178640
v -5.718161 0.971908 -0.193138
v -5.719475 1.258296 -0.655913
v -5.734455 1.116866 -0.640192
v -5.691484 1.393108 -0.491678
v -5.697498 1.402910 -0.335709
v -5.724587 1.269613 -0.187342
v -5.732263 1.121014 -0.189016
v -5.733113 0.959912 -0.341355
v -5.727161 0.955105 -0.476588
v -5.736334 1.118523 -0.490427
v -5.738811 1.119245 -0.344722
v -5.728624 1.268475 -0.501317
v -5.731629 1.273797 -0.344495
vt 0.4751 0.4758
vt 0.0245 0.4758
vt 0.0245 0.0245
vt 0.4751 0.0245
vt 0.9744 0.4755
vt 0.5242 0.4751
vt 0.5242 0.0245
vt 0.9744 0.0249
vt 0.0245 0.9755
vt 0.0245 0.5249
vt 0.0336 0.5249
vt 0.0336 0.9755
vt 0.0918 0.5249
vt 0.0918 0.9755
vt 0.0827 0.9755
vt 0.0827 0.5249
vt 0.1500 0.5249
vt 0.1500 0.9755
vt 0.1409 0.9755
vt 0.1409 0.5249
vt 0.2082 0.5249
vt 0.2082 0.9755
vt 0.1991 0.9755
vt 0.1991 0.5249
vt 0.2573 0.5249
vt 0.3255 0.5249
vt 0.3255 0.6159
vt 0.2573 0.6159
vt 0.4427 0.5250
vt 0.4427 0.6140
vt 0.3746 0.6140
vt 0.3746 0.5249
vt 0.2573 0.7559
vt 0.2573 0.7541
vt 0.3010 0.7540
vt 0.3028 0.7559
vt 0.4692 0.7803
vt 0.4710 0.7803
vt 0.4710 0.8483
vt 0.4692 0.8483
vt 0.3746 0.6631
vt 0.3764 0.6631
vt 0.3765 0.7522
vt 0.3746 0.7541
vt 0.4710 0.7312
vt 0.4692 0.7312
vt 0.4692 0.6631
vt 0.4710 0.6631
vt 0.4202 0.7523
vt 0.4202 0.7541
vt 0.3011 0.6649
vt 0.3028 0.6649
vt 0.3847 0.8124
vt 0.3847 0.8621
vt 0.3746 0.8713
vt 0.3746 0.8032
vt 0.4109 0.8621
vt 0.4109 0.8124
vt 0.4202 0.8032
vt 0.4202 0.8713
vt 0.2655 0.8142
vt 0.2655 0.8639
vt 0.2573 0.8731
vt 0.2573 0.8050
vt 0.2918 0.8639
vt 0.2918 0.8142
vt 0.3010 0.8050
vt 0.3010 0.8731
vt 0.2573 0.9750
vt 0.2573 0.9731
vt 0.2835 0.9732
vt 0.2835 0.9750
vt 0.3764 0.9701
vt 0.3746 0.9701
vt 0.3746 0.9204
vt 0.3764 0.9204
vt 0.2835 0.9222
vt 0.2835 0.9240
vt 0.2573 0.9240
vt 0.2573 0.9222
vt 0.4692 0.8974
vt 0.4711 0.8974
vt 0.4711 0.9470
vt 0.4692 0.9470
vt 0.6433 0.6789
vt 0.5242 0.6667
vt 0.5410 0.5246
vt 0.6521 0.5363
vt 0.9286 0.6871
vt 0.7841 0.6845
vt 0.7875 0.5430
vt 0.9219 0.5521
vt 0.9286 0.9149
vt 0.7757 0.9532
vt 0.7795 0.8170
vt 0.9279 0.8103
vt 0.6458 0.9626
vt 0.6425 0.8217
vt 0.5491 0.9462
vt 0.5273 0.8089
vn -0.5773 -0.5773 -0.5773
vn -0.5773 -0.5773 0.5773
vn -0.5773 0.5773 0.5773
vn -0.5773 0.5773 -0.5773
vn 0.5773 -0.5773 -0.5773
vn 0.5773 0.5773 -0.5773
vn 0.5773 0.5773 0.5773
vn 0.5773 -0.5773 0.5773
vn 0.3024 -0.9041 -0.3019
vn 0.5770 -0.5774 -0.5776
vn 0.5770 0.5774 -0.5776
vn 0.3024 0.9041 -0.3019
vn 0.5780 0.5774 -0.5766
vn 0.5780 -0.5774 -0.5766
vn 0.3015 0.3015 0.9045
vn 0.3015 -0.3015 0.9045
vn -0.3015 -0.3015 0.9045
vn -0.3015 0.3015 0.9045
vn 0.3037 -0.3009 -0.9040
vn 0.3037 0.3009 -0.9040
vn -0.2994 0.3022 -0.9050
vn -0.2994 -0.3022 -0.9050
vn 0.9860 -0.1661 -0.0146
vn 0.9602 -0.2785 -0.0217
vn 0.9559 -0.2826 -0.0793
vn 0.9837 -0.1685 -0.0622
vn 0.9982 0.0557 -0.0210
vn 0.9998 0.0038 -0.0169
vn 0.9983 0.0067 -0.0583
vn 0.9952 0.0641 -0.0733
vn 0.9883 0.1283 0.0828
vn 0.9982 0.0147 0.0585
vn 0.9990 0.0146 0.0430
vn 0.9946 0.0872 0.0555
vn 0.9690 -0.2265 0.0985
vn 0.9774 -0.2001 0.0679
vn 0.9098 -0.3832 0.1595
vn 0.9417 -0.3230 0.0939
usemtl itembox1_cover
s 1
f 38/98/25 40/99/26 39/100/27 37/101/28
f 42/102/29 41/103/30 43/104/31 44/105/32
f 39/106/27 40/107/26 44/108/32 43/109/31
f 38/110/25 37/111/28 41/112/30 42/113/29
f 40/114/26 38/115/25 42/116/29 44/117/32
f 37/118/28 39/119/27 43/120/31 41/121/30
f 58/122/26 57/123/27 49/124/28 50/125/25
f 62/126/33 56/127/34 55/128/35 61/129/36
f 59/130/31 63/131/37 61/132/36 57/133/27
f 60/134/32 64/135/38 63/136/37 59/137/31
f 50/138/25 56/139/34 62/140/33 58/141/26
f 49/142/28 55/143/35 56/144/34 50/145/25
f 58/141/26 62/140/33 64/146/38 60/147/32
f 57/133/27 61/132/36 55/148/35 49/149/28
f 46/150/39 45/151/40 57/152/27 58/153/26
f 47/154/41 48/155/42 60/156/32 59/157/31
f 48/155/42 46/150/39 58/153/26 60/156/32
f 45/151/40 47/154/41 59/157/31 57/152/27
f 51/158/43 52/159/44 62/160/33 61/161/36
f 54/162/45 53/163/46 63/164/37 64/165/38
f 52/159/44 54/162/45 64/165/38 62/160/33
f 53/163/46 51/158/43 61/161/36 63/164/37
f 45/166/40 51/167/43 53/168/46 47/169/41
f 47/170/41 53/171/46 54/172/45 48/173/42
f 48/174/42 54/175/45 52/176/44 46/177/39
f 46/178/39 52/179/44 51/180/43 45/181/40
f 80/182/47 72/183/48 67/184/49 73/185/50
f 75/186/51 78/187/52 74/188/53 68/189/54
f 78/187/52 80/182/47 73/185/50 74/188/53
f 66/190/55 70/191/56 77/192/57 76/193/58
f 76/193/58 77/192/57 78/187/52 75/186/51
f 70/191/56 69/194/59 79/195/60 77/192/57
f 77/192/57 79/195/60 80/182/47 78/187/52
f 69/194/59 65/196/61 71/197/62 79/195/60
f 79/195/60 71/197/62 72/183/48 80/182/47
