# Blender v2.77 (sub 0) OBJ File: 'hor1.blend'
# www.blender.org
mtllib hor2 tablelong.mtl
o Plane.003_room_2A_table
v -5.074543 0.700000 1.175000
v -1.925457 0.700000 1.175000
v -5.074543 0.700000 0.575000
v -1.925457 0.700000 0.575000
v -5.074543 0.670000 1.175000
v -1.925457 0.670000 1.175000
v -5.074543 0.670000 0.575000
v -1.925457 0.670000 0.575000
v -4.999543 0.670000 0.664850
v -4.949543 0.670000 0.664850
v -4.999543 0.670000 0.614850
v -4.949543 0.670000 0.614850
v -4.999543 0.000000 0.664850
v -4.949543 0.000000 0.664850
v -4.999543 0.000000 0.614850
v -4.949543 0.000000 0.614850
v -2.000457 0.670000 0.664850
v -2.050457 0.670000 0.664850
v -2.000457 0.670000 0.614850
v -2.050457 0.670000 0.614850
v -2.000457 0.000000 0.664850
v -2.050457 0.000000 0.664850
v -2.000457 0.000000 0.614850
v -2.050457 0.000000 0.614850
v -4.999543 0.670000 1.085150
v -4.949543 0.670000 1.085150
v -4.999543 0.670000 1.135150
v -4.949543 0.670000 1.135150
v -4.999543 0.000000 1.085150
v -4.949543 0.000000 1.085150
v -4.999543 0.000000 1.135150
v -4.949543 0.000000 1.135150
v -2.000457 0.670000 1.085150
v -2.050457 0.670000 1.085150
v -2.000457 0.670000 1.135150
v -2.050457 0.670000 1.135150
v -2.000457 0.000000 1.085150
v -2.050457 0.000000 1.085150
v -2.000457 0.000000 1.135150
v -2.050457 0.000000 1.135150
v -4.974543 0.152837 0.664850
v -4.986783 0.159903 0.664850
v -4.986783 0.174036 0.664850
v -4.974543 0.181103 0.664850
v -4.962304 0.174036 0.664850
v -4.962304 0.159903 0.664850
v -4.974543 0.152837 1.085150
v -4.986783 0.159903 1.085150
v -4.986783 0.174036 1.085150
v -4.974543 0.181103 1.085150
v -4.962304 0.174036 1.085150
v -4.962304 0.159903 1.085150
v -2.025457 0.152837 0.664850
v -2.013217 0.159903 0.664850
v -2.013217 0.174036 0.664850
v -2.025457 0.181103 0.664850
v -2.037696 0.174036 0.664850
v -2.037696 0.159903 0.664850
v -2.025457 0.152837 1.085150
v -2.013217 0.159903 1.085150
v -2.013217 0.174036 1.085150
v -2.025457 0.181103 1.085150
v -2.037696 0.174036 1.085150
v -2.037696 0.159903 1.085150
v -4.994267 0.493223 0.664850
v -4.640714 0.670000 0.664850
v -4.994267 0.549320 0.664850
v -4.752907 0.670000 0.664850
v -2.005733 0.493223 0.664850
v -2.359286 0.670000 0.664850
v -2.005733 0.549320 0.664850
v -2.247093 0.670000 0.664850
v -4.994267 0.493223 0.671323
v -4.640714 0.670000 0.671323
v -4.994267 0.549320 0.671323
v -4.752907 0.670000 0.671323
v -2.005733 0.493223 0.671323
v -2.359286 0.670000 0.671323
v -2.005733 0.549320 0.671323
v -2.247093 0.670000 0.671323
v -4.994267 0.493223 1.085150
v -4.640714 0.670000 1.085150
v -4.994267 0.549320 1.085150
v -4.752907 0.670000 1.085150
v -2.005733 0.493223 1.085150
v -2.359286 0.670000 1.085150
v -2.005733 0.549320 1.085150
v -2.247093 0.670000 1.085150
v -4.994267 0.493223 1.078677
v -4.640714 0.670000 1.078677
v -4.994267 0.549320 1.078677
v -4.752907 0.670000 1.078677
v -2.005733 0.493223 1.078677
v -2.359286 0.670000 1.078677
v -2.005733 0.549320 1.078677
v -2.247093 0.670000 1.078677
vt 0.5986 0.0126
vt 0.5986 0.8831
vt 0.3181 0.8831
vt 0.3181 0.0126
vt 0.0126 0.0126
vt 0.2930 0.0126
vt 0.2930 0.8831
vt 0.0126 0.8831
vt 0.6769 0.8831
vt 0.6629 0.8831
vt 0.6629 0.0126
vt 0.6769 0.0126
vt 0.9101 0.3694
vt 0.8960 0.3694
vt 0.8960 0.2036
vt 0.9101 0.2036
vt 0.9101 0.1784
vt 0.8960 0.1784
vt 0.8960 0.0126
vt 0.9101 0.0126
vt 0.6377 0.8831
vt 0.6237 0.8831
vt 0.6237 0.0126
vt 0.6377 0.0126
vt 0.7739 0.6436
vt 0.7739 0.8288
vt 0.7505 0.8288
vt 0.7505 0.6436
vt 0.8475 0.6185
vt 0.8475 0.4333
vt 0.8709 0.4333
vt 0.8709 0.6185
vt 0.7020 0.1978
vt 0.7020 0.0126
vt 0.7254 0.0126
vt 0.7254 0.1978
vt 0.7990 0.6185
vt 0.7990 0.4333
vt 0.8224 0.4333
vt 0.8224 0.6185
vt 0.0359 0.9538
vt 0.0126 0.9538
vt 0.0126 0.9400
vt 0.0359 0.9400
vt 0.8709 0.8288
vt 0.8475 0.8288
vt 0.8475 0.6436
vt 0.8709 0.6436
vt 0.7505 0.0126
vt 0.7739 0.0126
vt 0.7739 0.1978
vt 0.7505 0.1978
vt 0.8224 0.1978
vt 0.7990 0.1978
vt 0.7990 0.0126
vt 0.8224 0.0126
vt 0.8224 0.8288
vt 0.7990 0.8288
vt 0.7990 0.6436
vt 0.8224 0.6436
vt 0.1096 0.9538
vt 0.1096 0.9400
vt 0.1330 0.9400
vt 0.1330 0.9538
vt 0.7020 0.6436
vt 0.7254 0.6436
vt 0.7254 0.8288
vt 0.7020 0.8288
vt 0.8709 0.4081
vt 0.8475 0.4081
vt 0.8475 0.2229
vt 0.8709 0.2229
vt 0.7254 0.4081
vt 0.7020 0.4081
vt 0.7020 0.2229
vt 0.7254 0.2229
vt 0.7254 0.6185
vt 0.7020 0.6185
vt 0.7020 0.4333
vt 0.7254 0.4333
vt 0.0844 0.9400
vt 0.0844 0.9538
vt 0.0611 0.9538
vt 0.0611 0.9400
vt 0.7505 0.4081
vt 0.7505 0.2229
vt 0.7739 0.2229
vt 0.7739 0.4081
vt 0.8709 0.0126
vt 0.8709 0.1978
vt 0.8475 0.1978
vt 0.8475 0.0126
vt 0.7990 0.4081
vt 0.7990 0.2229
vt 0.8224 0.2229
vt 0.8224 0.4081
vt 0.7505 0.6185
vt 0.7505 0.4333
vt 0.7739 0.4333
vt 0.7739 0.6185
vt 0.8960 0.6047
vt 0.9194 0.6047
vt 0.9194 0.6185
vt 0.8960 0.6185
vt 0.9808 0.4333
vt 0.9874 0.4333
vt 0.9874 0.5495
vt 0.9808 0.5495
vt 0.7682 0.8540
vt 0.7739 0.8540
vt 0.7739 0.9702
vt 0.7682 0.9702
vt 0.9557 0.5495
vt 0.9500 0.5495
vt 0.9500 0.4333
vt 0.9557 0.4333
vt 0.9442 0.5495
vt 0.9442 0.4333
vt 0.7624 0.8540
vt 0.7624 0.9702
vt 0.0126 0.9148
vt 0.0126 0.9082
vt 0.1288 0.9082
vt 0.1288 0.9148
vt 0.8476 0.9702
vt 0.8476 0.8540
vt 0.8542 0.8540
vt 0.8542 0.9702
vt 0.9500 0.6436
vt 0.9500 0.7598
vt 0.9442 0.7598
vt 0.9442 0.6436
vt 0.9442 0.9011
vt 0.9442 0.7850
vt 0.9500 0.7850
vt 0.9500 0.9011
vt 0.9557 0.7850
vt 0.9557 0.9011
vt 0.9557 0.6436
vt 0.9557 0.7598
vt 0.1539 0.9082
vt 0.2701 0.9082
vt 0.2701 0.9148
vt 0.1539 0.9148
vt 0.9352 0.1132
vt 0.9352 0.0374
vt 0.9583 0.0126
vt 0.9583 0.1237
vt 0.9352 0.1557
vt 0.9587 0.1488
vt 0.9587 0.2581
vt 0.9352 0.2303
vt 0.7020 0.8609
vt 0.7255 0.8540
vt 0.7255 0.9633
vt 0.7020 0.9355
vt 0.9191 0.4437
vt 0.9191 0.5195
vt 0.8960 0.5444
vt 0.8960 0.4333
vt 0.6387 0.9082
vt 0.6387 0.9113
vt 0.5410 0.9113
vt 0.5410 0.9082
vt 0.3262 0.9364
vt 0.3262 0.9394
vt 0.2952 0.9394
vt 0.2952 0.9364
vt 0.5158 0.9364
vt 0.5158 0.9394
vt 0.4181 0.9394
vt 0.4181 0.9364
vt 0.8991 0.9316
vt 0.8960 0.9316
vt 0.8960 0.9161
vt 0.8991 0.9161
vt 0.6077 0.9364
vt 0.6077 0.9394
vt 0.5410 0.9394
vt 0.5410 0.9364
vt 0.9442 0.9263
vt 0.9473 0.9263
vt 0.9473 0.9418
vt 0.9442 0.9418
vt 0.3930 0.9364
vt 0.3930 0.9394
vt 0.6387 0.9364
vt 0.6387 0.9394
vt 0.7990 0.8609
vt 0.8225 0.8540
vt 0.8225 0.9633
vt 0.7990 0.9355
vt 0.8960 0.7443
vt 0.8960 0.6685
vt 0.9191 0.6436
vt 0.9191 0.7547
vt 0.8960 0.8805
vt 0.8960 0.8047
vt 0.9191 0.7799
vt 0.9191 0.8909
vt 0.9352 0.2901
vt 0.9587 0.2832
vt 0.9587 0.3925
vt 0.9352 0.3647
vt 0.5158 0.9113
vt 0.4181 0.9113
vt 0.4181 0.9082
vt 0.5158 0.9082
vt 0.3619 0.9082
vt 0.3930 0.9082
vt 0.3930 0.9113
vt 0.3619 0.9113
vt 0.9808 0.8827
vt 0.9808 0.7850
vt 0.9839 0.7850
vt 0.9839 0.8827
vt 0.9445 0.6185
vt 0.9445 0.6030
vt 0.9476 0.6030
vt 0.9476 0.6185
vt 0.9839 0.6746
vt 0.9839 0.7414
vt 0.9808 0.7414
vt 0.9808 0.6746
vt 0.6669 0.9082
vt 0.6669 0.9238
vt 0.6638 0.9238
vt 0.6638 0.9082
vt 0.2952 0.9082
vt 0.2952 0.9113
vt 0.9839 0.6436
vt 0.9808 0.6436
vn 0.0000 1.0000 0.0000
vn 0.0000 -1.0000 0.0000
vn 0.0000 0.0000 1.0000
vn 1.0000 0.0000 0.0000
vn -1.0000 0.0000 0.0000
vn 0.0000 0.0000 -1.0000
vn -0.5000 0.8660 0.0000
vn -0.5000 -0.8660 0.0000
vn 0.5000 -0.8660 0.0000
vn 0.5000 0.8660 0.0000
vn -0.4472 -0.8944 0.0000
vn 0.4472 -0.8944 0.0000
vn 0.4472 0.8944 0.0000
vn -0.4472 0.8944 0.0000
usemtl None
s off
f 1/1/1 2/2/1 4/3/1 3/4/1
f 5/5/2 7/6/2 8/7/2 6/8/2
f 1/9/3 5/10/3 6/11/3 2/12/3
f 2/13/4 6/14/4 8/15/4 4/16/4
f 3/17/5 7/18/5 5/19/5 1/20/5
f 4/21/6 8/22/6 7/23/6 3/24/6
f 10/25/4 14/26/4 16/27/4 12/28/4
f 11/29/5 15/30/5 13/31/5 9/32/5
f 12/33/6 16/34/6 15/35/6 11/36/6
f 9/37/3 13/38/3 14/39/3 10/40/3
f 15/41/2 16/42/2 14/43/2 13/44/2
f 18/45/5 20/46/5 24/47/5 22/48/5
f 19/49/4 17/50/4 21/51/4 23/52/4
f 20/53/6 19/54/6 23/55/6 24/56/6
f 17/57/3 18/58/3 22/59/3 21/60/3
f 23/61/2 21/62/2 22/63/2 24/64/2
f 26/65/4 28/66/4 32/67/4 30/68/4
f 27/69/5 25/70/5 29/71/5 31/72/5
f 28/73/3 27/74/3 31/75/3 32/76/3
f 25/77/6 26/78/6 30/79/6 29/80/6
f 31/81/2 29/82/2 30/83/2 32/84/2
f 34/85/5 38/86/5 40/87/5 36/88/5
f 35/89/4 39/90/4 37/91/4 33/92/4
f 36/93/3 40/94/3 39/95/3 35/96/3
f 33/97/6 37/98/6 38/99/6 34/100/6
f 39/101/2 40/102/2 38/103/2 37/104/2
f 46/105/4 45/106/4 51/107/4 52/108/4
f 44/109/7 43/110/7 49/111/7 50/112/7
f 42/113/8 41/114/8 47/115/8 48/116/8
f 41/114/9 46/117/9 52/118/9 47/115/9
f 45/119/10 44/109/10 50/112/10 51/120/10
f 43/121/5 42/122/5 48/123/5 49/124/5
f 58/125/5 64/126/5 63/127/5 57/128/5
f 56/129/10 62/130/10 61/131/10 55/132/10
f 54/133/9 60/134/9 59/135/9 53/136/9
f 53/136/8 59/135/8 64/137/8 58/138/8
f 57/139/7 63/140/7 62/130/7 56/129/7
f 55/141/4 61/142/4 60/143/4 54/144/4
f 67/145/6 68/146/6 66/147/6 65/148/6
f 71/149/6 69/150/6 70/151/6 72/152/6
f 75/153/3 73/154/3 74/155/3 76/156/3
f 79/157/3 80/158/3 78/159/3 77/160/3
f 69/161/11 77/162/11 78/163/11 70/164/11
f 68/165/1 76/166/1 74/167/1 66/168/1
f 66/169/12 74/170/12 73/171/12 65/172/12
f 71/173/4 79/174/4 77/175/4 69/176/4
f 72/177/13 80/178/13 79/179/13 71/180/13
f 65/181/5 73/182/5 75/183/5 67/184/5
f 67/185/14 75/186/14 76/166/14 68/165/14
f 70/187/1 78/188/1 80/178/1 72/177/1
f 83/189/3 81/190/3 82/191/3 84/192/3
f 87/193/3 88/194/3 86/195/3 85/196/3
f 91/197/6 92/198/6 90/199/6 89/200/6
f 95/201/6 93/202/6 94/203/6 96/204/6
f 85/205/11 86/206/11 94/207/11 93/208/11
f 84/209/1 82/210/1 90/211/1 92/212/1
f 82/213/12 81/214/12 89/215/12 90/216/12
f 87/217/4 85/218/4 93/219/4 95/220/4
f 88/221/13 87/222/13 95/223/13 96/224/13
f 81/225/5 83/226/5 91/227/5 89/228/5
f 83/229/14 84/209/14 92/212/14 91/230/14
f 86/231/1 88/221/1 96/224/1 94/232/1
