# Blender v2.77 (sub 0) OBJ File: 'hor1.blend'
# www.blender.org
mtllib posters 2.mtl
o sudden_rust_Plane.017
v -0.945000 1.764770 -8.533392
v -0.945000 1.050762 -8.533392
v -0.945000 1.764770 -9.247400
v -0.945000 1.050762 -9.247400
v -0.945000 1.764770 -9.318078
v -0.945000 1.050762 -9.318078
v -0.945000 1.764770 -10.032086
v -0.945000 1.050762 -10.032086
v -0.945000 1.764770 -7.756523
v -0.945000 1.050762 -7.756523
v -0.945000 1.764770 -8.470531
v -0.945000 1.050762 -8.470531
v -0.945000 1.764770 -6.956504
v -0.945000 1.050762 -6.956504
v -0.945000 1.764770 -7.670511
v -0.945000 1.050762 -7.670511
vt 0.4883 0.5117
vt 0.4883 0.9883
vt 0.0117 0.9883
vt 0.0117 0.5117
vt 0.4883 0.0117
vt 0.4883 0.4883
vt 0.0117 0.4883
vt 0.0117 0.0117
vt 0.9883 0.0117
vt 0.9883 0.4883
vt 0.5117 0.4883
vt 0.5117 0.0117
vt 0.9883 0.5117
vt 0.9883 0.9883
vt 0.5117 0.9883
vt 0.5117 0.5117
vn 1.0000 0.0000 0.0000
usemtl None
s off
f 1/1/1 2/2/1 4/3/1 3/4/1
f 5/5/1 6/6/1 8/7/1 7/8/1
f 9/9/1 10/10/1 12/11/1 11/12/1
f 13/13/1 14/14/1 16/15/1 15/16/1
