# Blender v2.77 (sub 0) OBJ File: ''
# www.blender.org
mtllib rubberbands.mtl
o Circle
v 0.000000 0.000000 -0.035239
v -0.010267 0.000000 -0.030518
v -0.017783 0.000000 -0.017620
v -0.020534 0.000000 0.000000
v -0.017783 0.000000 0.017620
v -0.010267 0.000000 0.030518
v -0.000000 0.000000 0.035239
v 0.010267 0.000000 0.030518
v 0.017783 0.000000 0.017620
v 0.020534 0.000000 0.000000
v 0.017783 0.000000 -0.017619
v 0.010267 0.000000 -0.030518
v 0.000000 0.003029 -0.035239
v -0.010267 0.003029 -0.030518
v -0.017783 0.003029 -0.017620
v -0.020534 0.003029 0.000000
v -0.017783 0.003029 0.017620
v -0.010267 0.003029 0.030518
v -0.000000 0.003029 0.035239
v 0.010267 0.003029 0.030518
v 0.017783 0.003029 0.017620
v 0.020534 0.003029 0.000000
v 0.017783 0.003029 -0.017619
v 0.010267 0.003029 -0.030518
v 0.000000 0.000000 -0.038136
v -0.012214 0.000000 -0.032663
v -0.020512 0.000000 -0.018589
v -0.023430 0.000000 0.000000
v -0.020512 0.000000 0.018589
v -0.012214 0.000000 0.032663
v -0.000000 0.000000 0.038136
v 0.012214 0.000000 0.032663
v 0.020512 0.000000 0.018589
v 0.023430 0.000000 0.000000
v 0.020512 0.000000 -0.018589
v 0.012214 0.000000 -0.032663
v 0.000000 0.003029 -0.038136
v -0.012214 0.003029 -0.032663
v -0.020512 0.003029 -0.018589
v -0.023430 0.003029 0.000000
v -0.020512 0.003029 0.018589
v -0.012214 0.003029 0.032663
v -0.000000 0.003029 0.038136
v 0.012214 0.003029 0.032663
v 0.020512 0.003029 0.018589
v 0.023430 0.003029 0.000000
v 0.020512 0.003029 -0.018589
v 0.012214 0.003029 -0.032663
v -0.008302 0.000000 -0.059956
v -0.016434 0.000000 -0.052109
v -0.019267 0.001383 -0.037452
v -0.016044 0.003266 -0.019912
v -0.007628 0.001383 -0.004190
v 0.003726 0.000711 0.005502
v 0.014976 0.002349 0.006567
v 0.023107 0.003266 -0.001281
v 0.025941 0.001821 -0.015937
v 0.022718 0.000000 -0.033477
v 0.014302 0.000000 -0.049199
v 0.002948 0.000000 -0.058891
v -0.008302 0.003029 -0.059956
v -0.016434 0.003029 -0.052109
v -0.019267 0.004412 -0.037452
v -0.016044 0.006295 -0.019912
v -0.007628 0.004412 -0.004190
v 0.003726 0.003740 0.005502
v 0.014976 0.005378 0.006567
v 0.023107 0.006295 -0.001281
v 0.025941 0.004850 -0.015937
v 0.022718 0.003029 -0.033477
v 0.014302 0.003029 -0.049199
v 0.002948 0.003029 -0.058891
v -0.009259 0.000000 -0.062690
v -0.018980 0.000000 -0.053490
v -0.022164 0.001270 -0.037465
v -0.018778 0.003266 -0.018956
v -0.009884 0.001270 -0.002374
v 0.002597 0.000566 0.008169
v 0.015933 0.002139 0.009301
v 0.025653 0.003266 0.000101
v 0.028838 0.001701 -0.015924
v 0.025452 0.000000 -0.034433
v 0.016558 0.000000 -0.051015
v 0.004077 0.000000 -0.061558
v -0.009259 0.003029 -0.062690
v -0.018980 0.003029 -0.053490
v -0.022164 0.004299 -0.037465
v -0.018778 0.006295 -0.018956
v -0.009884 0.004299 -0.002374
v 0.002597 0.003595 0.008169
v 0.015933 0.005168 0.009301
v 0.025653 0.006295 0.000101
v 0.028838 0.004730 -0.015924
v 0.025452 0.003029 -0.034433
v 0.016558 0.003029 -0.051015
v 0.004077 0.003029 -0.061558
v -0.005863 0.004827 -0.045473
v -0.018083 0.004300 -0.043691
v -0.029942 0.001810 -0.032487
v -0.038263 -0.000141 -0.014864
v -0.040815 -0.000141 0.004457
v -0.036915 -0.000090 0.020298
v -0.027608 0.001575 0.028415
v -0.015388 0.002940 0.026633
v -0.003529 0.003173 0.015430
v 0.004791 0.005176 -0.002193
v 0.007344 0.003821 -0.021514
v 0.003444 0.003839 -0.037356
v -0.005863 0.008130 -0.045473
v -0.018083 0.007610 -0.043691
v -0.029942 0.005120 -0.032487
v -0.038263 0.003170 -0.014864
v -0.040815 0.003170 0.004457
v -0.036915 0.003221 0.020298
v -0.027608 0.004885 0.028415
v -0.015388 0.006250 0.026633
v -0.003529 0.006462 0.015430
v 0.004791 0.008487 -0.002193
v 0.007344 0.007130 -0.021514
v 0.003444 0.007143 -0.037356
v -0.004969 0.004290 -0.048509
v -0.019463 0.004160 -0.046540
v -0.032505 0.001650 -0.034346
v -0.041299 -0.000141 -0.015758
v -0.043976 -0.000141 0.004631
v -0.039618 -0.000134 0.021946
v -0.028502 0.001295 0.031452
v -0.014009 0.002940 0.029483
v -0.000966 0.002834 0.017288
v 0.007828 0.005176 -0.001300
v 0.010504 0.003502 -0.021688
v 0.006147 0.003681 -0.039003
v -0.004969 0.007601 -0.048509
v -0.019463 0.007470 -0.046540
v -0.032505 0.004961 -0.034346
v -0.041299 0.003170 -0.015758
v -0.043976 0.003170 0.004631
v -0.039618 0.003177 0.021946
v -0.028502 0.004606 0.031452
v -0.014009 0.006250 0.029483
v -0.000966 0.006145 0.017288
v 0.007828 0.008487 -0.001300
v 0.010504 0.006812 -0.021688
v 0.006147 0.006986 -0.039003
vt 0.9694 0.7512
vt 0.9694 0.6882
vt 0.9834 0.6882
vt 0.9834 0.7512
vt 0.9662 0.5197
vt 0.9662 0.4373
vt 0.9801 0.4373
vt 0.9801 0.5197
vt 0.3497 0.9070
vt 0.3497 0.8598
vt 0.3636 0.8598
vt 0.3636 0.9070
vt 0.9694 0.8336
vt 0.9834 0.8336
vt 0.9662 0.5994
vt 0.9801 0.5994
vt 0.3497 0.9548
vt 0.3636 0.9548
vt 0.9694 0.9133
vt 0.9834 0.9133
vt 0.9662 0.6549
vt 0.9801 0.6549
vt 0.3025 0.9548
vt 0.3025 0.9070
vt 0.3164 0.9070
vt 0.3164 0.9548
vt 0.9662 0.3743
vt 0.9801 0.3743
vt 0.9694 0.9688
vt 0.9834 0.9688
vt 0.3025 0.8598
vt 0.3164 0.8598
vt 0.9822 0.0855
vt 0.9683 0.0855
vt 0.9683 0.0166
vt 0.9822 0.0166
vt 0.4583 0.8126
vt 0.4583 0.8265
vt 0.3714 0.8265
vt 0.3714 0.8126
vt 0.0166 0.9166
vt 0.0306 0.9166
vt 0.0306 0.9728
vt 0.0166 0.9728
vt 0.9822 0.1724
vt 0.9683 0.1724
vt 0.5423 0.8126
vt 0.5423 0.8265
vt 0.0166 0.8598
vt 0.0306 0.8598
vt 0.9822 0.2564
vt 0.9683 0.2564
vt 0.6029 0.8126
vt 0.6029 0.8265
vt 0.2207 0.8126
vt 0.2346 0.8126
vt 0.2346 0.8694
vt 0.2207 0.8694
vt 0.3025 0.8265
vt 0.3025 0.8126
vt 0.9822 0.3170
vt 0.9683 0.3170
vt 0.2346 0.9256
vt 0.2207 0.9256
vt 0.6296 0.4116
vt 0.6276 0.3984
vt 0.6869 0.4147
vt 0.6796 0.4259
vt 0.6799 0.0299
vt 0.6819 0.0166
vt 0.7335 0.0504
vt 0.7231 0.0588
vt 0.5864 0.3230
vt 0.5760 0.3314
vt 0.5484 0.2611
vt 0.5615 0.2586
vt 0.7346 0.4730
vt 0.7229 0.4794
vt 0.6799 0.7337
vt 0.6819 0.7469
vt 0.6226 0.7307
vt 0.6299 0.7195
vt 0.6296 0.3519
vt 0.6276 0.3651
vt 0.7611 0.5559
vt 0.7479 0.5579
vt 0.5749 0.6723
vt 0.5866 0.6659
vt 0.6796 0.3377
vt 0.6869 0.3489
vt 0.7611 0.6429
vt 0.7480 0.6404
vt 0.5484 0.5895
vt 0.5615 0.5874
vt 0.7229 0.2841
vt 0.7346 0.2905
vt 0.7335 0.7131
vt 0.7231 0.7047
vt 0.6299 0.0441
vt 0.6226 0.0329
vt 0.5484 0.5024
vt 0.5615 0.5049
vt 0.7479 0.2056
vt 0.7611 0.2077
vt 0.5866 0.0976
vt 0.5749 0.0912
vt 0.5760 0.4322
vt 0.5864 0.4406
vt 0.7480 0.1231
vt 0.7611 0.1207
vt 0.5615 0.1762
vt 0.5484 0.1741
vt 0.9319 0.8356
vt 0.9362 0.9046
vt 0.9223 0.9042
vt 0.9179 0.8352
vt 0.8727 0.7830
vt 0.8688 0.8624
vt 0.8550 0.8632
vt 0.8588 0.7838
vt 0.6480 0.8842
vt 0.6427 0.8319
vt 0.6566 0.8325
vt 0.6619 0.8848
vt 0.9255 0.7564
vt 0.9116 0.7560
vt 0.8688 0.7150
vt 0.8549 0.7158
vt 0.8662 0.9315
vt 0.8727 0.9713
vt 0.8588 0.9721
vt 0.8523 0.9323
vt 0.9362 0.6886
vt 0.9223 0.6882
vt 0.1277 0.9118
vt 0.1277 0.9637
vt 0.1138 0.9637
vt 0.1138 0.9118
vt 0.9350 0.9447
vt 0.9211 0.9443
vt 0.6480 0.7802
vt 0.6619 0.7808
vt 0.1277 0.8598
vt 0.1138 0.8598
vt 0.9311 0.1392
vt 0.9172 0.1395
vt 0.9211 0.0641
vt 0.9350 0.0638
vt 0.9329 0.5832
vt 0.9190 0.5825
vt 0.9152 0.4988
vt 0.9291 0.4995
vt 0.7995 0.7354
vt 0.8134 0.7349
vt 0.8083 0.7967
vt 0.7944 0.7972
vt 0.9240 0.2228
vt 0.9101 0.2232
vt 0.9295 0.6549
vt 0.9156 0.6542
vt 0.9255 0.4240
vt 0.9116 0.4233
vt 0.9190 0.3764
vt 0.9329 0.3771
vt 0.9350 0.2943
vt 0.9211 0.2947
vt 0.0737 0.8126
vt 0.0737 0.8265
vt 0.0166 0.8265
vt 0.0166 0.8126
vt 0.9199 0.0170
vt 0.9338 0.0166
vt 0.8134 0.8537
vt 0.7995 0.8542
vt 0.1353 0.8126
vt 0.1353 0.8265
vt 0.3838 0.7661
vt 0.3818 0.7793
vt 0.3302 0.7456
vt 0.3405 0.7372
vt 0.1480 0.7661
vt 0.1500 0.7793
vt 0.0907 0.7630
vt 0.0980 0.7519
vt 0.1480 0.4583
vt 0.1553 0.4471
vt 0.2029 0.5055
vt 0.1912 0.5119
vt 0.3025 0.6754
vt 0.3156 0.6729
vt 0.4339 0.4440
vt 0.4359 0.4308
vt 0.4875 0.4645
vt 0.4771 0.4729
vt 0.0979 0.4440
vt 0.0959 0.4308
vt 0.3025 0.5883
vt 0.3157 0.5904
vt 0.5151 0.5347
vt 0.5020 0.5372
vt 0.0546 0.4729
vt 0.0443 0.4645
vt 0.3289 0.5055
vt 0.3406 0.5119
vt 0.5151 0.6218
vt 0.5020 0.6197
vt 0.0297 0.5372
vt 0.0166 0.5347
vt 0.3766 0.4471
vt 0.3839 0.4583
vt 0.1912 0.7372
vt 0.2016 0.7456
vt 0.4888 0.7046
vt 0.4771 0.6983
vt 0.0298 0.6197
vt 0.0166 0.6218
vt 0.2162 0.6729
vt 0.2292 0.6754
vt 0.4412 0.7630
vt 0.4339 0.7518
vt 0.0548 0.6983
vt 0.0430 0.7046
vt 0.2161 0.5904
vt 0.2292 0.5883
vt 0.8556 0.4355
vt 0.8632 0.3774
vt 0.8783 0.3764
vt 0.8707 0.4345
vt 0.8685 0.1777
vt 0.8766 0.2631
vt 0.8614 0.2629
vt 0.8533 0.1775
vt 0.0789 0.9189
vt 0.0805 0.9621
vt 0.0655 0.9600
vt 0.0638 0.9167
vt 0.8523 0.5211
vt 0.8674 0.5201
vt 0.8760 0.0877
vt 0.8608 0.0875
vt 0.0805 0.8619
vt 0.0655 0.8598
vt 0.8582 0.6111
vt 0.8734 0.6100
vt 0.8768 0.0168
vt 0.8617 0.0166
vt 0.1874 0.8129
vt 0.1838 0.8695
vt 0.1686 0.8692
vt 0.1722 0.8126
vt 0.8768 0.3205
vt 0.8616 0.3203
vt 0.8632 0.6818
vt 0.8783 0.6808
vt 0.1874 0.9121
vt 0.1722 0.9118
vt 0.7971 0.2790
vt 0.8123 0.2800
vt 0.8200 0.3432
vt 0.8048 0.3422
vt 0.8096 0.5290
vt 0.7944 0.5293
vt 0.8038 0.4392
vt 0.8190 0.4390
vt 0.7103 0.8314
vt 0.6952 0.8333
vt 0.6957 0.7820
vt 0.7108 0.7802
vt 0.7944 0.1888
vt 0.8095 0.1898
vt 0.8187 0.6240
vt 0.8035 0.6242
vt 0.7108 0.8990
vt 0.6957 0.9008
vt 0.8001 0.0939
vt 0.8153 0.0949
vt 0.8190 0.7014
vt 0.8038 0.7017
vt 0.7611 0.8982
vt 0.7459 0.8985
vt 0.7440 0.8313
vt 0.7592 0.8311
vt 0.8024 0.3767
vt 0.8176 0.3764
vt 0.8048 0.0166
vt 0.8200 0.0176
vt 0.7459 0.7805
vt 0.7611 0.7802
vt 0.1054 0.3830
vt 0.1032 0.3975
vt 0.0468 0.3605
vt 0.0581 0.3514
vt 0.4263 0.3831
vt 0.4286 0.3975
vt 0.3637 0.3798
vt 0.3717 0.3675
vt 0.4260 0.0466
vt 0.4340 0.0343
vt 0.4861 0.0981
vt 0.4733 0.1050
vt 0.0167 0.2837
vt 0.0309 0.2810
vt 0.1604 0.0311
vt 0.1627 0.0166
vt 0.2190 0.0536
vt 0.2077 0.0627
vt 0.3713 0.0311
vt 0.3690 0.0166
vt 0.0166 0.1886
vt 0.0310 0.1909
vt 0.2492 0.1304
vt 0.2349 0.1331
vt 0.3240 0.0628
vt 0.3127 0.0536
vt 0.0457 0.0981
vt 0.0585 0.1051
vt 0.2492 0.2256
vt 0.2349 0.2233
vt 0.2968 0.1331
vt 0.2825 0.1304
vt 0.0979 0.0344
vt 0.1058 0.0466
vt 0.4735 0.3514
vt 0.4849 0.3606
vt 0.2202 0.3161
vt 0.2075 0.3091
vt 0.2969 0.2233
vt 0.2825 0.2256
vt 0.5008 0.2810
vt 0.5151 0.2837
vt 0.1681 0.3798
vt 0.1601 0.3676
vt 0.3244 0.3091
vt 0.3116 0.3160
vt 0.5008 0.1909
vt 0.5151 0.1886
vn 0.6219 -0.7513 0.2209
vn 0.4192 -0.7816 0.4618
vn 0.4192 0.7816 0.4618
vn 0.6219 0.7513 0.2209
vn -0.6687 -0.7435 0.0000
vn -0.6219 -0.7513 -0.2209
vn -0.6219 0.7513 -0.2209
vn -0.6687 0.7435 0.0000
vn 0.0000 -0.8142 -0.5805
vn 0.4192 -0.7816 -0.4618
vn 0.4192 0.7816 -0.4618
vn 0.0000 0.8142 -0.5805
vn 0.6687 -0.7435 0.0000
vn 0.6687 0.7435 0.0000
vn -0.6219 -0.7513 0.2209
vn -0.6219 0.7513 0.2209
vn -0.4192 -0.7816 -0.4618
vn -0.4192 0.7816 -0.4618
vn 0.6219 -0.7513 -0.2209
vn 0.6219 0.7513 -0.2209
vn -0.4192 -0.7816 0.4618
vn -0.4192 0.7816 0.4618
vn 0.0000 -0.8142 0.5805
vn 0.0000 0.8142 0.5805
vn -0.7011 -0.6672 -0.2514
vn -0.7011 0.6672 -0.2514
vn -0.5095 0.6447 -0.5698
vn -0.5095 -0.6447 -0.5698
vn 0.7389 -0.6738 0.0000
vn 0.7389 0.6738 0.0000
vn 0.7011 0.6672 0.2514
vn 0.7011 -0.6672 0.2514
vn 0.0000 -0.6256 0.7801
vn 0.0000 0.6256 0.7801
vn -0.5095 0.6447 0.5698
vn -0.5095 -0.6447 0.5698
vn -0.7389 -0.6738 0.0000
vn -0.7389 0.6738 0.0000
vn 0.7011 -0.6672 -0.2514
vn 0.7011 0.6672 -0.2514
vn 0.5095 -0.6447 0.5698
vn 0.5095 0.6447 0.5698
vn -0.7011 -0.6672 0.2514
vn -0.7011 0.6672 0.2514
vn 0.5095 -0.6447 -0.5698
vn 0.5095 0.6447 -0.5698
vn 0.0000 0.6256 -0.7801
vn 0.0000 -0.6256 -0.7801
vn 0.6656 -0.7419 0.0802
vn 0.5301 -0.7818 0.3281
vn 0.5671 0.7791 0.2673
vn 0.6540 0.7527 -0.0752
vn -0.6151 -0.7461 0.2549
vn -0.6711 -0.7376 0.0740
vn -0.6485 0.7568 -0.0821
vn -0.6480 0.7382 0.1875
vn -0.1059 -0.7865 -0.6084
vn 0.2809 -0.7668 -0.5771
vn 0.2053 0.7925 -0.5742
vn -0.2824 0.8272 -0.4856
vn 0.6561 -0.7188 -0.2296
vn 0.6083 0.7646 -0.2128
vn -0.5141 -0.7513 0.4139
vn -0.5141 0.7513 0.4139
vn -0.5714 -0.7621 -0.3044
vn -0.5270 0.7982 -0.2918
vn 0.4812 -0.7416 -0.4674
vn 0.5475 0.7557 -0.3594
vn -0.2432 -0.7816 0.5744
vn -0.2432 0.7816 0.5744
vn 0.1917 -0.8142 0.5479
vn 0.1917 0.8142 0.5479
vn -0.7370 -0.6741 0.0489
vn -0.7530 0.6554 -0.0587
vn -0.6719 0.6286 -0.3917
vn -0.6666 -0.6601 -0.3463
vn 0.6922 -0.6897 -0.2125
vn 0.7029 0.6562 -0.2742
vn 0.7530 0.6562 -0.0477
vn 0.7369 -0.6733 0.0605
vn 0.2970 -0.6316 0.7161
vn 0.2195 0.6159 0.7566
vn -0.3217 0.5985 0.7336
vn -0.2604 -0.6884 0.6769
vn -0.7187 -0.6482 0.2515
vn -0.6771 0.6967 0.2369
vn 0.5788 -0.6672 -0.4688
vn 0.5788 0.6672 -0.4688
vn 0.6834 -0.6229 0.3805
vn 0.6554 0.6648 0.3585
vn -0.5936 -0.6847 0.4229
vn -0.5654 0.6461 0.5127
vn 0.2927 -0.6447 -0.7061
vn 0.2927 0.6447 -0.7061
vn -0.2577 0.6256 -0.7364
vn -0.2577 -0.6256 -0.7364
vn 0.6002 -0.7334 0.3191
vn 0.3493 -0.7415 0.5727
vn 0.1891 0.8112 0.5533
vn 0.4664 0.7567 0.4581
vn -0.6715 -0.7103 -0.2108
vn -0.5204 -0.7357 -0.4334
vn -0.5501 0.7623 -0.3409
vn -0.6122 0.7731 -0.1658
vn 0.2719 -0.7870 -0.5537
vn 0.5634 -0.7732 -0.2910
vn 0.5030 0.7857 -0.3600
vn 0.0508 0.8262 -0.5611
vn 0.6489 -0.7452 0.1534
vn 0.6351 0.7392 0.2242
vn -0.6785 -0.7315 0.0672
vn -0.6391 0.7691 0.0037
vn -0.2401 -0.7590 -0.6052
vn -0.3062 0.7992 -0.5171
vn 0.6602 -0.7502 -0.0361
vn 0.6577 0.7523 -0.0364
vn -0.5778 -0.7485 0.3254
vn -0.4859 0.8112 0.3253
vn -0.1972 -0.7639 0.6144
vn -0.1295 0.8545 0.5030
vn -0.5463 -0.6843 -0.4829
vn -0.6548 0.6420 -0.3989
vn -0.3619 0.6380 -0.6796
vn -0.2946 -0.6465 -0.7036
vn 0.7222 -0.6613 0.2025
vn 0.6976 0.6833 0.2156
vn 0.6081 0.6315 0.4811
vn 0.5961 -0.6998 0.3937
vn -0.1738 -0.6391 0.7492
vn -0.2647 0.6078 0.7486
vn -0.6803 0.6165 0.3962
vn -0.6174 -0.6710 0.4105
vn -0.6862 -0.6901 -0.2301
vn -0.7309 0.6560 -0.1883
vn 0.7139 -0.7000 -0.0190
vn 0.7722 0.6320 -0.0652
vn 0.3527 -0.6386 0.6840
vn 0.3032 0.6485 0.6982
vn -0.7424 -0.6685 0.0432
vn -0.7447 0.6659 0.0432
vn 0.6164 -0.6799 -0.3970
vn 0.6810 0.6076 -0.4088
vn 0.2313 0.6055 -0.7615
vn 0.2079 -0.6483 -0.7324
usemtl None
s 1
f 3/1/1 2/2/2 14/3/3 15/4/4
f 10/5/5 9/6/6 21/7/7 22/8/8
f 7/9/9 6/10/10 18/11/11 19/12/12
f 4/13/13 3/1/1 15/4/4 16/14/14
f 11/15/15 10/5/5 22/8/8 23/16/16
f 8/17/17 7/9/9 19/12/12 20/18/18
f 5/19/19 4/13/13 16/14/14 17/20/20
f 12/21/21 11/15/15 23/16/16 24/22/22
f 2/23/2 1/24/23 13/25/24 14/26/3
f 9/6/6 8/27/17 20/28/18 21/7/7
f 6/29/10 5/19/19 17/20/20 18/30/11
f 1/24/23 12/31/21 24/32/22 13/25/24
f 27/33/25 39/34/26 38/35/27 26/36/28
f 34/37/29 46/38/30 45/39/31 33/40/32
f 31/41/33 43/42/34 42/43/35 30/44/36
f 28/45/37 40/46/38 39/34/26 27/33/25
f 35/47/39 47/48/40 46/38/30 34/37/29
f 32/49/41 44/50/42 43/42/34 31/41/33
f 29/51/43 41/52/44 40/46/38 28/45/37
f 36/53/45 48/54/46 47/48/40 35/47/39
f 26/55/28 38/56/27 37/57/47 25/58/48
f 33/40/32 45/39/31 44/59/42 32/60/41
f 30/61/36 42/62/35 41/52/44 29/51/43
f 25/58/48 37/57/47 48/63/46 36/64/45
f 19/65/12 43/66/34 44/67/42 20/68/18
f 1/69/23 25/70/48 36/71/45 12/72/21
f 6/73/10 30/74/36 29/75/43 5/76/19
f 20/68/18 44/67/42 45/77/31 21/78/7
f 13/79/24 37/80/47 38/81/27 14/82/3
f 7/83/9 31/84/33 30/74/36 6/73/10
f 21/78/7 45/77/31 46/85/30 22/86/8
f 14/82/3 38/81/27 39/87/26 15/88/4
f 8/89/17 32/90/41 31/84/33 7/83/9
f 22/86/8 46/85/30 47/91/40 23/92/16
f 15/88/4 39/87/26 40/93/38 16/94/14
f 9/95/6 33/96/32 32/90/41 8/89/17
f 23/92/16 47/91/40 48/97/46 24/98/22
f 2/99/2 26/100/28 25/70/48 1/69/23
f 16/94/14 40/93/38 41/101/44 17/102/20
f 10/103/5 34/104/29 33/96/32 9/95/6
f 24/98/22 48/97/46 37/80/47 13/79/24
f 3/105/1 27/106/25 26/100/28 2/99/2
f 17/102/20 41/101/44 42/107/35 18/108/11
f 11/109/15 35/110/39 34/104/29 10/103/5
f 4/111/13 28/112/37 27/106/25 3/105/1
f 18/108/11 42/107/35 43/66/34 19/65/12
f 12/72/21 36/71/45 35/110/39 11/109/15
f 5/76/19 29/75/43 28/112/37 4/111/13
f 51/113/49 50/114/50 62/115/51 63/116/52
f 58/117/53 57/118/54 69/119/55 70/120/56
f 55/121/57 54/122/58 66/123/59 67/124/60
f 52/125/61 51/113/49 63/116/52 64/126/62
f 59/127/63 58/117/53 70/120/56 71/128/64
f 56/129/65 55/130/57 67/131/60 68/132/66
f 53/133/67 52/125/61 64/126/62 65/134/68
f 60/135/69 59/136/63 71/137/64 72/138/70
f 50/114/50 49/139/71 61/140/72 62/115/51
f 57/118/54 56/129/65 68/132/66 69/119/55
f 54/122/58 53/141/67 65/142/68 66/123/59
f 49/143/71 60/135/69 72/138/70 61/144/72
f 75/145/73 87/146/74 86/147/75 74/148/76
f 82/149/77 94/150/78 93/151/79 81/152/80
f 79/153/81 91/154/82 90/155/83 78/156/84
f 76/157/85 88/158/86 87/146/74 75/145/73
f 83/159/87 95/160/88 94/150/78 82/149/77
f 80/161/89 92/162/90 91/163/82 79/164/81
f 77/165/91 89/166/92 88/158/86 76/157/85
f 84/167/93 96/168/94 95/169/88 83/170/87
f 74/148/76 86/147/75 85/171/95 73/172/96
f 81/152/80 93/151/79 92/162/90 80/161/89
f 78/156/84 90/155/83 89/173/92 77/174/91
f 73/175/96 85/176/95 96/168/94 84/167/93
f 67/177/60 91/178/82 92/179/90 68/180/66
f 49/181/71 73/182/96 84/183/93 60/184/69
f 54/185/58 78/186/84 77/187/91 53/188/67
f 68/180/66 92/179/90 93/189/79 69/190/55
f 61/191/72 85/192/95 86/193/75 62/194/51
f 55/195/57 79/196/81 78/186/84 54/185/58
f 69/190/55 93/189/79 94/197/78 70/198/56
f 62/194/51 86/193/75 87/199/74 63/200/52
f 56/201/65 80/202/89 79/196/81 55/195/57
f 70/198/56 94/197/78 95/203/88 71/204/64
f 63/200/52 87/199/74 88/205/86 64/206/62
f 57/207/54 81/208/80 80/202/89 56/201/65
f 71/204/64 95/203/88 96/209/94 72/210/70
f 50/211/50 74/212/76 73/182/96 49/181/71
f 64/206/62 88/205/86 89/213/92 65/214/68
f 58/215/53 82/216/77 81/208/80 57/207/54
f 72/210/70 96/209/94 85/192/95 61/191/72
f 51/217/49 75/218/73 74/212/76 50/211/50
f 65/214/68 89/213/92 90/219/83 66/220/59
f 59/221/63 83/222/87 82/216/77 58/215/53
f 52/223/61 76/224/85 75/218/73 51/217/49
f 66/220/59 90/219/83 91/178/82 67/177/60
f 60/184/69 84/183/93 83/222/87 59/221/63
f 53/188/67 77/187/91 76/224/85 52/223/61
f 99/225/97 98/226/98 110/227/99 111/228/100
f 106/229/101 105/230/102 117/231/103 118/232/104
f 103/233/105 102/234/106 114/235/107 115/236/108
f 100/237/109 99/225/97 111/228/100 112/238/110
f 107/239/111 106/229/101 118/232/104 119/240/112
f 104/241/113 103/233/105 115/236/108 116/242/114
f 101/243/115 100/237/109 112/238/110 113/244/116
f 108/245/117 107/239/111 119/240/112 120/246/118
f 98/247/98 97/248/119 109/249/120 110/250/99
f 105/230/102 104/251/113 116/252/114 117/231/103
f 102/253/106 101/243/115 113/244/116 114/254/107
f 97/248/119 108/255/117 120/256/118 109/249/120
f 123/257/121 135/258/122 134/259/123 122/260/124
f 130/261/125 142/262/126 141/263/127 129/264/128
f 127/265/129 139/266/130 138/267/131 126/268/132
f 124/269/133 136/270/134 135/258/122 123/257/121
f 131/271/135 143/272/136 142/262/126 130/261/125
f 128/273/137 140/274/138 139/266/130 127/265/129
f 125/275/139 137/276/140 136/270/134 124/269/133
f 132/277/141 144/278/142 143/272/136 131/271/135
f 122/279/124 134/280/123 133/281/143 121/282/144
f 129/264/128 141/263/127 140/283/138 128/284/137
f 126/285/132 138/286/131 137/276/140 125/275/139
f 121/282/144 133/281/143 144/287/142 132/288/141
f 115/289/108 139/290/130 140/291/138 116/292/114
f 97/293/119 121/294/144 132/295/141 108/296/117
f 102/297/106 126/298/132 125/299/139 101/300/115
f 116/292/114 140/291/138 141/301/127 117/302/103
f 109/303/120 133/304/143 134/305/123 110/306/99
f 103/307/105 127/308/129 126/298/132 102/297/106
f 117/302/103 141/301/127 142/309/126 118/310/104
f 110/306/99 134/305/123 135/311/122 111/312/100
f 104/313/113 128/314/137 127/308/129 103/307/105
f 118/310/104 142/309/126 143/315/136 119/316/112
f 111/312/100 135/311/122 136/317/134 112/318/110
f 105/319/102 129/320/128 128/314/137 104/313/113
f 119/316/112 143/315/136 144/321/142 120/322/118
f 98/323/98 122/324/124 121/294/144 97/293/119
f 112/318/110 136/317/134 137/325/140 113/326/116
f 106/327/101 130/328/125 129/320/128 105/319/102
f 120/322/118 144/321/142 133/304/143 109/303/120
f 99/329/97 123/330/121 122/324/124 98/323/98
f 113/326/116 137/325/140 138/331/131 114/332/107
f 107/333/111 131/334/135 130/328/125 106/327/101
f 100/335/109 124/336/133 123/330/121 99/329/97
f 114/332/107 138/331/131 139/290/130 115/289/108
f 108/296/117 132/295/141 131/334/135 107/333/111
f 101/300/115 125/299/139 124/336/133 100/335/109
