# Blender v2.77 (sub 0) OBJ File: 'rubber gun.blend'
# www.blender.org
mtllib rubber gun.mtl
o Plane
v -0.020000 -0.060811 0.033809
v -0.011210 0.004157 0.025000
v -0.007201 0.047063 -0.115311
v -0.007201 0.037809 -0.115311
v -0.012060 0.028686 -0.115311
v -0.012060 0.049900 -0.115311
v -0.007201 0.047063 -0.124538
v -0.007201 0.037809 -0.124538
v -0.007201 0.042436 -0.122291
v -0.011210 0.050000 0.025000
v -0.020000 0.050000 0.025000
v -0.020000 0.000134 0.025000
v -0.011210 0.050000 -0.025000
v -0.009498 0.058439 0.008994
v -0.009498 0.055675 0.019310
v -0.009498 0.048123 0.026862
v -0.009498 0.037806 0.029627
v -0.009498 0.026934 0.026862
v -0.009498 0.019938 0.019310
v -0.009498 0.017173 0.008994
v -0.009498 0.019938 -0.001323
v -0.009498 0.026934 -0.008875
v -0.009498 0.037806 -0.011639
v -0.009498 0.048123 -0.008875
v -0.009498 0.055675 -0.001323
v -0.009498 0.035714 0.010994
v -0.009498 0.035714 0.006994
v -0.009498 0.039714 0.010994
v -0.009498 0.039714 0.006994
v -0.013437 0.035714 0.010994
v -0.013437 0.035714 0.006994
v -0.013437 0.039714 0.010994
v -0.013437 0.039714 0.006994
v -0.011210 0.004157 -0.011496
v 0.020000 -0.060811 0.033809
v 0.011210 0.004157 0.025000
v 0.007201 0.047063 -0.115311
v 0.007201 0.037809 -0.115311
v 0.012060 0.028686 -0.115311
v 0.012060 0.049900 -0.115311
v 0.007201 0.047063 -0.124538
v 0.007201 0.037809 -0.124538
v 0.020000 0.050000 -0.025000
v 0.007201 0.042436 -0.122291
v 0.011210 0.050000 0.025000
v 0.020000 0.050000 0.025000
v 0.020000 0.000134 0.025000
v 0.011210 0.050000 -0.025000
v 0.009498 0.058439 0.008994
v 0.009498 0.055675 0.019310
v 0.009498 0.048123 0.026862
v 0.009498 0.037806 0.029627
v 0.009498 0.026934 0.026862
v 0.009498 0.019938 0.019310
v 0.009498 0.017173 0.008994
v 0.009498 0.019938 -0.001323
v 0.009498 0.026934 -0.008875
v 0.009498 0.037806 -0.011639
v 0.009498 0.048123 -0.008875
v 0.009498 0.055675 -0.001323
v 0.009498 0.035714 0.010994
v 0.009498 0.035714 0.006994
v 0.009498 0.039714 0.010994
v 0.009498 0.039714 0.006994
v 0.013437 0.035714 0.010994
v 0.013437 0.035714 0.006994
v 0.013437 0.039714 0.010994
v 0.013437 0.039714 0.006994
v 0.011210 0.004157 -0.011496
v -0.002220 0.055675 0.012635
v -0.002220 0.055675 0.005353
v 0.002220 0.055675 0.012635
v 0.002220 0.055675 0.005353
v -0.002220 0.065397 0.012635
v -0.002220 0.065397 0.005353
v 0.002220 0.065397 0.012635
v 0.002220 0.065397 0.005353
v -0.020000 -0.018026 0.025000
v 0.020000 -0.018026 0.025000
v -0.020000 -0.060811 -0.017983
v -0.012042 -0.060811 -0.026602
v -0.012042 0.018853 -0.025000
v -0.020000 0.015816 -0.016886
v -0.020000 0.050000 -0.025000
v -0.012060 0.023819 -0.025000
v 0.012042 -0.060811 -0.026602
v 0.020000 -0.060811 -0.017983
v 0.020000 0.015816 -0.016886
v 0.012042 0.018853 -0.025000
v 0.012060 0.023819 -0.025000
v -0.012042 0.003524 -0.021396
v -0.020000 -0.000335 -0.013090
v 0.020000 -0.000335 -0.013090
v 0.012042 0.003524 -0.021396
v -0.002220 0.049848 -0.004741
v -0.002220 0.043541 -0.008382
v 0.002220 0.049848 -0.004741
v 0.002220 0.043541 -0.008382
v -0.002220 0.054709 -0.013160
v -0.002220 0.048402 -0.016801
v 0.002220 0.054709 -0.013160
v 0.002220 0.048402 -0.016801
v -0.002220 0.043541 0.026369
v -0.002220 0.049848 0.022728
v 0.002220 0.043541 0.026369
v 0.002220 0.049848 0.022728
v -0.002220 0.048402 0.034789
v -0.002220 0.054709 0.031148
v 0.002220 0.048402 0.034789
v 0.002220 0.054709 0.031148
v -0.002220 0.025580 0.022728
v -0.002220 0.031886 0.026369
v 0.002220 0.025580 0.022728
v 0.002220 0.031886 0.026369
v -0.002220 0.020719 0.031148
v -0.002220 0.027025 0.034789
v 0.002220 0.020719 0.031148
v 0.002220 0.027025 0.034789
v -0.002220 0.019752 0.005353
v -0.002220 0.019752 0.012635
v 0.002220 0.019752 0.005353
v 0.002220 0.019752 0.012635
v -0.002220 0.010030 0.005353
v -0.002220 0.010030 0.012635
v 0.002220 0.010030 0.005353
v 0.002220 0.010030 0.012635
v -0.002220 0.031886 -0.008382
v -0.002220 0.025580 -0.004741
v 0.002220 0.031886 -0.008382
v 0.002220 0.025580 -0.004740
v -0.002220 0.027025 -0.016801
v -0.002220 0.020719 -0.013160
v 0.002220 0.027025 -0.016801
v 0.002220 0.020719 -0.013160
v -0.005823 0.026105 -0.031050
v 0.005823 0.026105 -0.031050
v -0.005823 0.012142 -0.031486
v 0.005823 0.012142 -0.031486
v -0.005823 -0.000425 -0.035476
v 0.005823 -0.000425 -0.035476
v -0.005823 -0.000984 -0.034054
v 0.005823 -0.000984 -0.034054
v -0.005823 0.007209 -0.023265
v 0.005823 0.007209 -0.023265
v -0.005823 0.025809 -0.019022
v 0.005823 0.025809 -0.019022
vt 0.5203 0.1238
vt 0.5203 0.0410
vt 0.5719 0.0410
vt 0.5719 0.1238
vt 0.5036 0.0410
vt 0.5036 0.1238
vt 0.7892 0.0410
vt 0.7892 0.1238
vt 0.9409 0.0137
vt 0.9409 0.0623
vt 0.9092 0.0623
vt 0.9092 0.0137
vt 0.2435 0.4263
vt 0.1822 0.4264
vt 0.1291 0.2825
vt 0.1836 0.2955
vt 0.8881 0.8932
vt 0.8881 0.8446
vt 0.9041 0.8446
vt 0.9041 0.8932
vt 0.0139 0.4266
vt 0.0137 0.2548
vt 0.7474 0.2487
vt 0.8303 0.2487
vt 0.8303 0.5538
vt 0.7474 0.5538
vt 0.8723 0.8932
vt 0.8723 0.8446
vt 0.2199 0.6485
vt 0.2334 0.6787
vt 0.2334 0.7557
vt 0.2199 0.7859
vt 0.8797 0.1549
vt 0.8479 0.1549
vt 0.8166 0.1385
vt 0.8895 0.1385
vt 0.8895 0.2199
vt 0.8797 0.2035
vt 0.7341 0.2127
vt 0.7341 0.1810
vt 0.7497 0.1888
vt 0.7653 0.2127
vt 0.7653 0.1810
vt 0.8479 0.2035
vt 0.8166 0.2199
vt 0.7203 0.6485
vt 0.7203 0.7387
vt 0.4155 0.7378
vt 0.4155 0.6649
vt 0.3881 0.7557
vt 0.3881 0.7859
vt 0.4872 0.5939
vt 0.1824 0.6211
vt 0.1824 0.5909
vt 0.6003 0.8892
vt 0.6003 0.7661
vt 0.6774 0.7661
vt 0.6774 0.8892
vt 0.0137 0.6211
vt 0.0137 0.5909
vt 0.7842 0.9098
vt 0.7477 0.9098
vt 0.7477 0.8446
vt 0.7842 0.8446
vt 0.6572 0.4315
vt 0.6228 0.4315
vt 0.6228 0.3663
vt 0.6572 0.3663
vt 0.8818 0.0502
vt 0.8818 0.0852
vt 0.8166 0.0852
vt 0.8166 0.0502
vt 0.8192 0.9098
vt 0.8192 0.8446
vt 0.6924 0.4315
vt 0.6924 0.3663
vt 0.8818 0.0137
vt 0.8166 0.0137
vt 0.8449 0.9098
vt 0.8449 0.8446
vt 0.7186 0.4315
vt 0.7186 0.3663
vt 0.5981 0.4315
vt 0.5981 0.3663
vt 0.8576 0.2835
vt 0.8576 0.2487
vt 0.9229 0.2487
vt 0.9229 0.2835
vt 0.8818 0.1111
vt 0.8166 0.1111
vt 0.0320 0.9302
vt 0.0137 0.8990
vt 0.0137 0.8630
vt 0.0320 0.8318
vt 0.0638 0.8137
vt 0.1023 0.8133
vt 0.1323 0.8318
vt 0.1506 0.8630
vt 0.1506 0.8990
vt 0.1341 0.9298
vt 0.1005 0.9483
vt 0.0638 0.9483
vt 0.4152 0.4433
vt 0.4152 0.3663
vt 0.5708 0.3663
vt 0.5708 0.4433
vt 0.8576 0.3183
vt 0.9229 0.3183
vt 0.4638 0.9621
vt 0.4774 0.9621
vt 0.4774 0.9756
vt 0.4638 0.9756
vt 0.9691 0.1578
vt 0.9827 0.1578
vt 0.9827 0.1713
vt 0.9691 0.1713
vt 0.5456 0.9757
vt 0.5456 0.9621
vt 0.5591 0.9621
vt 0.5591 0.9757
vt 0.9820 0.6043
vt 0.9685 0.6043
vt 0.9685 0.5908
vt 0.9820 0.5908
vt 0.9052 0.6485
vt 0.9052 0.7716
vt 0.7477 0.8172
vt 0.7477 0.6485
vt 0.2435 0.0437
vt 0.1836 0.1746
vt 0.1291 0.1875
vt 0.1822 0.0437
vt 0.0137 0.2153
vt 0.0139 0.0434
vt 0.1824 0.5139
vt 0.4872 0.5110
vt 0.7068 0.2127
vt 0.6911 0.1888
vt 0.7068 0.1810
vt 0.6755 0.2127
vt 0.6755 0.1810
vt 0.7201 0.3389
vt 0.4153 0.3225
vt 0.4152 0.2496
vt 0.7201 0.2487
vt 0.3881 0.6485
vt 0.3881 0.6787
vt 0.1824 0.4837
vt 0.0137 0.5139
vt 0.0137 0.4837
vt 0.2966 0.9302
vt 0.2648 0.9483
vt 0.2281 0.9483
vt 0.1945 0.9298
vt 0.1780 0.8990
vt 0.1780 0.8630
vt 0.1963 0.8318
vt 0.2263 0.8133
vt 0.2648 0.8137
vt 0.2966 0.8318
vt 0.3149 0.8630
vt 0.3149 0.8990
vt 0.9502 0.3179
vt 0.9502 0.3044
vt 0.9638 0.3044
vt 0.9638 0.3179
vt 0.7186 0.9728
vt 0.7186 0.9863
vt 0.7050 0.9863
vt 0.7050 0.9728
vt 0.5183 0.9621
vt 0.5183 0.9756
vt 0.5047 0.9756
vt 0.5047 0.9621
vt 0.3423 0.9767
vt 0.3423 0.9632
vt 0.3558 0.9632
vt 0.3558 0.9767
vt 0.5730 0.9348
vt 0.4155 0.9348
vt 0.4155 0.7661
vt 0.5730 0.8116
vt 0.5996 0.2127
vt 0.5996 0.1810
vt 0.6482 0.1810
vt 0.6482 0.2127
vt 0.1586 0.7859
vt 0.1586 0.6485
vt 0.8503 0.6211
vt 0.8503 0.5966
vt 0.8656 0.5966
vt 0.8656 0.6211
vt 0.8973 0.9205
vt 0.8973 0.9533
vt 0.8723 0.9533
vt 0.8723 0.9205
vt 0.7200 0.7661
vt 0.7200 0.7989
vt 0.7047 0.7989
vt 0.7047 0.7661
vt 0.9496 0.9205
vt 0.9496 0.9533
vt 0.9246 0.9533
vt 0.9246 0.9205
vt 0.9466 0.8446
vt 0.9466 0.8774
vt 0.9314 0.8774
vt 0.9314 0.8446
vt 0.0137 0.7859
vt 0.0137 0.6485
vt 0.3879 0.0137
vt 0.3876 0.1916
vt 0.6892 0.4837
vt 0.7183 0.5110
vt 0.7183 0.5938
vt 0.6892 0.6211
vt 0.5145 0.6211
vt 0.5145 0.4837
vt 0.5303 0.1511
vt 0.4152 0.1511
vt 0.5303 0.0137
vt 0.4152 0.0137
vt 0.5846 0.1511
vt 0.5846 0.0137
vt 0.3876 0.2784
vt 0.1708 0.2669
vt 0.3879 0.2487
vt 0.3879 0.2213
vt 0.1708 0.2032
vt 0.3879 0.4564
vt 0.9320 0.1986
vt 0.9320 0.2200
vt 0.9168 0.2200
vt 0.9168 0.1986
vt 0.6527 0.9494
vt 0.6527 0.9166
vt 0.6777 0.9166
vt 0.6777 0.9494
vt 0.7203 0.9166
vt 0.7203 0.9455
vt 0.7050 0.9455
vt 0.7050 0.9166
vt 0.9509 0.4705
vt 0.9509 0.5033
vt 0.9259 0.5033
vt 0.9259 0.4705
vt 0.9655 0.2487
vt 0.9655 0.2771
vt 0.9502 0.2771
vt 0.9502 0.2487
vt 0.9092 0.1111
vt 0.9092 0.0896
vt 0.9244 0.0896
vt 0.9244 0.1111
vt 0.7980 0.6211
vt 0.7980 0.5883
vt 0.8230 0.5883
vt 0.8230 0.6211
vt 0.9478 0.7086
vt 0.9478 0.7370
vt 0.9325 0.7370
vt 0.9325 0.7086
vt 0.3673 0.9031
vt 0.3673 0.9359
vt 0.3423 0.9359
vt 0.3423 0.9031
vt 0.9682 0.0415
vt 0.9682 0.0137
vt 0.9834 0.0137
vt 0.9834 0.0415
vt 0.4365 0.9774
vt 0.4155 0.9774
vt 0.4155 0.9621
vt 0.4365 0.9621
vt 0.6253 0.9166
vt 0.6253 0.9494
vt 0.6003 0.9494
vt 0.6003 0.9166
vt 0.7629 0.9372
vt 0.7629 0.9656
vt 0.7477 0.9656
vt 0.7477 0.9372
vt 0.9259 0.3785
vt 0.9259 0.3456
vt 0.9509 0.3456
vt 0.9509 0.3785
vt 0.9259 0.6198
vt 0.9259 0.5908
vt 0.9412 0.5908
vt 0.9412 0.6198
vt 0.9682 0.0934
vt 0.9682 0.0688
vt 0.9834 0.0688
vt 0.9834 0.0934
vt 0.9509 0.4104
vt 0.9509 0.4432
vt 0.9259 0.4432
vt 0.9259 0.4104
vt 0.9325 0.6813
vt 0.9325 0.6485
vt 0.9478 0.6485
vt 0.9478 0.6813
vt 0.9259 0.5635
vt 0.9259 0.5307
vt 0.9509 0.5307
vt 0.9509 0.5635
vt 0.7047 0.8590
vt 0.7047 0.8262
vt 0.7200 0.8262
vt 0.7200 0.8590
vt 0.9746 0.1986
vt 0.9746 0.2198
vt 0.9594 0.2198
vt 0.9594 0.1986
vt 0.7456 0.6211
vt 0.7456 0.5883
vt 0.7706 0.5883
vt 0.7706 0.6211
vt 0.8055 0.9372
vt 0.8055 0.9650
vt 0.7902 0.9650
vt 0.7902 0.9372
vt 0.9168 0.1713
vt 0.9168 0.1385
vt 0.9418 0.1385
vt 0.9418 0.1713
vt 0.9325 0.7928
vt 0.9325 0.7644
vt 0.9478 0.7644
vt 0.9478 0.7928
vt 0.4152 0.2213
vt 0.4152 0.1813
vt 0.4624 0.1813
vt 0.4624 0.2213
vt 0.5049 0.1813
vt 0.5049 0.2213
vt 0.5723 0.2213
vt 0.5322 0.2213
vt 0.5322 0.2165
vt 0.5723 0.2165
vt 0.5322 0.1810
vt 0.5723 0.1810
vt 0.3423 0.8133
vt 0.3823 0.8133
vt 0.3823 0.8758
vt 0.3423 0.8758
vt 0.8986 0.5670
vt 0.8934 0.5680
vt 0.8615 0.5348
vt 0.8922 0.5229
vt 0.8576 0.4705
vt 0.8986 0.4762
vt 0.8922 0.3908
vt 0.8615 0.3789
vt 0.8934 0.3456
vt 0.8986 0.3467
vt 0.8986 0.4375
vt 0.8576 0.4432
vn 0.0000 -0.2288 -0.9735
vn 0.0000 -0.0000 -1.0000
vn 0.0000 0.0806 -0.9967
vn 0.0000 -1.0000 0.0000
vn -1.0000 -0.0000 -0.0000
vn 0.0000 0.4368 -0.8996
vn 0.0000 -0.9986 -0.0538
vn 0.0000 -0.4368 -0.8996
vn -0.0000 -0.0000 1.0000
vn -0.9851 -0.1650 -0.0477
vn 0.0000 1.0000 -0.0011
vn 0.0000 1.0000 -0.0000
vn 0.0000 -0.2464 -0.9692
vn -0.0000 -0.9659 0.2588
vn 0.0000 0.2588 0.9659
vn 0.0000 0.2588 -0.9659
vn 0.0000 -0.9659 -0.2588
vn 0.0000 -0.2464 0.9692
vn 0.0000 0.7071 -0.7071
vn 0.0000 -0.7336 -0.6796
vn -0.0000 -0.7336 0.6796
vn 0.0000 0.9659 -0.2588
vn -0.0000 0.7071 0.7071
vn 0.0000 0.2826 0.9592
vn -0.0000 0.9659 0.2588
vn 1.0000 -0.0000 0.0000
vn 0.9851 -0.1650 -0.0477
vn 0.0000 0.2017 0.9795
vn -0.6226 -0.1591 -0.7662
vn 0.6226 -0.1591 -0.7662
vn -0.6711 -0.1697 -0.7217
vn 0.6711 -0.1697 -0.7217
vn -0.7336 0.0548 -0.6774
vn 0.7336 0.0548 -0.6774
vn 0.0000 0.5000 -0.8660
vn 0.0000 -0.8660 -0.5000
vn 0.0000 0.8660 0.5000
vn 0.0000 0.5000 0.8660
vn -0.0000 0.8660 -0.5000
vn 0.0000 -0.8660 0.5000
vn 0.0000 -0.5000 0.8660
vn 0.0000 -0.5000 -0.8660
vn -0.0000 0.0312 -0.9995
vn -0.0000 0.3026 -0.9531
vn -0.0000 -0.9308 -0.3656
vn 0.0000 -0.7964 0.6047
vn 0.0000 -0.2224 0.9750
usemtl None
s off
f 82/1/1 89/2/1 94/3/1 91/4/1
f 90/5/2 89/2/2 82/1/2 85/6/2
f 91/4/3 94/3/3 86/7/3 81/8/3
f 8/9/4 42/10/4 38/11/4 4/12/4
f 78/13/5 12/14/5 83/15/5 92/16/5
f 9/17/6 44/18/6 42/19/6 8/20/6
f 12/14/5 11/21/5 84/22/5 83/15/5
f 5/23/7 39/24/7 90/25/7 85/26/7
f 7/27/8 41/28/8 44/18/8 9/17/8
f 47/29/9 36/30/9 2/31/9 12/32/9
f 3/33/2 4/34/2 5/35/2 6/36/2
f 3/33/2 6/36/2 40/37/2 37/38/2
f 3/39/5 7/40/5 9/41/5
f 4/42/5 3/39/5 9/41/5 8/43/5
f 38/44/2 39/45/2 5/35/2 4/34/2
f 85/46/10 84/47/10 6/48/10 5/49/10
f 2/31/9 10/50/9 11/51/9 12/32/9
f 6/52/11 84/53/11 13/54/11
f 36/55/12 69/56/12 34/57/12 2/58/12
f 84/53/12 11/59/12 10/60/12 13/54/12
f 58/61/13 57/62/13 22/63/13 23/64/13
f 55/65/14 54/66/14 19/67/14 20/68/14
f 52/69/15 51/70/15 16/71/15 17/72/15
f 59/73/16 58/61/16 23/64/16 24/74/16
f 56/75/17 55/65/17 20/68/17 21/76/17
f 53/77/18 52/69/18 17/72/18 18/78/18
f 60/79/19 59/73/19 24/74/19 25/80/19
f 57/81/20 56/75/20 21/76/20 22/82/20
f 54/66/21 53/83/21 18/84/21 19/67/21
f 49/85/22 60/86/22 25/87/22 14/88/22
f 51/70/23 50/89/23 15/90/23 16/71/23
f 15/91/5 14/92/5 25/93/5 24/94/5 23/95/5 22/96/5 21/97/5 20/98/5 19/99/5 18/100/5 17/101/5 16/102/5
f 34/103/24 69/104/24 48/105/24 13/106/24
f 50/107/25 49/85/25 14/88/25 15/108/25
f 29/109/12 33/110/12 32/111/12 28/112/12
f 26/113/4 30/114/4 31/115/4 27/116/4
f 27/117/2 31/118/2 33/119/2 29/120/2
f 28/121/9 32/122/9 30/123/9 26/124/9
f 2/125/26 34/126/26 13/127/26 10/128/26
f 79/129/26 93/130/26 88/131/26 47/132/26
f 47/132/26 88/131/26 43/133/26 46/134/26
f 37/38/2 40/37/2 39/45/2 38/44/2
f 6/52/11 13/54/11 48/135/11 40/136/11
f 37/137/26 44/138/26 41/139/26
f 38/140/26 42/141/26 44/138/26 37/137/26
f 90/142/27 39/143/27 40/144/27 43/145/27
f 36/30/9 47/29/9 46/146/9 45/147/9
f 43/148/12 48/135/12 45/149/12 46/150/12
f 40/136/11 48/135/11 43/148/11
f 50/151/26 51/152/26 52/153/26 53/154/26 54/155/26 55/156/26 56/157/26 57/158/26 58/159/26 59/160/26 60/161/26 49/162/26
f 64/163/12 63/164/12 67/165/12 68/166/12
f 61/167/4 62/168/4 66/169/4 65/170/4
f 62/171/2 64/172/2 68/173/2 66/174/2
f 63/175/9 61/176/9 65/177/9 67/178/9
f 36/179/5 45/180/5 48/181/5 69/182/5
f 37/183/12 41/184/12 7/185/12 3/186/12
f 78/187/9 79/188/9 47/29/9 12/32/9
f 75/189/12 74/190/12 76/191/12 77/192/12
f 73/193/26 77/194/26 76/195/26 72/196/26
f 71/197/2 75/198/2 77/199/2 73/200/2
f 70/201/5 74/202/5 75/203/5 71/204/5
f 72/205/9 76/206/9 74/207/9 70/208/9
f 1/209/28 35/210/28 79/188/28 78/187/28
f 35/211/26 87/212/26 93/130/26 79/129/26
f 80/213/4 81/214/4 86/215/4 87/216/4 35/217/4 1/218/4
f 82/1/29 83/219/29 84/220/29 85/6/29
f 88/221/30 89/2/30 90/5/30 43/222/30
f 92/223/31 83/219/31 82/1/31 91/4/31
f 94/3/32 89/2/32 88/221/32 93/224/32
f 80/225/33 92/16/33 91/226/33 81/227/33
f 86/228/34 94/229/34 93/130/34 87/212/34
f 1/230/5 78/13/5 92/16/5 80/225/5
f 100/231/35 99/232/35 101/233/35 102/234/35
f 98/235/26 102/236/26 101/237/26 97/238/26
f 96/239/36 100/240/36 102/241/36 98/242/36
f 95/243/5 99/244/5 100/245/5 96/246/5
f 97/247/37 101/248/37 99/249/37 95/250/37
f 108/251/38 107/252/38 109/253/38 110/254/38
f 106/255/26 110/256/26 109/257/26 105/258/26
f 104/259/39 108/260/39 110/261/39 106/262/39
f 103/263/5 107/264/5 108/265/5 104/266/5
f 105/267/40 109/268/40 107/269/40 103/270/40
f 116/271/41 115/272/41 117/273/41 118/274/41
f 114/275/26 118/276/26 117/277/26 113/278/26
f 112/279/37 116/280/37 118/281/37 114/282/37
f 111/283/5 115/284/5 116/285/5 112/286/5
f 113/287/36 117/288/36 115/289/36 111/290/36
f 124/291/4 123/292/4 125/293/4 126/294/4
f 122/295/26 126/296/26 125/297/26 121/298/26
f 120/299/9 124/300/9 126/301/9 122/302/9
f 119/303/5 123/304/5 124/305/5 120/306/5
f 121/307/2 125/308/2 123/309/2 119/310/2
f 132/311/42 131/312/42 133/313/42 134/314/42
f 130/315/26 134/316/26 133/317/26 129/318/26
f 128/319/40 132/320/40 134/321/40 130/322/40
f 127/323/5 131/324/5 132/325/5 128/326/5
f 129/327/39 133/328/39 131/329/39 127/330/39
f 135/331/43 136/332/43 138/333/43 137/334/43
f 137/334/44 138/333/44 140/335/44 139/336/44
f 139/337/45 140/338/45 142/339/45 141/340/45
f 141/340/46 142/339/46 144/341/46 143/342/46
f 143/343/47 144/344/47 146/345/47 145/346/47
f 139/347/5 141/348/5 143/349/5 137/350/5
f 137/350/5 143/349/5 145/351/5 135/352/5
f 138/353/26 144/354/26 142/355/26 140/356/26
f 136/357/26 146/358/26 144/354/26 138/353/26
